<?xml version="1.0" encoding="utf-8"?>
<!-- Generator: Adobe Illustrator 25.2.1, SVG Export Plug-In . SVG Version: 6.00 Build 0)  -->
<svg version="1.1" id="Layer_1" xmlns="http://www.w3.org/2000/svg" xmlns:xlink="http://www.w3.org/1999/xlink" x="0px" y="0px"
	 viewBox="0 0 321.05 261.7" style="enable-background:new 0 0 321.05 261.7;" xml:space="preserve">
<style type="text/css">
	.st0{fill:#BF024A;}
	.st1{fill:#F62A66;}
	.st2{fill:#FA5600;}
	.st3{fill:#F0B503;}
	.st4{fill:#092159;}
	.st5{fill:#44989F;}
	.st6{fill:#FFA810;}
	.st7{fill:#FE330A;}
	.st8{fill:#074468;}
	.st9{fill:#3CAE8C;}
	.st10{fill:#FE1A0E;}
</style>
<g>
	<polygon class="st0" points="56.98,156.14 57.21,126.31 77.2,126.31 77.2,120.11 57.21,120.11 57.54,84.19 77.77,83.85 
		77.65,77.75 49.19,78.08 48.62,158.4 48.62,162.35 78.33,162.35 78.56,156.14 	"/>
	<path class="st1" d="M58.85,246.09c-0.53-1.24-0.79-2.89-0.79-4.91l-0.45-58.62c-0.08-2.03,0.15-3.69,0.68-4.97
		c0.53-1.29,1.73-1.88,3.61-1.8l15.47,0.44v-6.32c-0.98,0-2.13-0.02-3.44-0.06c-1.32-0.03-2.7-0.08-4.13-0.11
		c-1.43-0.03-2.8-0.08-4.12-0.11c-1.32-0.03-2.47-0.06-3.45-0.06c-4.89-0.15-8.3,0.81-10.22,2.88c-1.91,2.08-2.84,5.29-2.77,9.66
		l0.56,59.53c0.08,4.37,1.03,7.55,2.88,9.54c1.85,1.99,5.18,3,10,3h15.25v-6.21H62.57C60.62,247.96,59.37,247.33,58.85,246.09"/>
	<path class="st2" d="M93.83,109.27l8.81-1.81c2.33-0.53,3.5,0.64,3.5,3.5l-0.45,51.4h8.37c0.08-8.28,0.15-16.9,0.23-25.86
		c0.07-8.96,0.14-17.63,0.22-25.98c0.08-3.69-1.11-6.34-3.56-7.97c-2.45-1.62-5.7-2.05-9.77-1.29l-7.34,1.58l0.11-6.1h-8.36
		l-0.56,65.63h8.36L93.83,109.27z"/>
	<path class="st3" d="M110.95,175.37c-2.45-1.63-5.7-2.05-9.77-1.29l-7.34,1.57l0.11-6.1h-8.36l-0.56,65.63h8.36l0.45-53.09
		l8.81-1.81c2.33-0.52,3.5,0.64,3.5,3.51l-0.11,14.91h8.36l0.11-15.36C114.58,179.64,113.39,176.99,110.95,175.37"/>
	<path class="st4" d="M131.76,89.57c0.56-1.28,1.82-1.92,3.78-1.92h8.93c0.07,7.9,0.13,15.91,0.17,24.03
		c0.03,8.12,0.09,16.2,0.17,24.25h-8.7c-1.97,0-3.2-0.61-3.73-1.86c-0.53-1.24-0.79-2.88-0.79-4.9l-0.56-34.74
		C130.95,92.47,131.2,90.86,131.76,89.57 M126.11,139.15c1.85,2,5.18,2.99,10,2.99h8.7c0,1.73,0.02,3.42,0.05,5.07
		c0.03,1.65,0.06,3.31,0.06,4.96c0,2.86-1.17,4.03-3.51,3.5l-17.62-3.61v6.43c1.13,0.23,2.38,0.49,3.79,0.79
		c1.39,0.3,2.8,0.6,4.23,0.9s2.84,0.6,4.24,0.9c1.39,0.3,2.66,0.57,3.79,0.79c4.07,0.75,7.34,0.31,9.83-1.3s3.69-4.26,3.62-7.95
		l-0.45-71.17h-17.17c-4.89-0.07-8.31,0.92-10.22,2.99c-1.91,2.07-2.84,5.28-2.77,9.64l0.57,35.52
		C123.31,133.97,124.26,137.15,126.11,139.15"/>
	<path class="st5" d="M144.98,223.33l-10.96,2.26c-2.26,0.53-3.39-0.64-3.39-3.51v-19.42c0-2.03,0.26-3.69,0.79-4.97
		c0.52-1.29,1.73-1.88,3.61-1.8l10.17,0.33L144.98,223.33z M150.17,171.21c-2.49-1.62-5.76-2.05-9.83-1.3l-17.17,3.62v6.43
		l18.75-3.85c2.33-0.52,3.51,0.64,3.51,3.5l-0.11,10.28c-1.81-0.07-3.6-0.13-5.36-0.17c-1.77-0.03-3.29-0.09-4.58-0.17
		c-4.9-0.14-8.31,0.83-10.22,2.94c-1.91,2.11-2.88,5.35-2.88,9.72l-0.11,20.32c-0.08,3.69,1.13,6.35,3.61,7.97
		c2.49,1.62,5.76,2.09,9.83,1.41l9.38-1.91v3.16h8.36c0.07-8.66,0.14-17.66,0.22-27c0.08-9.34,0.15-18.33,0.23-27
		C153.86,175.48,152.65,172.83,150.17,171.21"/>
	<polygon class="st6" points="169.85,77.52 161.49,77.52 160.93,162.35 169.28,162.35 	"/>
	<polygon class="st6" points="192.67,101.47 184.31,101.47 183.74,162.35 192.1,162.35 	"/>
	<rect x="184.19" y="79.33" class="st6" width="8.36" height="16.83"/>
	<path class="st7" d="M183.86,169.55c0.07,8.66,0.13,17.52,0.17,26.55c0.03,9.04,0.09,18,0.17,26.88h-9.83
		c-1.96,0-3.2-0.62-3.73-1.86s-0.79-2.88-0.79-4.91l-0.57-45.98h-8.36l0.56,46.43c0.08,4.44,1.03,7.66,2.88,9.66
		c1.85,2,5.22,3,10.11,3h9.71c0,1.88,0.03,3.75,0.07,5.59c0.03,1.84,0.05,3.67,0.05,5.48c0,2.86-1.17,4.03-3.51,3.51l-18.75-3.84
		v6.44c2.41,0.52,5.27,1.13,8.59,1.81c3.31,0.67,6.17,1.28,8.58,1.8c4.07,0.76,7.34,0.32,9.83-1.3c2.49-1.62,3.69-4.27,3.62-7.97
		l-0.45-71.28L183.86,169.55L183.86,169.55z"/>
	<path class="st8" d="M230.15,129.99c-1.92-2.14-5.33-3.22-10.23-3.22h-4.17c-1.73,0-2.94-0.51-3.62-1.53
		c-0.68-1.01-1.01-2.77-1.01-5.25l-0.12-7.34c-0.07-2.03,0.17-3.67,0.73-4.91c0.56-1.24,1.83-1.86,3.79-1.86h4.29
		c1.96,0,3.22,0.63,3.78,1.86c0.57,1.24,0.81,2.88,0.74,4.91v6.54h8.36v-7c0.08-4.37-0.84-7.54-2.77-9.54c-1.92-1.99-5.33-3-10.23-3
		h-4.07c-4.89,0-8.31,1-10.22,3s-2.84,5.18-2.77,9.54l0.22,8.25c0.15,4.83,1.26,8.12,3.34,9.88c2.07,1.77,5.29,2.66,9.66,2.66h4.19
		c1.73,0,2.89,0.57,3.5,1.69c0.6,1.13,0.9,2.83,0.9,5.08l-0.11,9.6c0,2.03-0.26,3.67-0.79,4.92c-0.54,1.23-1.77,1.86-3.73,1.86
		h-4.29c-1.96,0-3.23-0.62-3.79-1.86c-0.56-1.25-0.8-2.84-0.73-4.81l-0.11-4.74h-8.25v5.08c0.08,4.37,1.03,7.55,2.88,9.54
		c1.85,2,5.22,3,10.11,3h4.07c4.89,0,8.26-1,10.11-3c1.85-1.99,2.8-5.17,2.88-9.54c0-1.74,0.03-3.48,0.11-5.25
		c0.07-1.77,0.12-3.52,0.12-5.26C232.98,135.24,232.06,132.14,230.15,129.99"/>
	<path class="st9" d="M224.15,218.91c0,2.03-0.26,3.67-0.79,4.91c-0.52,1.23-1.76,1.86-3.73,1.86h-3.73c-1.96,0-3.2-0.62-3.73-1.86
		c-0.53-1.24-0.79-2.88-0.79-4.91v-36.38c-0.08-2.03,0.17-3.67,0.73-4.91c0.56-1.24,1.83-1.86,3.79-1.86h3.73
		c1.96,0,3.23,0.62,3.79,1.86c0.57,1.24,0.81,2.89,0.73,4.91V218.91z M219.63,169.55h-3.62c-4.89,0-8.28,1-10.16,3
		c-1.88,2-2.83,5.18-2.83,9.55v37.27c0,4.45,0.94,7.64,2.83,9.6c1.89,1.96,5.27,2.94,10.16,2.94h3.62c4.82,0,8.14-0.99,9.99-2.94
		c1.85-1.96,2.81-5.16,2.88-9.6V182.1c0.08-4.37-0.83-7.55-2.71-9.55C227.92,170.55,224.53,169.55,219.63,169.55"/>
	<path class="st10" d="M251.07,109.38l8.92-1.91c2.33-0.53,3.51,0.64,3.51,3.5l-0.45,51.4h8.36c0.08-8.28,0.15-16.9,0.23-25.86
		c0.07-8.96,0.14-17.63,0.22-25.98c0.08-3.69-1.11-6.34-3.56-7.97c-2.44-1.62-5.7-2.05-9.76-1.29l-7.46,1.58l0.23-26.43h-8.36
		l-0.56,85.95h8.36L251.07,109.38z"/>
	<path class="st6" d="M268.28,175.37c-2.44-1.63-5.7-2.05-9.76-1.29l-7.34,1.57l0.11-6.1h-8.36l-0.56,65.63h8.36l0.45-53.09
		l8.81-1.81c2.33-0.52,3.51,0.64,3.51,3.51l-0.45,51.4h8.36c0.08-8.28,0.15-16.91,0.23-25.87c0.07-8.95,0.14-17.62,0.22-25.98
		C271.92,179.64,270.73,176.99,268.28,175.37"/>
	<polygon class="st1" points="74.62,36.44 69.93,2.27 57.25,2.27 52.56,36.44 49.24,36.44 49.24,69.44 77.94,69.44 77.94,36.44 	"/>
	<polygon class="st3" points="110.86,58.46 106.17,24.29 93.49,24.29 88.8,58.46 85.48,58.46 85.48,91.46 114.18,91.46 
		114.18,58.46 	"/>
	<polygon class="st5" points="149,41.78 144.31,7.61 131.63,7.61 126.94,41.78 123.62,41.78 123.62,74.78 152.32,74.78 
		152.32,41.78 	"/>
	<polygon class="st7" points="189,39.78 183.81,5.61 169.79,5.61 164.59,39.78 160.93,39.78 160.93,72.77 192.67,72.77 
		192.67,39.78 	"/>
	<polygon class="st9" points="229.06,63.16 224.17,28.99 210.97,28.99 206.08,63.16 202.63,63.16 202.63,96.16 232.51,96.16 
		232.51,63.16 	"/>
	<polygon class="st6" points="268.97,39.78 264.08,5.61 250.89,5.61 246,39.78 242.54,39.78 242.54,72.77 272.43,72.77 
		272.43,39.78 	"/>
	<rect x="242.54" y="64.53" class="st10" width="29.88" height="8.25"/>
	<rect x="202.63" y="64.53" class="st8" width="29.88" height="31.64"/>
	<rect x="160.93" y="64.53" class="st6" width="31.74" height="8.25"/>
	<rect x="123.62" y="64.53" class="st4" width="28.7" height="10.26"/>
	<rect x="85.48" y="64.53" class="st2" width="28.7" height="26.94"/>
	<rect x="49.24" y="64.53" class="st0" width="28.7" height="4.91"/>
</g>
</svg>
