<?xml version="1.0" encoding="utf-8"?>
<!-- Generator: Adobe Illustrator 25.2.1, SVG Export Plug-In . SVG Version: 6.00 Build 0)  -->
<svg version="1.1" id="Layer_1" xmlns="http://www.w3.org/2000/svg" xmlns:xlink="http://www.w3.org/1999/xlink" x="0px" y="0px"
	 viewBox="0 0 595.28 313.22" style="enable-background:new 0 0 595.28 313.22;" xml:space="preserve">
<style type="text/css">
	.st0{fill:#212850;}
	.st1{fill:#EB6653;}
	.st2{fill:#FFD33E;}
	.st3{fill:none;stroke:#FFEC00;stroke-width:0.1713;stroke-miterlimit:10;}
	.st4{fill:#FFFFFF;}
</style>
<path class="st0" d="M297.64,308.78c-58.85,0-113.75-9.65-154.6-27.18c-20.3-8.71-36.34-19-47.68-30.58
	c-11.93-12.18-18.24-25.69-18.24-39.06c0-17.08,9.32-33,26.99-46.19c10.06-32.51,29.11-61.92,55.21-85.2
	c25.05-22.33,55.75-38.23,89.02-46.13c8.22-19.88,27.5-32.94,49.3-32.94s41.08,13.06,49.3,32.94c33.27,7.91,63.97,23.81,89.02,46.14
	c26.1,23.27,45.15,52.68,55.21,85.2c17.67,13.19,26.99,29.12,26.99,46.19c0,13.37-6.31,26.88-18.24,39.06
	c-11.34,11.58-27.38,21.87-47.68,30.58C411.4,299.12,356.49,308.78,297.64,308.78z"/>
<path class="st1" d="M297.64,301.01c-57.82,0-111.64-9.43-151.54-26.55c-38.9-16.69-61.22-39.47-61.22-62.5
	c0-15.18,8.94-29.46,25.9-41.45c9.43-32.15,27.96-61.2,53.7-84.15c25.16-22.43,56.08-38.03,89.69-45.29
	c5.96-18.71,23.47-31.81,43.46-31.81c19.99,0,37.5,13.1,43.46,31.81c33.6,7.26,64.53,22.86,89.69,45.29
	c25.74,22.95,44.27,51.99,53.7,84.15c16.96,11.98,25.91,26.27,25.91,41.45c0,23.02-22.31,45.8-61.22,62.5
	C409.28,291.58,355.46,301.01,297.64,301.01z"/>
<path class="st2" d="M297.64,293.24c-122.61,0-204.98-42.03-204.98-81.28c0-16.35,12.94-28.71,24.84-36.62
	c17.89-64.88,73.55-114.37,142.99-127.62c3.39-17.42,18.86-30.69,37.15-30.69c18.29,0,33.77,13.27,37.15,30.69
	c69.43,13.24,125.1,62.74,142.99,127.62c11.9,7.91,24.84,20.28,24.84,36.62C502.62,251.21,420.26,293.24,297.64,293.24z"/>
<path class="st0" d="M470.84,180.42c-0.16-0.62-0.31-1.24-0.47-1.85c-17.13-63.71-73.09-112.89-142.85-124.02
	c-0.28-16.35-13.66-29.56-30.07-29.56s-29.79,13.21-30.07,29.56c-69.76,11.13-125.72,60.31-142.85,124.02
	c-0.17,0.61-0.32,1.23-0.47,1.85c-15.19,9.43-23.82,20.24-23.82,31.73c0,32.62,77.63,73.51,197.21,73.51s197.21-40.89,197.21-73.51
	C494.66,200.66,486.03,189.85,470.84,180.42z M297.45,41.9c6.43,0,11.79,4.63,12.94,10.73c-4.28-0.29-8.59-0.44-12.94-0.44
	c-4.35,0-8.67,0.16-12.94,0.44C285.66,46.53,291.02,41.9,297.45,41.9z"/>
<path class="st3" d="M297.64,78.31"/>
<g>
	<g>
		<g>
			<g>
				<path class="st4" d="M135.71,231.59c-1.05-0.85-1.86-1.62-2.44-2.31c-0.04-2.34-0.07-3.83-0.11-6.91c1.6,0.63,2.4,0.94,4,1.55
					c0.01,0.85,0.11,1.48,0.29,1.92c0.18,0.44,0.49,0.75,0.94,0.93c0.38,0.15,0.64,0.13,0.8-0.06c0.16-0.19,0.23-0.55,0.22-1.08
					c-0.01-0.44-0.09-0.86-0.26-1.25c-0.16-0.38-0.44-0.82-0.84-1.3c-0.63-0.73-0.95-1.1-1.58-1.82c-1.36-1.65-2.34-3.35-2.94-5.09
					c-0.6-1.75-0.92-3.93-0.94-6.38c-0.03-2.98,0.42-4.8,1.33-5.9c0.91-1.1,2.44-1.49,4.59-1.34c1.03,0.07,2.01,0.29,2.93,0.72
					c0.92,0.42,1.67,0.98,2.24,1.72c0.05,2.52,0.07,4.03,0.13,7.19c-1.44-0.28-2.17-0.42-3.61-0.7c-0.02-1.41-0.4-2.13-1.15-2.26
					c-0.36-0.06-0.61-0.01-0.76,0.16c-0.15,0.17-0.22,0.51-0.21,1.02c0.01,0.46,0.1,0.85,0.28,1.16c0.18,0.31,0.47,0.67,0.87,1.07
					c0.64,0.65,0.95,0.98,1.59,1.66c1.29,1.36,2.25,3.02,2.87,4.97c0.62,1.95,0.96,4.45,1.02,7.27c0.08,3.85-0.38,6.22-1.38,7.31
					c-1,1.09-2.52,0.95-4.54-0.07C137.87,233.16,136.76,232.44,135.71,231.59z"/>
				<path class="st4" d="M147.01,230.76c0.37,0.14,0.55,0.2,0.91,0.34c-0.19-7.95-0.27-13.36-0.42-21.18
					c-0.36-0.05-0.54-0.08-0.9-0.14c-0.05-2.82-0.08-4.13-0.12-6.29c3.16,0.21,4.74,0.3,7.92,0.49c1.56,0.09,2.77,0.81,3.63,2.45
					c0.86,1.64,1.34,4.43,1.43,8.7c0.09,4.28-0.26,7.52-1.04,9.31c-0.79,1.79-1.97,2.43-3.54,2c-0.8-0.22-1.2-0.33-1.99-0.56
					c0.06,2.92,0.09,4.37,0.16,7.05c0.7,0.24,1.06,0.37,1.76,0.61c0.08,3.11,0.12,4.58,0.2,7.07c-3.13-1.3-4.7-1.98-7.82-3.4
					C147.11,234.97,147.08,233.62,147.01,230.76z M153.36,218.78c0.7,0.15,1.04-0.89,0.99-3.03c-0.01-0.72-0.02-1.08-0.04-1.79
					c-0.02-1.08-0.13-1.87-0.31-2.38c-0.19-0.51-0.45-0.79-0.81-0.84c-0.25-0.03-0.37-0.05-0.62-0.09c0.06,3.01,0.09,4.67,0.16,7.99
					C152.99,218.7,153.11,218.73,153.36,218.78z"/>
				<path class="st4" d="M173.73,239.29c0.3,0.08,0.45,0.12,0.74,0.2c0.09,3.64,0.13,5.37,0.22,8.39c-2.92-0.95-4.37-1.45-7.27-2.48
					c-0.09-2.84-0.14-4.48-0.22-7.94c0.44,0.13,0.67,0.19,1.11,0.32c-0.16-1.73-0.24-2.63-0.4-4.44c-1.01-0.26-1.51-0.39-2.51-0.66
					c-0.08,1.72-0.12,2.56-0.19,4.19c0.44,0.13,0.66,0.2,1.11,0.33c0.09,3.43,0.13,5.06,0.22,7.88c-2.53-0.91-3.79-1.39-6.31-2.37
					c-0.09-2.64-0.13-4.19-0.21-7.45c0.29,0.09,0.44,0.14,0.74,0.23c0.77-10.36,1.45-20.74,2.4-31.06c2.67,0.13,4.01,0.19,6.71,0.3
					C171.39,216.26,172.49,227.78,173.73,239.29z M165.68,226.86c0.68,0.15,1.02,0.23,1.7,0.37c-0.4-4.63-0.6-7.01-0.99-11.39
					c-0.07-0.01-0.11-0.02-0.18-0.03C165.99,220.11,165.89,222.42,165.68,226.86z"/>
				<path class="st4" d="M177.91,244.84c-1.36-3.73-2.13-9.74-2.3-18.26c-0.32-16.26,1.96-22.17,6.89-22.03
					c1.2,0.03,2.32,0.42,3.37,1.23c1.05,0.81,1.84,1.73,2.37,2.77c0.11,5.45,0.16,8.66,0.26,15.08c-1.82-0.23-2.73-0.35-4.54-0.6
					c-0.03-1.81-0.05-2.7-0.08-4.47c-0.03-1.55-0.16-2.67-0.38-3.4c-0.23-0.73-0.55-1.11-0.98-1.14c-0.43-0.04-0.74,0.28-0.94,0.96
					c-0.2,0.68-0.29,1.77-0.26,3.29c0.14,7.28,0.2,11.36,0.35,18.67c0.03,1.53,0.16,2.66,0.39,3.41c0.23,0.76,0.55,1.18,0.98,1.28
					c0.43,0.1,0.74-0.17,0.94-0.84c0.2-0.66,0.28-1.76,0.25-3.31c-0.04-1.99-0.06-3-0.1-5.04c1.81,0.33,2.72,0.49,4.53,0.81
					c0.11,6.67,0.17,10.02,0.3,15.71c-0.49,0.9-1.24,1.59-2.22,2.1c-0.99,0.5-2.07,0.55-3.25,0.2
					C181.13,250.56,179.27,248.56,177.91,244.84z"/>
				<path class="st4" d="M191.65,252.83c-0.08-3.39-0.12-5.3-0.2-9.3c0.38,0.08,0.57,0.12,0.95,0.2
					c-0.17-9.64-0.31-19.28-0.46-28.92c-0.38-0.03-0.57-0.04-0.96-0.07c-0.07-3.98-0.1-5.89-0.17-9.25
					c5.17,0.14,7.79,0.21,13.09,0.34c0.1,6.65,0.14,10.79,0.23,19.04c-1.75-0.18-2.62-0.26-4.35-0.45
					c-0.05-3.71-0.07-5.55-0.12-9.04c-0.94-0.07-1.41-0.1-2.34-0.17c0.06,3.95,0.08,6.06,0.14,10.29c0.68,0.08,1.02,0.12,1.7,0.19
					c0.04,3.07,0.06,4.63,0.1,7.71c-0.68-0.1-1.02-0.15-1.69-0.24c0.07,4.78,0.1,7.18,0.17,11.64c0.93,0.18,1.39,0.27,2.32,0.44
					c-0.06-4-0.09-6.13-0.14-10.4c1.73,0.25,2.59,0.38,4.33,0.61c0.1,8.84,0.15,13.33,0.28,20.43
					C199.33,254.76,196.76,254.15,191.65,252.83z"/>
				<path class="st4" d="M217.6,253.51c-1.38-4.27-2.3-11.56-2.16-21.41c0.13-8.83-0.33-25.11,7.77-26.72
					c0.99-0.2,2.5,0.48,3.63,1.43c1.12,0.95,1.96,2.04,2.51,3.26c0,6.45,0,10.14-0.02,17.5c-1.96-0.14-2.94-0.21-4.89-0.36
					c0-2.09,0-3.14-0.01-5.19c0-1.8-0.12-3.12-0.35-3.96c-0.23-0.85-0.58-1.27-1.04-1.3c-0.46-0.02-0.8,0.37-1.03,1.18
					c-0.23,0.81-0.34,2.1-0.33,3.89c0.02,8.54,0.03,13.23,0.05,21.76c0.01,1.79,0.12,3.1,0.35,3.95c0.23,0.86,0.57,1.31,1.02,1.37
					c0.45,0.06,0.79-0.3,1.02-1.1c0.22-0.8,0.34-2.09,0.33-3.89c0-2.3-0.01-3.48-0.01-5.84c1.93,0.2,2.91,0.3,4.86,0.49
					c-0.01,7.63-0.02,11.46-0.01,18.11c-0.55,1.12-1.36,2.06-2.43,2.82c-1.07,0.76-2.22,1.01-3.47,0.8
					C220.91,259.89,218.98,257.78,217.6,253.51z"/>
				<path class="st4" d="M249.21,217.88c-0.41-0.01-0.61-0.02-1.02-0.03c-0.1,11.3-0.2,22.6-0.29,33.9
					c0.41,0.04,0.61,0.06,1.02,0.09c-0.03,4.74-0.05,7.03-0.07,11.18c-3.1-0.35-4.67-0.54-7.78-0.94c0.02-4.08,0.03-6.33,0.07-11
					c0.4,0.04,0.6,0.06,0.99,0.1c0.04-4.71,0.06-7.2,0.11-12.2c-1.17-0.09-1.75-0.14-2.92-0.24c-0.04,4.97-0.05,7.45-0.08,12.13
					c0.4,0.04,0.59,0.06,0.99,0.11c-0.03,4.66-0.05,6.91-0.06,10.98c-3.1-0.41-4.64-0.62-7.69-1.06c-0.01-3.99,0-6.2,0.01-10.79
					c0.41,0.05,0.61,0.07,1.02,0.12c0.04-10.99,0.08-21.98,0.12-32.97c-0.42-0.02-0.62-0.03-1.04-0.05
					c0.01-4.61,0.02-6.83,0.02-10.85c3.15,0.05,4.74,0.08,7.95,0.13c-0.02,4.11-0.03,6.37-0.07,11.06c-0.4-0.02-0.61-0.02-1.01-0.04
					c-0.03,4.34-0.05,6.61-0.08,11.19c1.17,0.07,1.76,0.11,2.93,0.18c0.04-4.6,0.06-6.89,0.1-11.25c-0.41-0.02-0.61-0.02-1.01-0.04
					c0.04-4.7,0.05-6.96,0.07-11.08c3.22,0.05,4.73,0.07,7.79,0.11C249.27,210.81,249.25,213.12,249.21,217.88z"/>
				<path class="st4" d="M252.96,263.47c0.01-4.19,0.02-6.49,0.05-11.27c0.41,0.03,0.61,0.05,1.02,0.08
					c0.08-11.41,0.16-22.83,0.25-34.24c-0.4-0.01-0.61-0.02-1.01-0.03c0.04-4.8,0.05-7.12,0.08-11.34c5.45,0.05,8.17,0.07,13.57,0.1
					c-0.04,7.95-0.07,12.7-0.13,22.15c-1.8-0.05-2.7-0.08-4.5-0.15c0.03-4.3,0.04-6.43,0.07-10.52c-0.97-0.02-1.46-0.03-2.43-0.06
					c-0.03,4.67-0.05,7.12-0.08,12.04c0.71,0.03,1.06,0.04,1.77,0.07c-0.02,3.56-0.03,5.36-0.05,8.92
					c-0.71-0.03-1.07-0.05-1.78-0.09c-0.03,5.55-0.05,8.33-0.07,13.57c0.98,0.07,1.47,0.1,2.45,0.17c0.02-4.67,0.03-7.13,0.06-12.06
					c1.81,0.09,2.71,0.13,4.51,0.21c-0.05,10.1-0.07,15.22-0.06,23.64C261.21,264.27,258.47,264.03,252.96,263.47z"/>
				<path class="st4" d="M270.66,264.95c-0.01-4.31,0-6.68,0-11.58c0.4,0.02,0.6,0.03,1,0.05c0.02-11.67,0.08-23.33,0.15-35
					c-0.4-0.01-0.6-0.01-1-0.01c0.03-4.91,0.04-7.29,0.06-11.62c4.78,0.01,7.16,0.01,11.9,0c-0.04,6.93-0.06,10.95-0.09,19.08
					c-1.41-0.01-2.11-0.02-3.52-0.04c0.01-2.98,0.02-4.45,0.03-7.31c-0.72-0.01-1.09-0.01-1.81-0.02c-0.03,5-0.04,7.63-0.06,12.9
					c1.2,0.02,1.8,0.03,3.01,0.05c-0.01,3.63-0.02,5.46-0.03,9.09c-1.2-0.03-1.8-0.04-3.01-0.07c-0.02,5.4-0.02,8.09-0.03,13.2
					c1.05,0.04,1.57,0.06,2.62,0.09c0,4.94,0,7.33,0.02,11.69C276.22,265.28,274.37,265.18,270.66,264.95z"/>
				<path class="st4" d="M287.47,265.52c-1.14-0.77-2.01-1.64-2.63-2.63c-0.02-5.49-0.02-8.52-0.01-14.7
					c1.75,0.03,2.62,0.05,4.37,0.07c0,1.62,0.09,2.77,0.28,3.49c0.18,0.72,0.52,1.08,1.01,1.08c0.41,0,0.7-0.23,0.88-0.72
					c0.18-0.48,0.27-1.21,0.27-2.2c0-0.83-0.09-1.54-0.26-2.15c-0.17-0.6-0.47-1.22-0.89-1.86c-0.68-0.95-1.02-1.43-1.7-2.39
					c-1.46-2.24-2.51-4.89-3.14-7.94c-0.63-3.05-0.94-7.18-0.92-12.21c0.03-6.12,0.56-10.47,1.6-13.35c1.04-2.87,2.75-4.2,5.14-4.21
					c1.15-0.01,2.22,0.37,3.22,1.15c1,0.78,1.81,1.84,2.42,3.2c-0.03,5.04-0.04,7.78-0.06,13.38c-1.58,0.01-2.36,0.01-3.94,0.01
					c0.01-2.6-0.39-3.86-1.21-3.86c-0.4,0-0.68,0.19-0.84,0.58c-0.17,0.38-0.25,1.06-0.26,2.04c0,0.88,0.09,1.58,0.28,2.11
					c0.19,0.52,0.5,1.07,0.93,1.65c0.68,0.95,1.03,1.42,1.71,2.38c1.39,1.91,2.4,4.4,3.03,7.47c0.63,3.08,0.94,7.13,0.95,11.99
					c0,6.64-0.54,11.35-1.66,14.39c-1.11,3.05-2.76,4.43-4.94,4.39C289.81,266.67,288.6,266.29,287.47,265.52z"/>
				<path class="st4" d="M310.1,265.63c-0.03-4.41-0.05-6.82-0.06-11.79c0.39-0.01,0.59-0.02,0.98-0.03
					c-0.04-11.8-0.02-23.6,0.03-35.4c-0.39,0.01-0.59,0.01-0.98,0.01c0.02-4.97,0.04-7.38,0.07-11.79c4.69-0.04,7.03-0.06,11.71-0.1
					c-0.07,6.91-0.09,10.91-0.12,19c-1.38,0.04-2.08,0.05-3.46,0.08c0.01-2.98,0.02-4.45,0.03-7.32c-0.71,0.01-1.07,0.02-1.78,0.03
					c-0.03,5.02-0.03,7.66-0.04,12.94c1.18-0.03,1.77-0.05,2.95-0.08c-0.01,3.62-0.01,5.45-0.01,9.08c-1.18,0.04-1.77,0.06-2.95,0.1
					c0,5.41,0.01,8.12,0.02,13.26c1.03-0.04,1.54-0.06,2.57-0.11c0.02,4.95,0.03,7.35,0.07,11.74
					C315.53,265.45,313.72,265.52,310.1,265.63z"/>
				<path class="st4" d="M325.54,253.21c0.39-0.02,0.59-0.03,0.98-0.06c-0.05-11.67-0.04-23.35,0.02-35.02
					c-0.39,0.01-0.59,0.01-0.98,0.02c0.03-4.92,0.05-7.3,0.09-11.66c3.59-0.04,5.38-0.05,8.97-0.09c1.68-0.02,2.95,1.1,3.81,3.51
					c0.86,2.41,1.26,6.43,1.23,12.43c-0.02,3.38-0.2,6.38-0.56,8.94c-0.36,2.56-0.86,4.36-1.51,5.39c0.01,0.31,0.01,0.47,0.02,0.78
					c1.25,0.71,1.87,3.77,1.88,9c0.01,2.35,0.01,3.51,0.02,5.78c0.37-0.03,0.55-0.05,0.92-0.08c0.02,4.83,0.04,7.17,0.09,11.46
					c-2.47,0.25-3.71,0.37-6.18,0.59c-0.06-6.2-0.08-9.73-0.1-16.93c-0.01-1.99-0.08-3.51-0.23-4.54c-0.15-1.03-0.39-1.72-0.7-2.07
					c-0.32-0.35-0.77-0.51-1.36-0.47c0,5.15,0.01,7.72,0.03,12.61c0.52-0.04,0.77-0.05,1.29-0.09c0.02,4.88,0.04,7.25,0.08,11.58
					c-3.09,0.26-4.64,0.38-7.73,0.59C325.58,260.52,325.56,258.13,325.54,253.21z M333.01,230.55c0.38-0.02,0.66-0.43,0.85-1.25
					c0.19-0.81,0.29-2.08,0.29-3.78c0-1.11,0.01-1.66,0.01-2.76c0.01-1.68-0.08-2.89-0.26-3.66c-0.18-0.77-0.46-1.14-0.84-1.13
					c-0.42,0.01-0.63,0.02-1.05,0.03c-0.03,4.88-0.04,7.45-0.05,12.6C332.38,230.58,332.59,230.57,333.01,230.55z"/>
				<path class="st4" d="M345.73,257.54c-1.33-4.31-2.02-11.89-2.01-22.78c0.01-10.89,0.72-18.53,2.06-22.98
					c1.34-4.45,3.21-6.4,5.6-6.42c2.38-0.02,4.19,1.89,5.43,6.18c1.24,4.29,1.8,11.62,1.79,22.18c-0.01,10.56-0.59,18.02-1.84,22.53
					c-1.26,4.5-3.07,6.7-5.44,7.01C348.92,263.57,347.06,261.84,345.73,257.54z M352.19,249.73c0.22-0.9,0.32-2.27,0.31-4.15
					c-0.03-8.98-0.03-13.84,0.02-22.8c0.01-1.88-0.09-3.23-0.3-4.09c-0.22-0.86-0.54-1.28-0.99-1.27c-0.44,0.02-0.78,0.46-1,1.34
					c-0.23,0.88-0.35,2.25-0.36,4.14c-0.05,9.01-0.05,13.9-0.02,22.92c0.01,1.94,0.12,3.32,0.35,4.14c0.22,0.83,0.56,1.22,1,1.17
					C351.64,251.1,351.97,250.63,352.19,249.73z"/>
				<path class="st4" d="M382.57,215.99c-0.38,0.02-0.57,0.03-0.95,0.06c-0.13,10.37-0.2,20.74-0.2,31.1
					c0.38-0.06,0.56-0.09,0.94-0.16c0,4.33,0,6.42,0.02,10.19c-2.83,0.59-4.25,0.86-7.07,1.4c-0.03-3.88-0.04-6.02-0.04-10.46
					c0.36-0.05,0.54-0.08,0.9-0.14c-0.01-9.44,0-14.87,0.08-24.72c-1.13,11.91-2.12,23.83-3.21,35.74c-1.1,0.2-1.65,0.3-2.75,0.49
					c-1.33-11.7-2.32-23.46-3.29-35.23c-0.06,9.98-0.06,15.44-0.02,25.02c0.36-0.05,0.53-0.07,0.89-0.12
					c0.02,4.54,0.03,6.74,0.07,10.73c-2.43,0.41-3.64,0.6-6.04,0.97c-0.04-4.08-0.06-6.31-0.09-10.93c0.37-0.04,0.55-0.07,0.92-0.11
					c-0.03-10.94-0.01-21.88,0.06-32.83c-0.37,0.02-0.55,0.02-0.92,0.04c0.04-4.6,0.07-6.83,0.14-10.88
					c3.38-0.04,5.09-0.06,8.53-0.11c0.65,7.49,1,12.02,1.73,20.94c0.8-9.05,1.23-13.59,2.12-21c3.33-0.06,5-0.1,8.36-0.17
					C382.66,209.57,382.63,211.66,382.57,215.99z"/>
				<path class="st4" d="M395.67,254.03c-1.07-0.33-1.89-0.83-2.46-1.5c0.01-4.52,0.02-7.06,0.05-12.26
					c1.66-0.29,2.49-0.44,4.15-0.74c-0.01,1.33,0.07,2.27,0.24,2.82c0.17,0.55,0.49,0.78,0.95,0.69c0.39-0.08,0.67-0.33,0.84-0.76
					c0.17-0.43,0.26-1.04,0.27-1.84c0.01-0.67-0.07-1.24-0.23-1.7c-0.16-0.46-0.44-0.91-0.83-1.36c-0.64-0.66-0.96-1-1.6-1.68
					c-1.38-1.62-2.36-3.68-2.95-6.17c-0.58-2.48-0.85-5.95-0.79-10.19c0.07-5.15,0.63-8.81,1.66-11.2c1.03-2.39,2.7-3.48,4.99-3.55
					c1.1-0.03,2.13,0.24,3.08,0.81c0.95,0.57,1.71,1.36,2.28,2.38c-0.09,3.9-0.14,6.08-0.22,10.53c-1.51,0.16-2.26,0.24-3.78,0.39
					c0.04-2.11-0.34-3.09-1.12-3.03c-0.38,0.03-0.65,0.21-0.81,0.54c-0.16,0.33-0.25,0.89-0.26,1.69c-0.01,0.72,0.07,1.29,0.25,1.7
					c0.18,0.41,0.47,0.83,0.88,1.26c0.65,0.7,0.97,1.05,1.61,1.75c1.31,1.39,2.25,3.26,2.82,5.64c0.57,2.38,0.83,5.56,0.78,9.42
					c-0.06,5.27-0.63,9.05-1.71,11.69c-1.08,2.64-2.64,4.14-4.69,4.69C397.86,254.35,396.73,254.35,395.67,254.03z"/>
				<path class="st4" d="M408.17,241.84c0.37-0.09,0.56-0.13,0.93-0.22c0.13-10.52,0.24-17.12,0.46-27.69
					c-0.38,0.03-0.56,0.05-0.94,0.09c0.08-3.87,0.12-5.73,0.21-9.02c3.3-0.13,4.94-0.2,8.2-0.34c1.59-0.07,2.78,0.71,3.56,2.5
					c0.78,1.78,1.11,4.82,1,9.52c-0.11,4.7-0.6,8.35-1.48,10.71c-0.87,2.36-2.1,3.72-3.68,4.05c-0.8,0.17-1.21,0.25-2.01,0.42
					c-0.06,3.49-0.09,5.23-0.14,8.49c0.71-0.18,1.06-0.27,1.77-0.46c-0.06,3.68-0.08,5.43-0.12,8.52c-3.12,1.01-4.7,1.49-7.86,2.42
					C408.11,247.54,408.12,245.69,408.17,241.84z M415.21,223.06c0.72-0.11,1.1-1.47,1.15-4.01c0.02-0.86,0.03-1.28,0.05-2.12
					c0.03-1.29-0.04-2.2-0.2-2.77c-0.17-0.57-0.43-0.83-0.79-0.8c-0.25,0.02-0.38,0.04-0.63,0.06c-0.09,3.74-0.13,5.74-0.21,9.74
					C414.83,223.12,414.96,223.1,415.21,223.06z"/>
				<path class="st4" d="M435.21,234.14c0.28-0.09,0.42-0.14,0.7-0.24c-0.07,3.14-0.1,4.62-0.16,7.14c-2.73,1.15-4.11,1.71-6.9,2.78
					c0.05-2.74,0.08-4.32,0.15-7.66c0.43-0.13,0.64-0.2,1.07-0.34c-0.08-1.58-0.12-2.4-0.19-4.07c-0.97,0.27-1.45,0.41-2.43,0.67
					c-0.15,1.77-0.23,2.64-0.38,4.33c0.43-0.13,0.64-0.2,1.07-0.33c-0.07,3.37-0.1,4.96-0.15,7.73c-2.44,0.93-3.67,1.37-6.15,2.24
					c0.04-2.93,0.07-4.62,0.13-8.14c0.29-0.08,0.44-0.12,0.73-0.21c1.2-11.28,2.31-22.57,3.85-33.85c2.63-0.13,3.93-0.2,6.5-0.34
					C433.87,213.93,434.45,224.05,435.21,234.14z M427.96,226.46c0.66-0.15,0.99-0.23,1.65-0.38c-0.19-4.34-0.28-6.6-0.46-10.83
					c-0.07,0.01-0.11,0.02-0.18,0.03C428.56,219.6,428.36,221.93,427.96,226.46z"/>
				<path class="st4" d="M439.26,236.32c-1.11-2.22-1.59-6.99-1.4-14.29c0.36-13.93,2.84-19.12,7.2-19.35
					c1.06-0.06,2.02,0.15,2.9,0.61c0.88,0.46,1.52,1,1.93,1.64c-0.1,3.63-0.17,5.91-0.29,10.44c-1.57,0.38-2.36,0.56-3.97,0.93
					c0.04-1.37,0.06-2.05,0.09-3.37c0.03-1.17-0.04-1.98-0.21-2.49c-0.17-0.5-0.45-0.72-0.83-0.67c-0.38,0.06-0.67,0.36-0.88,0.94
					c-0.21,0.57-0.33,1.45-0.36,2.64c-0.16,5.71-0.25,8.97-0.39,14.64c-0.03,1.19,0.04,2,0.22,2.47c0.18,0.47,0.46,0.62,0.84,0.47
					c0.38-0.15,0.67-0.52,0.88-1.12c0.2-0.6,0.32-1.46,0.35-2.62c0.04-1.48,0.06-2.24,0.1-3.78c1.61-0.49,2.4-0.75,3.98-1.26
					c-0.12,4.68-0.18,7.03-0.27,10.7c-0.47,0.87-1.15,1.77-2.05,2.72c-0.9,0.94-1.88,1.67-2.94,2.18
					C442.02,238.78,440.38,238.54,439.26,236.32z"/>
				<path class="st4" d="M451.35,233.69c0.04-1.96,0.07-3.17,0.14-5.76c0.32-0.14,0.49-0.21,0.81-0.35
					c0.17-7.01,0.31-11.95,0.5-19.08c-0.32,0.05-0.48,0.08-0.8,0.13c0.07-2.63,0.1-3.87,0.16-5.91c4.31-0.27,6.38-0.41,10.33-0.67
					c-0.03,2.91-0.08,5.18-0.17,9.64c-1.33,0.38-2.01,0.57-3.39,0.94c0.05-2.17,0.08-3.25,0.12-5.21c-0.74,0.13-1.11,0.2-1.86,0.33
					c-0.06,2.33-0.09,3.61-0.15,6.2c0.55-0.15,0.82-0.23,1.36-0.38c-0.04,1.82-0.07,2.75-0.11,4.58c-0.54,0.19-0.82,0.29-1.37,0.48
					c-0.07,2.91-0.11,4.37-0.17,6.94c0.76-0.35,1.14-0.53,1.89-0.89c0.05-2.2,0.08-3.44,0.14-5.92c1.38-0.52,2.06-0.78,3.41-1.31
					c-0.1,4.76-0.15,7.2-0.19,10.14C457.89,230.15,455.75,231.37,451.35,233.69z"/>
			</g>
		</g>
	</g>
	<path class="st4" d="M272.42,144.87c0.51-4.62,0.8-7.54,0.8-7.54s10.55-0.99,19.45-1.11l-1.47,26.16
		c-0.34,8.55-4.98,15.36-9.79,19.37c-5.02,4.18-11.45,6.08-21.55,6.64c-14.49,0.81-24.03-5.75-26.85-19.72
		c-2.99-14.79,0.49-33.41,6.27-50.4c9.37-27.58,23.15-38.06,39.99-39.81c10.27-1.07,16.33,7.13,15.8,14.78
		c-0.39,5.53-0.56,8.35-0.56,8.35c-8.67-0.12-16.97,0.84-16.97,0.84s0.47-2.91,0.8-5.54c0.37-2.87,1.23-6.57-1.93-6.34
		c-4.63,0.34-7.18,5.96-8.24,9.57c-0.8,2.71-1.91,5.69-3.98,17.24c-2.14,11.93-3.57,21.67-4.28,27.66
		c-0.45,3.79-0.64,10.62,5.35,10.31C271.01,155.03,271.95,149.13,272.42,144.87z"/>
	<path class="st4" d="M370.22,142.25c0,0,4.82,19.56,6.49,26.12c1.43,6.15,8.11,22.63,33.82,26.38c15.08,2.2,22.82-3.14,27.3-13.62
		c4.98-11.64-3.01-29.45-13.43-38.91c-9.17-8.32-15.42-12.42-26.5-19.51c-10.07-6.44-13.93-9.41-16.41-14.17
		c-2.11-4.05,1.43-4.12,3.35-3.64c2.78,0.71,6.8,3.45,8.98,6.22l1.72,2.4l19.75,10.68l-5.72-7.64
		c-7.89-9.18-19.67-18.95-30.49-22.07c-8.95-2.57-19.08-2.25-19.77,6.8c-0.36,4.73,2.52,12.46,9.4,19.18
		c5.76,5.64,16.27,14.35,27.13,20.7c13.12,7.67,16.38,14.96,17.41,19.31c1.1,4.62-1.96,7.98-5.89,7.1
		c-4.24-0.95-7.07-5.01-8.05-8.69c-0.73-2.75-2.35-7.63-2.35-7.63C382.76,146.03,370.22,142.25,370.22,142.25z"/>
	<path class="st4" d="M158.91,159.77c0,0-3.17,7.24-6.06,16.9c-3.68,12.3,14.92,20.87,30.79,18.09c15.98-2.8,23.35-8.41,29.55-17.47
		c5.33-7.78,9.45-21.27,5.18-31.72c-3.17-7.77-10.11-13.58-14.03-18.28c-6.28-7.51-0.83-14.44,2.16-17.87
		c2.79-3.2,6.33-5.04,8.52-5.03c3.35,0.02,2.27,3.41,0.97,5.76l-2.92,5.4c0,0,7.44-2.43,22.02-6.24l3.92-9.09
		c3.74-8-6.21-11.07-19.52-6.51c-6.07,2.08-16.64,6.55-24.37,12.48c-7.59,5.82-12.04,9.32-15.44,15.91
		c-2.65,5.14-2.38,13.02,2.57,20.09c2.8,4,9.4,9.96,8.48,15.17c-0.65,3.68-2.37,8.83-8.04,9.92c-4.41,0.85-7.35-2.76-4.83-9.99
		c1.44-4.12,3.04-8.03,3.04-8.03C170.47,153.56,158.91,159.77,158.91,159.77z"/>
	<path class="st4" d="M348.7,156.08c-0.03,0-0.06-0.01-0.09-0.01c-5.18-0.77-8.75-1.19-8.75-1.19c-1.63-11.18-4.33-27.11-4.34-27.16
		c0,0,11.28,1.32,16.41,2.91c-1.56-7.3-3.82-14.51-3.82-14.51c-5.13-1.22-10.25-2.03-15.36-2.67c-1.97-10.26-3.91-17.8-3.91-17.8
		s5.56,0.58,9.92,1.65l2.05,5.79c0,0,8.19,1.3,13.28,3.1c-5.34-13.32-9.61-20.49-9.61-20.49c-14.82-4.56-29.66-6.82-42.64-6.89
		l0.81,15l5.07,0.12c0,0,3.08,38.3,4.22,59.06l-6.24-0.15l1.59,33.19c14.34-0.02,31.23,0.67,46.03,1.62
		c0.94,0.06,1.87,0.12,2.79,0.18C353.15,171.76,349.81,159.86,348.7,156.08z"/>
</g>
</svg>
