<?xml version="1.0" encoding="utf-8"?>
<!-- Generator: Adobe Illustrator 25.2.1, SVG Export Plug-In . SVG Version: 6.00 Build 0)  -->
<svg version="1.1" id="Layer_1" xmlns="http://www.w3.org/2000/svg" xmlns:xlink="http://www.w3.org/1999/xlink" x="0px" y="0px"
	 viewBox="0 0 32.6 22" style="enable-background:new 0 0 32.6 22;" xml:space="preserve">
<g>
	<g>
		<path d="M5.1,4.1h6.1c2.2,0,4.7,0.6,4.7,3.4c0,1.2-0.7,2.2-1.7,2.7c1.4,0.4,2.2,1.7,2.2,3.2c0,3.2-2.3,4.2-5.1,4.2H5.1V4.1z
			 M8.5,9.5h2.6c0.6,0,1.4-0.3,1.4-1.3c0-1-0.7-1.3-1.4-1.3H8.5V9.5z M8.5,14.9h2.7c1.1,0,1.8-0.4,1.8-1.5c0-1.2-0.8-1.6-1.8-1.6
			H8.5V14.9z"/>
		<path d="M20.5,13.4c0.1,1.4,0.8,2.3,2.1,2.3c0.7,0,1.5-0.4,1.8-1.1h2.9c-0.6,2.3-2.6,3.3-4.7,3.3c-3.1,0-5.2-1.9-5.2-5.3
			c0-3,2.3-5.2,5.1-5.2c3.4,0,5.1,2.7,4.9,6H20.5z M24.3,11.6c-0.1-1.1-0.8-2-1.8-2c-1.1,0-1.8,0.8-2,2H24.3z"/>
	</g>
	<rect x="19.5" y="4.7" width="5.5" height="1.3"/>
</g>
<g>
	<path d="M29.5,1.5c0.9,0,1.6,0.7,1.6,1.6v15.8c0,0.9-0.7,1.6-1.6,1.6H3.1c-0.9,0-1.6-0.7-1.6-1.6V3.1c0-0.9,0.7-1.6,1.6-1.6H29.5
		 M29.5,0H3.1C1.4,0,0,1.4,0,3.1v15.8C0,20.6,1.4,22,3.1,22h26.4c1.7,0,3.1-1.4,3.1-3.1V3.1C32.6,1.4,31.2,0,29.5,0L29.5,0z"/>
</g>
</svg>
