<?xml version="1.0" encoding="utf-8"?>
<!-- Generator: Adobe Illustrator 25.2.1, SVG Export Plug-In . SVG Version: 6.00 Build 0)  -->
<svg version="1.1" id="Layer_1" xmlns="http://www.w3.org/2000/svg" xmlns:xlink="http://www.w3.org/1999/xlink" x="0px" y="0px"
	 viewBox="0 0 595.28 317.16" style="enable-background:new 0 0 595.28 317.16;" xml:space="preserve">
<style type="text/css">
	.st0{fill:#FFD400;}
</style>
<g>
	<path class="st0" d="M175.73,207.67h-3.04c-1.53,3.43-5.25,8.28-10.46,10.17c-4.12,1.49-7.5-0.4-8.9-2.74
		c-1.94-3.22-1.42-8.34-0.51-12.5l22.65-108.81h-35.32l-22.07,104.16c-1.02,4.94-2.4,7.66-4.1,9.6c-2.17,2.5-5.04,3.8-8.38,3.39
		c-2.63-0.32-4.79-2.34-5.39-5.05c-0.41-1.87-0.24-4.12,0.27-6.3l22.38-105.8H87.52L65.24,199.35c-0.89,4.48-1.35,8.12-1.35,10.92
		c0,6.72,2.99,11.86,6.81,15.12c4.43,3.79,11.91,5.04,17.28,5.04c5.78,0,14.36-1.74,18.42-4.28c4.42-2.77,8.37-6.92,11.45-11.67
		c0.49,3.96,3.67,7.66,6.8,10.44c3.69,3.28,10.59,5.51,16.33,5.51c6.79,0,17.63-1.78,23.88-6.69
		C170.61,219.23,173.9,211.93,175.73,207.67z"/>
	<path class="st0" d="M290.18,113.94c0-6.72-4.04-11.28-7.74-14.19c-5.19-4.09-13.7-5.97-19.89-5.97c-4.37,0-10.13,1.12-14.34,3.36
		c-4.2,2.24-8.2,6.43-12.01,12.59c-0.6-4.71-5.16-9.16-8.28-11.37c-3.66-2.59-10.54-4.58-16.51-4.58c-6.16,0-14.33,1.7-20.62,6.47
		c-5.79,4.38-10.16,11.43-12.23,16.36l3.04-0.04c2.14-3.8,6.17-9.52,11.1-10.61c5.46-1.2,9.02,1.4,10.12,5.61
		c0.71,2.69-1.62,11.36-2,13.37l-35.04,168.08h35.32l34.48-165.2c1.78-8.26,5.92-14.78,12.34-14.78c3.36,0,6.14,2.11,6.14,6.7
		c0,1.45-0.17,3.21-0.5,4.89l-15.83,74.85c-1.17,5.36-3.03,11.86-4.43,15.43c-1.99,5.04-4.58,8.01-8.76,7.82
		c-2.67-0.12-4.55-2.39-5.12-3.25l-0.78,3.32c1.55,2.86,7.88,6.13,13.62,7.06c7.79,1.25,17.48,0.56,25.86-5.73
		c7.53-5.65,12.57-13.05,14.52-22.52l16.2-76.77C289.73,120.38,290.18,116.73,290.18,113.94z"/>
	<path d="M358.48,28.35h-21.31l-35.78,171.51c-1.45,6.74-3.05,12.41-5.5,16.61c-2.64,4.53-5.63,6.73-9.17,6.31
		c-1.85-0.22-3.97-1.42-4.48-3.23l-0.69,3.08c1.76,5.92,7.94,7.82,13.32,7.82c5.17,0,11.34-1.31,15.26-4.26
		c3.04-2.28,8.24-6.96,10.62-16.86l0.03-0.04l0.08-0.38l0,0l0,0L358.48,28.35z"/>
	<circle class="st0" cx="393.66" cy="51.2" r="15.56"/>
	<path d="M497.15,106.77h30.84L531,92.36h-30.85l6.35-30.32h-21.34l-6.34,30.32h-26.36h-4.88l2.09-10.13
		c4.67-22.08,13.54-39.04,29.42-39.04c4.32,0,7.69,0.48,9.97,1.24l3.69-17.54c-4.93-1.37-9.96-1.74-15.08-1.74
		c-31.75,0-43.58,30.14-48.54,53.62l-2.87,13.6h-30.94h-4.29h-17.03l-22.39,108.15c-1.42,6.44-2.99,11.89-5.35,15.95
		c-2.64,4.53-5.63,6.73-9.17,6.31c-1.85-0.22-3.97-1.42-4.48-3.23l-0.69,3.08c1.76,5.92,7.94,7.82,13.32,7.82
		c5.17,0,10.91-1.09,15.26-4.26c3.11-2.27,8.4-7.08,10.74-17.28l21.12-102.15h30.79L403.6,199.8l0,0
		c-1.45,6.75-3.06,12.44-5.51,16.65c-2.64,4.53-5.63,6.73-9.17,6.31c-1.85-0.22-3.97-1.42-4.48-3.23l-0.69,3.08
		c1.76,5.92,7.94,7.82,13.32,7.82c5.17,0,10.9-1.13,15.26-4.26c3.12-2.25,8.4-7.08,10.74-17.28l0,0l21.42-102.15h4.35h27
		l-17.78,85.39c-2.07,9.95-1.77,18.87,1.7,25.82c5.66,11.3,18.63,13.12,25.55,12.48c7.34-0.67,13.16-4.56,15.76-7.44l0.78-3.54
		c-1.35,1.03-5.17,3.37-9.88,3.4c-6.66,0.04-12.16-4.15-13.77-11.4c-1.07-4.84-0.79-10,1.47-20.87L497.15,106.77z"/>
</g>
</svg>
