<?xml version="1.0" encoding="utf-8"?>
<!-- Generator: Adobe Illustrator 24.3.0, SVG Export Plug-In . SVG Version: 6.00 Build 0)  -->
<svg version="1.1" id="Layer_1" xmlns="http://www.w3.org/2000/svg" xmlns:xlink="http://www.w3.org/1999/xlink" x="0px" y="0px"
	 viewBox="0 0 27 25.8" style="enable-background:new 0 0 27 25.8;" xml:space="preserve">
<path d="M8.3,25.8h10.4c4.6,0,8.3-3.7,8.3-8.3V8.3C27,3.7,23.3,0,18.7,0H8.3C3.7,0,0,3.7,0,8.3v9.1C0,22,3.7,25.8,8.3,25.8z
	 M1.9,8.3c0-3.6,2.9-6.5,6.5-6.5h10.4c3.6,0,6.5,2.9,6.5,6.5v9.1c0,3.6-2.9,6.5-6.5,6.5H8.3c-3.6,0-6.5-2.9-6.5-6.5V8.3z"/>
<path d="M20.8,7.2c0.8,0,1.5-0.7,1.5-1.5c0-0.8-0.7-1.5-1.5-1.5c-0.8,0-1.5,0.7-1.5,1.5C19.3,6.6,20,7.2,20.8,7.2z"/>
<path d="M13.5,20.3c4.1,0,7.4-3.3,7.4-7.4c0-4.1-3.3-7.4-7.4-7.4c-4.1,0-7.4,3.3-7.4,7.4C6.1,17,9.4,20.3,13.5,20.3z M13.5,7.3
	c3.1,0,5.6,2.5,5.6,5.6c0,3.1-2.5,5.6-5.6,5.6c-3.1,0-5.6-2.5-5.6-5.6C7.9,9.8,10.4,7.3,13.5,7.3z"/>
</svg>
