<?xml version="1.0" encoding="utf-8"?>
<!-- Generator: Adobe Illustrator 25.4.1, SVG Export Plug-In . SVG Version: 6.00 Build 0)  -->
<svg version="1.1" id="Layer_1" xmlns="http://www.w3.org/2000/svg" xmlns:xlink="http://www.w3.org/1999/xlink" x="0px" y="0px"
	 viewBox="0 0 1128.28 568.64" style="enable-background:new 0 0 1128.28 568.64;" xml:space="preserve">
<style type="text/css">
	.st0{fill:#6D3628;}
	.st1{fill:none;stroke:#6D3628;stroke-width:2.296;stroke-miterlimit:10;}
	.st2{fill:none;stroke:#6D3628;stroke-width:1.0449;stroke-miterlimit:10;}
</style>
<g>
	<path class="st0" d="M88.18,286.49h19.41v2.81H44.24v-2.81h18.39V180.73H44.24v-2.81h18.39c1.29-59.38-0.01-67.97,12.77-85.92
		c10.22-14.05,23.5-15.33,30.65-15.33c21.46,0,27.08,15.58,27.08,20.95c0,6.9-8.17,7.66-12.26,7.66c-2.3,0-12.52,0-12.52-7.41
		c0-1.79,1.79-10.47,1.79-12.26c0-5.11-3.83-6.13-6.9-6.13c-7.41,0-15.07,3.07-15.07,32.44v66h19.41v2.81l-19.41,0V286.49z"/>
	<path class="st0" d="M174.24,173.07c25.55,0,56.2,24.52,56.2,60.54s-30.65,60.54-56.2,60.54c-25.54,0-56.45-24.78-56.45-60.54
		S149.47,173.07,174.24,173.07z M174.24,291.34c26.82,0,27.59-22.22,27.59-57.73c0-35.51,0-57.73-27.59-57.73
		c-26.31,0-27.84,21.2-27.84,57.73C146.4,270.14,147.17,291.34,174.24,291.34z"/>
	<path class="st0" d="M255.68,180.73h-18.39v-2.81h43.94v77.4c0,24.78,5.88,33.97,19.16,33.97c23.5,0,28.87-26.57,28.87-40.11
		v-68.46h-17.88v-2.81h43.43v108.56h18.39v2.81h-43.94v-21.46c-3.83,11.24-10.47,24.27-31.17,24.27c-15.58,0-25.8-5.36-33.21-13.79
		c-7.15-8.17-9.2-19.92-9.2-35.51V180.73z"/>
	<path class="st0" d="M450.53,353.12v-2.81h64.37v2.81h-22.22l35,79.96l25.03-67.18l-5.36-12.77H533.3v-2.81h65.14v2.81h-22.48
		l35.25,79.96l29.89-79.96h-17.63v-2.81h35v2.81h-14.31L601.5,468.58h-2.04l-44.7-98.6l-37.04,98.6h-2.04l-51.6-115.46H450.53z"/>
	<path class="st0" d="M755.47,439.46c-7.15,17.37-25.8,27.08-44.19,27.08c-30.4,0-56.45-21.71-56.45-57.47
		c0-35.51,26.57-63.61,54.67-63.61c21.2,0,46.49,18.65,46.75,54.16h-72.8v9.2c0,28.1,0,54.92,27.84,54.92
		c12.01,0,31.68-4.85,41.64-25.29L755.47,439.46z M731.97,396.8c-0.26-36.78-4.34-48.53-23.5-48.53
		c-23.25,0-24.78,18.65-25.03,48.53H731.97z"/>
	<path class="st0" d="M781.66,253.66h-18.39v-2.81h43.94v212.88h18.39v2.81h-62.33v-2.81h18.39V253.66z"/>
	<path class="st0" d="M823.93,353.12v-2.81h65.39v2.81H867.1l34.74,79.7l29.38-79.7h-17.37v-2.81h35v2.81h-14.3l-42.41,115.46h-2.04
		l-52.11-115.46H823.93z"/>
	<path class="st0" d="M1047.37,439.46c-7.15,17.37-25.8,27.08-44.19,27.08c-30.4,0-56.45-21.71-56.45-57.47
		c0-35.51,26.57-63.61,54.67-63.61c21.2,0,46.49,18.65,46.75,54.16h-72.8v9.2c0,28.1,0,54.92,27.84,54.92
		c12.01,0,31.68-4.85,41.64-25.29L1047.37,439.46z M1023.87,396.8c-0.26-36.78-4.34-48.53-23.5-48.53
		c-23.25,0-24.78,18.65-25.04,48.53H1023.87z"/>
	<path class="st0" d="M450.18,173.07c-17.12,0-21.71,11.5-24.78,19.67v-14.82h-43.94v2.81h18.39v109.28l25.55-25.55v-48.73
		c0-22.74,6.9-37.55,17.11-37.55c3.58,0,6.13,1.79,6.13,5.62c0,3.07-1.02,7.41-1.02,10.73c0,5.11,5.11,8.94,12.77,8.94
		c9.45,0,13.54-5.11,13.54-10.47C473.94,186.09,467.29,173.07,450.18,173.07z"/>
	<path class="st0" d="M432.83,462.45c-5.11,0-7.41-1.79-7.41-11.24v-98.09h25.54v-2.81h-25.54v-45.65l-25.55,25.55v20.1h-19.67v2.81
		h19.67v77.4c0,24.78,7.66,36.02,27.08,36.02c11.75,0,22.74-5.11,26.57-19.92l-2.81-0.77C446.11,460.67,436.66,462.45,432.83,462.45
		z"/>
	<line class="st1" x1="220.95" y1="468.58" x2="612.87" y2="76.67"/>
</g>
<g>
	<circle class="st2" cx="981.26" cy="152.19" r="83.17"/>
	<g>
		<g>
			<path class="st0" d="M917.23,128.98c1.9,0.84,3.65,0.65,4.45-1.25c0.47-1.12,0.26-2.27-1-2.98l0.73-1.73
				c0.44,0.25,1.16,0.64,1.6,1.61c0.29,0.6,0.68,1.85-0.11,3.71c-1.23,2.91-3.61,3.53-6.54,2.3c-1.82-0.77-3.18-1.77-3.58-3.65
				c-0.25-1.15,0.15-2.28,0.38-2.81c1.74-4.14,5.37-2.51,6.87-1.84L917.23,128.98z M918.07,123.58c-0.88-0.39-2.79-1-3.69,1.14
				c-0.47,1.12-0.37,2.77,1.66,3.67L918.07,123.58z"/>
			<path class="st0" d="M918.33,114.32l1.23-1.7l8.33,2.05l-4.63-7.18l1.21-1.69l5.57,9.43l-1.11,1.54L918.33,114.32z"/>
			<path class="st0" d="M934.13,103.49c1.34,1.59,3.01,2.17,4.55,0.81c0.91-0.81,1.23-1.93,0.4-3.12l1.41-1.24
				c0.28,0.41,0.77,1.08,0.74,2.14c0,0.67-0.2,1.96-1.71,3.29c-2.37,2.09-4.79,1.61-6.89-0.78c-1.31-1.49-2.09-2.98-1.63-4.85
				c0.27-1.14,1.13-1.98,1.57-2.36c3.38-2.97,5.93,0.08,6.98,1.34L934.13,103.49z M937.23,99c-0.62-0.73-2.08-2.11-3.82-0.58
				c-0.91,0.81-1.54,2.34-0.1,4.03L937.23,99z"/>
			<path class="st0" d="M943.83,91.88c-0.34-0.59-0.72-1.18-1.1-1.72l1.65-0.95l1,1.66c-0.39-1.39,0.42-2.39,1.09-2.91
				c0.45-0.35,0.82-0.54,1.11-0.68l0.92,1.6c-0.11,0.02-0.22,0.06-0.35,0.11c-0.13,0.05-0.29,0.14-0.48,0.25
				c-1.92,1.11-1.72,2.51-0.86,4l2.66,4.63l-1.65,0.95L943.83,91.88z"/>
			<path class="st0" d="M961.92,92.42l-0.19,4l-1.84,0.61l0.23-4.12l-7.12-8.17l2.01-0.67l5.47,6.53l0.54-8.52l1.94-0.64
				L961.92,92.42z"/>
			<path class="st0" d="M981.76,86.36c-0.05,0.76,0.31,1.83,2.13,1.9c0.78,0.03,1.36-0.09,1.78-0.57c0.21-0.25,0.34-0.59,0.36-0.93
				c0.04-0.98-0.65-1.19-2.14-1.58c-2.08-0.56-3.82-1.05-3.74-3.15c0.07-1.84,1.72-2.97,4.03-2.88c1.26,0.05,3,0.48,3.56,1.7
				c0.24,0.57,0.22,1.05,0.2,1.47l-1.92-0.07c0.12-1.52-1.2-1.69-1.87-1.71c-0.28-0.01-2.04-0.08-2.09,1.36
				c-0.04,0.92,0.85,1.17,1.37,1.33c2.75,0.77,3.34,0.95,3.92,1.53c0.54,0.54,0.71,1.25,0.69,1.89c-0.04,1.12-0.7,2.05-1.46,2.48
				c-0.9,0.51-1.96,0.6-3,0.56c-2.04-0.08-3.9-0.99-3.79-3.41L981.76,86.36z"/>
			<path class="st0" d="M996.07,86.25c-0.57,2-0.13,3.71,1.86,4.23c1.18,0.31,2.29-0.06,2.81-1.41l1.82,0.48
				c-0.19,0.47-0.47,1.24-1.37,1.81c-0.55,0.37-1.73,0.93-3.69,0.42c-3.05-0.8-4.01-3.08-3.2-6.15c0.5-1.91,1.31-3.4,3.11-4.06
				c1.1-0.41,2.28-0.17,2.84-0.02c4.35,1.14,3.24,4.97,2.79,6.54L996.07,86.25z M1001.53,86.32c0.26-0.92,0.6-2.9-1.65-3.49
				c-1.18-0.31-2.8,0.03-3.4,2.17L1001.53,86.32z"/>
			<path class="st0" d="M1012.87,97.72c0.11-0.51,0.3-0.95,0.54-1.41c-1.57,1.05-2.85,0.56-3.59,0.17c-2.04-1.07-2.53-2.8-1.76-4.26
				c0.37-0.71,1.21-1.71,2.92-1.78c1.23-0.03,2.68,0.66,3.39,1.03c0.42,0.22,0.68,0.38,1.17,0.69c0.58-1.1,0.83-1.57,0.71-2.13
				c-0.1-0.62-0.76-1.14-1.23-1.39c-1.68-0.88-2.37,0.22-2.58,0.57l-1.66-0.87c0.29-0.43,0.67-1.02,1.5-1.36
				c1.06-0.39,2.43,0.06,3.37,0.55c1.29,0.68,2.46,1.81,2.46,2.96c0,0.68-0.2,1.11-0.42,1.52l-2.3,4.21
				c-0.07,0.14-0.68,1.34-1.03,2.3L1012.87,97.72z M1014.02,92.74c-0.67-0.35-3.2-1.68-4.15,0.12c-0.3,0.57-0.45,1.73,1.03,2.51
				c0.85,0.45,1.66,0.44,2.4,0.04c0.69-0.41,0.97-0.89,1.65-2.11C1014.66,93.1,1014.42,92.96,1014.02,92.74z"/>
			<path class="st0" d="M1022.53,100.67c-0.51,0.57-0.88,1.64,0.51,2.81c0.6,0.5,1.13,0.77,1.76,0.64c0.32-0.07,0.63-0.25,0.85-0.51
				c0.63-0.75,0.21-1.34-0.72-2.56c-1.3-1.72-2.37-3.18-1.02-4.78c1.19-1.41,3.18-1.29,4.96,0.2c0.96,0.81,2.08,2.22,1.76,3.53
				c-0.16,0.6-0.47,0.96-0.74,1.28l-1.47-1.24c1.03-1.12,0.09-2.07-0.43-2.5c-0.21-0.18-1.56-1.31-2.49-0.21
				c-0.59,0.7-0.05,1.45,0.26,1.89c1.7,2.3,2.06,2.8,2.15,3.62c0.09,0.76-0.2,1.42-0.62,1.91c-0.72,0.86-1.81,1.19-2.68,1.07
				c-1.02-0.15-1.92-0.73-2.72-1.4c-1.56-1.31-2.47-3.18-0.9-5.02L1022.53,100.67z"/>
			<path class="st0" d="M1040.36,108.56c2.42,3.21,0.44,5.83-1.24,7.09c-2.35,1.77-5.29,1.91-7.35-0.82c-2-2.65-1.14-5.33,1.21-7.1
				C1034.96,106.25,1037.98,105.41,1040.36,108.56z M1032.91,114.03c0.85,1.13,2.64,1.81,5.06,0c1.99-1.5,2.35-3.23,1.29-4.63
				c-0.72-0.96-2.5-2.05-5-0.16C1032.61,110.47,1031.62,112.32,1032.91,114.03z"/>
			<path class="st0" d="M1046.31,120.62l1.06-0.47l0.74,1.73l-1.48,0.65c0.47,0.04,2.04,0.15,2.94,2.25
				c0.35,0.83,1.12,3.48-1.72,4.69l-6.27,2.68l-0.75-1.77l5.87-2.51c0.61-0.26,1.13-0.57,1.37-1.17c0.23-0.62,0.18-1.32-0.07-1.9
				c-0.53-1.25-1.93-2.02-3.79-1.23l-5.31,2.27l-0.74-1.73L1046.31,120.62z"/>
		</g>
		<g>
			<path class="st0" d="M918.15,176.69c-1.93,0.77-3.02,2.16-2.22,4.06c0.47,1.12,1.44,1.78,2.83,1.37l0.73,1.73
				c-0.48,0.14-1.27,0.38-2.27,0.02c-0.63-0.21-1.79-0.81-2.58-2.67c-1.23-2.91,0-5.05,2.93-6.29c1.82-0.77,3.49-1.03,5.12-0.01
				c1,0.62,1.52,1.7,1.74,2.24c1.74,4.14-1.96,5.6-3.49,6.2L918.15,176.69z M921.42,181.06c0.89-0.35,2.66-1.29,1.77-3.43
				c-0.47-1.12-1.73-2.2-3.79-1.38L921.42,181.06z"/>
			<path class="st0" d="M928.23,185.57l1.25,1.69l-4.49,7.3l8.25-2.22l1.24,1.67l-10.68,2.43l-1.13-1.53L928.23,185.57z"/>
			<path class="st0" d="M936.01,202.95c-1.37,1.57-1.69,3.3-0.12,4.62c0.94,0.78,2.1,0.92,3.14-0.08l1.44,1.21
				c-0.37,0.34-0.95,0.92-2.01,1.06c-0.66,0.1-1.96,0.1-3.51-1.19c-2.42-2.03-2.31-4.49-0.27-6.93c1.27-1.52,2.63-2.52,4.55-2.35
				c1.17,0.1,2.13,0.82,2.57,1.19c3.45,2.89,0.82,5.87-0.27,7.1L936.01,202.95z M940.91,205.34c0.63-0.72,1.78-2.37,0-3.86
				c-0.93-0.78-2.54-1.17-4,0.51L940.91,205.34z"/>
			<path class="st0" d="M949.62,208.73c0.32-0.6,0.61-1.24,0.86-1.85l1.68,0.89l-0.87,1.73c0.97-1.07,2.25-0.92,3.04-0.63
				c0.53,0.19,0.9,0.4,1.17,0.57l-0.86,1.63c-0.07-0.08-0.17-0.16-0.28-0.24c-0.11-0.08-0.27-0.17-0.47-0.27
				c-1.96-1.04-3.04-0.11-3.84,1.41l-2.49,4.72l-1.68-0.89L949.62,208.73z"/>
			<path class="st0" d="M962.49,222.63l-2.39,3.21l-1.87-0.52l2.5-3.29l-1.33-10.75l2.04,0.57l0.89,8.47l5.21-6.76l1.96,0.55
				L962.49,222.63z"/>
			<path class="st0" d="M984.75,216.71l-0.27-1.31l1.87-0.33l0.25,1.44c0.67-1.72,1.99-2.1,2.83-2.25c2.19-0.39,3.07,0.62,3.56,1.28
				c0.24-0.61,0.82-2.05,3-2.44c1.42-0.25,3.73-0.05,4.24,2.87l1.17,6.64l-1.87,0.33l-1.12-6.34c-0.15-0.87-0.38-1.21-0.6-1.44
				c-0.39-0.4-1.1-0.7-2.04-0.53c-1.2,0.21-1.73,1.02-1.92,1.42c-0.33,0.69-0.13,1.77-0.06,2.2l0.98,5.53l-1.87,0.33l-1.15-6.54
				c-0.21-1.22-1.09-2.04-2.55-1.78c-1.26,0.22-1.81,1.13-1.98,1.46c-0.31,0.64-0.19,1.45-0.08,2.08l0.99,5.61l-1.87,0.33
				L984.75,216.71z"/>
			<path class="st0" d="M1009.99,207.67c3.56-1.87,5.82,0.5,6.8,2.36c1.37,2.6,1.04,5.53-1.99,7.13c-2.94,1.55-5.44,0.27-6.81-2.34
				C1006.84,212.63,1006.5,209.5,1009.99,207.67z M1014.18,215.9c1.26-0.66,2.22-2.32,0.81-4.99c-1.16-2.21-2.81-2.84-4.36-2.02
				c-1.06,0.56-2.42,2.13-0.96,4.91C1010.63,215.62,1012.29,216.89,1014.18,215.9z"/>
			<path class="st0" d="M1020.62,202.58l-0.8-0.84l1.39-1.27l1.11,1.18c-0.12-0.46-0.53-1.98,1.16-3.51
				c0.66-0.61,2.92-2.2,4.99,0.08l4.59,5.04l-1.42,1.29l-4.29-4.72c-0.44-0.49-0.91-0.88-1.56-0.91c-0.66-0.02-1.3,0.26-1.77,0.7
				c-1,0.92-1.28,2.49,0.08,3.98l3.89,4.27l-1.39,1.27L1020.62,202.58z"/>
			<path class="st0" d="M1029.85,191.57l1.04-1.45l-1.71-1.22l0.6-1.86l2.19,1.57l1.3-1.82l1.12,0.8l-1.3,1.82l4.89,3.51
				c0.41,0.29,1.09,0.78,1.87-0.31c0.22-0.31,0.38-0.64,0.44-0.79l1.19,0.85c-0.15,0.31-0.42,0.78-0.81,1.34
				c-1,1.4-1.89,1.77-3.22,0.82l-5.45-3.9l-1.04,1.45L1029.85,191.57z"/>
			<path class="st0" d="M1032.41,179.91l0.76-1.74l5.37,2.33c-0.72-0.99-0.78-2.37-0.22-3.65c0.42-0.97,1.38-2.21,2.72-2.26
				c0.45-0.02,0.94,0.04,2.28,0.62l5.76,2.5l-0.76,1.76l-5.45-2.36c-0.82-0.36-2.6-1.13-3.46,0.85c-0.56,1.28-0.05,2.27,0.29,2.7
				c0.39,0.52,1.25,0.89,1.82,1.14l4.88,2.12l-0.76,1.74L1032.41,179.91z"/>
		</g>
		<g>
			<circle class="st0" cx="914.45" cy="152.22" r="2.45"/>
			<circle class="st0" cx="1048.14" cy="152.22" r="2.45"/>
		</g>
		<path class="st0" d="M994.51,169.46c0.01,0,0,0,0.01,0c1.35,1.76,2.61,3.4,3.15,5.71c0.25,2.37,0.83,4.62,1.96,6.63
			c-4.24-4.75-8.13-9.92-11.84-15.06c0.01-0.03,0.02-0.05,0-0.08c-1.51-3.06-2.34-6.16-2.82-9.27c0.02-0.02,0.03-0.05,0.01-0.08
			c-0.02-0.04-0.03-0.09-0.05-0.13c-0.12-0.8-0.22-1.61-0.3-2.42c0.32-1.99,1.87-3.77,2.89-5.64c0.07,0.03,0.16,0.04,0.23,0.01
			c1.48-0.63,2.52-2.6,2.94-4.06c0.15-0.54,0.25-1.22-0.13-1.69c-0.41-0.51-1.2-0.28-1.71-0.08c-1.59,0.63-2.14,2.2-1.63,3.77
			c0.05,0.17,0.15,0.36,0.27,0.54c-0.73,1.47-1.52,2.91-2.26,4.38c-0.29,0.58-0.53,1.17-0.7,1.76c-0.4-4.59-0.35-9.24-0.87-13.92
			c0.4-0.03,0.8-0.29,1.04-0.64c0.6-0.89,0.57-2.24,0.42-3.26c-0.1-0.68-0.71-1.65-1.37-2c-0.07-0.11-0.13-0.23-0.2-0.34
			c-0.12-0.18-0.44-0.17-0.55,0.01c-0.07,0.12-0.12,0.26-0.18,0.39c-0.14,0.12-0.27,0.29-0.38,0.54c-0.36,0.8-0.43,2.07-0.22,3.22
			c0.04,0.65,0.19,1.31,0.62,1.76c0.01,0.01,0.02,0.01,0.03,0.02c0.04,0.06,0.08,0.1,0.12,0.15c0.13,2.67,0.18,5.4,0.29,8.14
			c-0.58-1.54-1.48-3.05-2.68-4.12c0.02,0.01,0.03,0.03,0.04,0.03c0.1,0.06,0.25,0.02,0.25-0.11c0.03-0.47-0.31-0.89-0.68-1.22
			c-0.32-1.18-1.49-2.19-2.65-2.39c-0.49-0.09-1.12-0.02-1.44,0.41c-0.18,0.24-0.13,0.52,0,0.76c-0.06,0.11-0.07,0.26,0.03,0.37
			c0.51,0.62,1.07,1.15,1.74,1.53c0.48,0.58,1.14,1,1.95,1.13c0.17,0.03,0.32-0.1,0.38-0.25c0.59,0.6,1.15,1.22,1.64,1.95
			c0.62,0.94,1.05,1.99,1.47,3.04c0.28,5.8,0.96,11.55,3.6,16.6c-1.7-2.37-3.36-4.73-5.01-7.02c-2.8-3.91-5.59-7.78-8.17-11.79
			c0.03-0.02,0.06-0.05,0.05-0.09c-0.99-3.62-1.36-7.22-1.54-10.83c0.34-1.67,1.43-2.96,2.29-4.45c0.06,0,0.11-0.02,0.16-0.04
			c1.24,0.27,2.47-2.18,2.76-3.04c0.09-0.26-0.11-0.5-0.38-0.48c-1.18,0.1-2.92,0.96-3.33,2.14c-0.15,0.42,0.02,0.87,0.33,1.16
			c-0.78,1.14-1.5,2.37-1.88,3.68c-0.13-3.03-0.15-6.07-0.33-9.13c-0.05-0.4,0.11-0.91,0.12-1.24c0.87-1.55,1.4-4.89-0.3-5.49
			c-1.48-0.52-1.71,1.35-1.6,2.32c0.12,1.02,0.44,2.31,0.95,3.36c0.23,0.22,0.3,0.57,0.33,0.59c-0.01,2.92-0.04,5.92,0.08,8.9
			c-0.6-1.32-1.33-2.6-2.04-3.89c0.05-0.37,0.02-0.78-0.04-1.09c-0.2-1.17-0.78-2.63-1.87-3.23c-0.17-0.09-0.43,0.05-0.57,0.35
			c-1.32,3.01,1.79,4.81,2.03,4.69c0.06-0.02,0.11-0.05,0.16-0.09c0.69,1.35,1.61,2.64,2.32,3.88c0.01,0.01,0.02,0.01,0.03,0.02
			c0.19,3.97,0.71,7.9,2,11.57c-1.65-2.59-3.21-5.24-4.61-8.01c-1.89-3.72-3.61-7.52-5.35-11.3c-0.11-1.19-0.16-2.37-0.12-3.58
			c0.03-1,0.12-2.07,0.06-3.1c0.12,0.03,0.26-0.04,0.34-0.13c0.98-1.07,1.2-5.46-0.94-5.39c-2.69,0.09-0.9,4.25,0.2,5.24
			c0,0,0.01,0,0.01,0c-0.02,1.27,0.01,2.55-0.03,3.82c-0.02,0.71-0.02,1.42,0.02,2.13c-1.16-2.5-2.34-4.99-3.59-7.45
			c0.97,0.05,0.68-2.81,0.59-3.2c-0.2-0.86-0.87-2.96-2.13-2.64c-2.27,0.58-0.22,5,1.08,5.72c0.74,2,1.51,3.97,2.34,5.92
			c-1.14-1.93-2.64-3.9-4.38-5.15c-0.61-1.2-1.72-2.31-3.16-2.17c-0.18,0.02-0.29,0.2-0.27,0.37c0.17,1.65,1.5,3.07,2.99,3.69
			c0.1,0.04,0.19,0,0.26-0.07c0,0,0,0,0.01,0.01c0.5,0.22,0.58-0.17,0.51-0.65c0.59,0.64,1.25,1.24,1.82,1.86
			c1.04,1.12,2.03,2.34,2.82,3.65c0.02,0.03,0.04,0.04,0.07,0.04c1.99,4.55,4.21,8.98,6.63,13.3c-1.89-1.81-4-3.77-6.27-5.45
			c-1.4-1.77-2.8-3.73-4.44-5.31c-0.21-0.94-1.01-1.88-1.62-2.51c-0.75-0.78-1.69-1.35-2.79-1.32c-0.2,0-0.33,0.27-0.25,0.44
			c0.25,0.49,0.55,0.96,0.87,1.41c-0.03,0.04-0.04,0.11,0.01,0.15c0.1,0.08,0.19,0.17,0.29,0.25c0.58,0.75,1.25,1.43,2.06,1.95
			c0.83,0.53,1.08,0.17,1.15,0.26c0.02,0.03,0.05,0.04,0.08,0.05c1.04,1.21,2.08,2.43,3.16,3.6c-1.77-1.15-3.63-2.05-5.56-2.57
			c-0.33-0.4-0.91-0.74-1.26-0.96c-0.73-0.47-1.55-0.69-2.4-0.43c-0.14,0.04-0.23,0.22-0.2,0.36c0.4,1.89,2.66,3.24,4.42,2.18
			c0.15-0.09,0.14-0.3,0.06-0.43c2.39,1.05,4.58,2.28,6.7,3.89c0.57,0.43,1.12,0.89,1.67,1.35c-1.92-0.72-4.16-1.21-6.18-1.11
			c0,0,0,0-0.01,0c-1.71-0.56-3.7-0.38-4.85,1.14c-0.08,0.11-0.09,0.29,0.01,0.4c1.23,1.38,3.54,0.73,4.78-0.33
			c0.13-0.11,0.09-0.29-0.03-0.37c0.01,0,0.01,0,0.02,0c0.13,0.01,0.2-0.13,0.15-0.23c0.02-0.03,0.05-0.05,0.07-0.08
			c0.01-0.01,0.01-0.02,0.01-0.03c0.94,0.03,1.88,0.04,2.83,0.18c1.32,0.19,2.59,0.58,3.85,1c1.3,1.1,2.6,2.22,4.03,3.14
			c3.39,6.03,7.16,11.85,11.19,17.51c-2.15-1.45-4.67-2.38-7.32-3.02c-1.9-1.33-3.2-3.1-4.73-4.76c0.32-1.07-0.5-2.24-1.25-2.94
			c-0.56-0.52-2.03-1.66-2.69-0.67c-0.73,1.1,0.63,2.45,1.38,3.07c0.4,0.33,0.99,0.64,1.43,0.65c0.19,0.13,0.38,0.26,0.6,0.37
			c0.07,0.04,0.15,0.03,0.21,0c1.1,1.53,2.52,3.02,4.08,4.06c-0.61-0.13-1.22-0.25-1.83-0.35c-2.28-1.22-4.27-2.72-6.37-4.18
			c-0.23-0.44-0.62-0.89-0.78-1.04c-0.99-0.91-2.45-1.99-3.85-2.09c-0.26-0.02-0.4,0.26-0.26,0.47c0.94,1.39,2.35,2.51,3.88,3.2
			c0,0,0.77,0.36,1.17,0.15c1.54,1.36,3.44,2.44,5.3,3.36c-2.68-0.4-5.37-0.59-7.89-0.77c-0.01-0.06-0.06-0.11-0.11-0.12
			c-0.02-0.04-0.03-0.09-0.07-0.12c-1.09-0.98-2.85-1.3-4.22-0.73c-0.59,0.04-1.18,0.19-1.75,0.54c-0.11,0.07-0.14,0.24-0.09,0.35
			c0.85,1.89,3.44,2.15,5.12,1.15c0.31-0.11,0.59-0.3,0.84-0.59c1.78,0.28,3.53,0.53,5.25,0.77c-0.82,1.12-1.73,2.29-2.29,3.56
			c-0.07-0.07-0.14-0.13-0.23-0.19c-0.12-0.08-0.28-0.09-0.39,0.01c-0.54,0.44-1.51,1.33-1.64,2.09c-0.06,0.08-0.14,0.15-0.19,0.23
			c-0.44,0.62-1.02,2.59,0.33,2.56c0.99-0.03,1.94-1.07,2.41-1.85c0.11-0.18,0.19-0.37,0.25-0.56c0.02,0.03,0.3-0.62,0.14-0.88
			c-0.01-0.44-0.17-0.85-0.47-1.2c0.92-1.1,1.82-2.4,2.39-3.72c2.7,0.38,5.34,0.81,7.96,1.52c-1.43,0.62-2.67,1.82-3.65,3.11
			c-0.28-0.08-0.58-0.08-0.89,0.01c-1.51,0.46-2.87,3.09-1.75,4.43c0.25,0.3,0.63,0.4,0.98,0.31c0.7-0.03,1.48-0.47,1.95-0.83
			c0.59-0.45,1.01-1.13,1.06-1.87c0.05-0.7-0.29-1.38-0.82-1.77c0.25-0.33,0.49-0.66,0.75-0.98c0.82-1.06,1.76-1.74,2.91-2.25
			c1.87,0.54,3.72,1.23,5.58,2.17c0.25,0.34,0.48,0.69,0.73,1.03c4.43,6.13,8.96,12.67,13.92,18.8c-1.35-0.94-2.65-1.29-4.42-1.7
			c-0.23-0.06-0.35-0.18-0.41-0.21c-2.35-1.33-4.75-2.61-7.11-3.93c0.17-0.7-0.8-1.45-1.31-1.77c-1.02-0.64-2.43-1.12-3.64-0.92
			c-0.23,0.04-0.4,0.3-0.29,0.52c0.82,1.77,3.15,2.87,5.04,2.93c0.15,0,0.27-0.1,0.31-0.23c1.93,1.53,4.36,2.59,6.64,3.45
			c-1.07-0.2-2.12-0.34-3.04-0.5c-1.54-0.26-3.08-0.5-4.62-0.66c-0.01-0.05-0.05-0.11-0.11-0.11c-1.04-0.16-2.01-0.41-3-0.79
			c-0.69-0.26-1.4-0.68-2.13-0.92c0,0,0,0,0-0.01c-0.99-1.04-2.58-1.98-4.05-1.73c-0.2,0.03-0.32,0.28-0.18,0.45
			c0.87,1.04,2.49,2.14,3.92,1.74c0.78,0.46,1.74,0.75,2.54,1.04c0.13,0.05,0.27,0.1,0.42,0.15c-1.88-0.04-3.73,0.11-5.55,0.62
			c-1.62-1.06-4.58-0.96-5.55,0.79c-0.3,0.55-0.31,0.98-0.12,1.32c-0.06,0.12-0.03,0.25,0.07,0.34c0.61,0.51,1.47,0.71,2.3,0.62
			c0.64,0.03,1.25-0.03,1.63-0.16c0.63-0.2,1.86-0.64,2-1.42c0.04-0.23-0.02-0.41-0.13-0.56c0.09-0.08,0.16-0.15,0.22-0.21
			c0.05-0.05,0.06-0.12,0.06-0.18c3.29-0.74,6.52-0.79,10.07-0.25c0.31,0.05,0.65,0.1,0.99,0.14c-2.32-0.08-4.86,1.53-6.38,3.41
			c-1.83,0.12-3.68,2.02-3.72,3.77c-0.01,0.24,0.17,0.43,0.42,0.41c1.4-0.14,2.76-0.65,3.76-1.66c0.05-0.05,0.06-0.11,0.05-0.18
			c0.41-0.47,0.71-1.03,0.88-1.63c0.06-0.22-0.01-0.43-0.23-0.52c-0.15-0.06-0.3-0.11-0.46-0.14c1.7-1.47,3.18-2.87,5.65-3.27
			c0.14-0.02,0.36-0.15,0.55-0.12c3.75,0.51,8.26,0.93,10.48,3.98c0.01,0.01,0.02,0.01,0.03,0.02c4.25,5.07,8.84,9.78,13.98,13.64
			c0.41,0.31,0.88-0.34,0.47-0.64c-3.64-2.72-7.02-5.87-10.19-9.29c-3.17-4.12-3.31-8.98-2.81-13.99c0.01-0.01,0.03-0.02,0.04-0.03
			c0.97-2.01,2.21-3.59,3.66-5.07c0.04,0.05,0.07,0.1,0.11,0.14c0.31,0.27,0.88,0.07,1.18-0.07c0.58-0.27,1.96-0.72,2.54-1.62
			c0.36-0.55,0.56-1.33,0.15-1.91c-0.52-0.72-1.87-0.39-2.47,0c-0.84,0.54-1.49,1.61-1.67,2.58c-0.02,0.11-0.03,0.22-0.02,0.33
			c-1.39,1.2-2.69,2.62-3.35,4.22c0.44-3.67,1.09-7.39,1.04-10.94c0.03-0.04,0.05-0.1,0.07-0.15c0.05,0.06,0.16,0.05,0.18-0.03
			c0.09-0.32,0.09-0.65,0.07-0.98c0.1-0.64,0.12-1.28,0.11-1.92c-0.01-0.55-0.02-2.24-0.89-2.25c-1.04-0.02-1.35,1.94-1.29,2.66
			c0.05,0.64,0.43,2.09,1.14,2.56c0,0.04-0.01,0.08-0.01,0.12c0.01,0.07,0.04,0.12,0.09,0.16c-0.2,2.49-0.59,5.16-0.91,7.89
			c-0.39-1.6-1.11-3.09-2.03-4.47c0.04-0.1,0.07-0.2,0.09-0.3c0.49-1.91-1.79-4.22-3.66-4.21c-0.24,0-0.39,0.15-0.38,0.39
			c0.05,1.51,0.68,2.86,1.67,3.91c0,0.65,0.25,1.41,1.02,1.42c0.44,0.01,0.76-0.29,0.99-0.65c0.94,1.77,1.6,3.55,2.12,5.59
			c-0.21,2.08-0.36,4.16-0.31,6.18c-0.63-1.41-1.79-2.69-2.84-3.83c0.3-1.13-1.17-2.37-2.06-2.79c-0.17-0.08-0.43,0.03-0.49,0.21
			c-0.2,0.71-0.09,1.61,0.3,2.29c0.26,0.79,0.81,1.5,1.5,1.18C994.16,169.88,994.5,169.61,994.51,169.46z"/>
	</g>
</g>
</svg>
