<?xml version="1.0" encoding="utf-8"?>
<!-- Generator: Adobe Illustrator 25.4.1, SVG Export Plug-In . SVG Version: 6.00 Build 0)  -->
<svg version="1.1" id="Layer_1" xmlns="http://www.w3.org/2000/svg" xmlns:xlink="http://www.w3.org/1999/xlink" x="0px" y="0px"
	 viewBox="0 0 801.06 616.96" style="enable-background:new 0 0 801.06 616.96;" xml:space="preserve">
<style type="text/css">
	.st0{fill:#00BCEF;}
	.st1{fill:#050000;}
	.st2{clip-path:url(#SVGID_00000032631042748528762780000009958139630965853591_);}
	.st3{fill:none;stroke:#231F20;stroke-width:39.7083;stroke-miterlimit:10;}
</style>
<g>
	<g>
		<path class="st0" d="M87.11,519.49l-3.43,8.8h-8.58l16.27-42.83h6.31l15.82,42.83h-8.69l-3.21-8.8H87.11z M94.14,497.69h-0.11
			l-4.59,15.16h9.9L94.14,497.69z"/>
		<path class="st0" d="M152.71,502.39h-0.11l-9.46,26.45h-2.82l-9.13-26.45h-0.11l-3.71,25.9h-8.19l7.03-42.83h5.75l10.29,27.5
			l9.85-27.5h5.87l6.25,42.83h-8.19L152.71,502.39z"/>
		<path class="st0" d="M181.91,519.49l-3.43,8.8h-8.58l16.27-42.83h6.31l15.82,42.83h-8.69l-3.21-8.8H181.91z M188.93,497.69h-0.11
			l-4.59,15.16h9.9L188.93,497.69z"/>
		<path class="st0" d="M243.9,521.2v7.08h-30.27l18.37-34.64h-15.55v-7.08h28.44l-18.31,34.64H243.9z"/>
		<path class="st0" d="M272.37,529.39c-12.73,0-20.64-9.74-20.64-22.02c0-12.39,8.19-21.91,20.64-21.91s20.64,9.52,20.64,21.91
			C293.01,519.65,285.1,529.39,272.37,529.39z M272.37,493.48c-7.69,0-12.23,6.81-12.23,13.56c0,6.42,3.21,14.33,12.23,14.33
			s12.23-7.91,12.23-14.33C284.6,500.29,280.06,493.48,272.37,493.48z"/>
		<path class="st0" d="M302.56,485.46h5.87l21.97,29.16h0.11v-28.05h8.13v42.55h-5.87l-21.97-29.16h-0.11v28.33h-8.13V485.46z"/>
		<path class="st1" d="M375.81,528.29h-2.66v-41.72h7.36c3.26,0,6.42,0.22,9.02,2.43c2.55,2.16,3.76,5.31,3.76,8.58
			c0,2.99-1.16,6.31-3.49,8.24c-2.55,2.21-6.03,2.66-9.3,2.66h-4.7V528.29z M380.62,505.99c2.71,0,5.15-0.33,7.3-2.27
			c1.83-1.66,2.71-3.82,2.71-6.25c0-2.6-1.05-5.2-3.15-6.75c-2.1-1.6-4.76-1.66-7.3-1.66h-4.37v16.93H380.62z"/>
		<path class="st1" d="M425.46,528.29h-3.04l-13.61-19.75h-1.33v19.75h-2.66v-41.72h5.2c3.38,0,6.7,0.06,9.52,2.1
			c2.99,2.1,4.21,5.42,4.21,8.96c0,7.25-5.04,11.01-11.95,10.9L425.46,528.29z M410.85,506.04c2.6,0,5.2-0.11,7.3-1.94
			c1.99-1.6,2.93-4.09,2.93-6.58c0-3.1-1.44-6.2-4.43-7.53c-2.21-1.05-5.04-0.94-7.47-0.94h-1.72v16.99H410.85z"/>
		<path class="st1" d="M440.04,528.29h-2.66v-41.72h2.66V528.29z"/>
		<path class="st1" d="M492.23,529.67l-35.02-37.24v35.85h-2.66v-42.27l35.02,36.96v-36.41h2.66V529.67z"/>
		<path class="st1" d="M516.05,528.29h-2.66v-39.23h-10.79v-2.49h24.24v2.49h-10.79V528.29z"/>
		<path class="st1" d="M539.87,489.06v15.16h16.82v2.49h-16.82v19.09h17.26v2.49h-19.92v-41.72h19.92v2.49H539.87z"/>
		<path class="st1" d="M603.96,495.09c-3.21-3.93-8.85-6.58-14-6.58c-10.4,0-18.98,8.96-18.98,19.2c0,4.87,2.1,9.46,5.59,12.89
			c3.49,3.32,8.47,5.75,13.39,5.75c4.81,0,10.9-2.6,14-6.36v3.65c-3.93,3.26-8.74,5.2-13.89,5.2c-11.62,0-21.75-9.68-21.75-21.36
			c0-11.84,9.96-21.47,21.8-21.47c5.04,0,10.13,1.99,13.83,5.42V495.09z"/>
		<path class="st1" d="M645.27,504.27v-17.71h2.66v41.72h-2.66v-21.52h-25.34v21.52h-2.66v-41.72h2.66v17.71H645.27z"/>
	</g>
</g>
<g>
	<defs>
		<rect id="SVGID_1_" x="25.2" y="13.4" width="683.83" height="445.45"/>
	</defs>
	<clipPath id="SVGID_00000043444060440197573630000002736589930713228459_">
		<use xlink:href="#SVGID_1_"  style="overflow:visible;"/>
	</clipPath>
	<g style="clip-path:url(#SVGID_00000043444060440197573630000002736589930713228459_);">
		
			<rect x="600.29" y="328.08" transform="matrix(0.8436 -0.5369 0.5369 0.8436 -156.8498 406.8854)" class="st0" width="39.71" height="289.31"/>
		<path d="M525.81,228h-37.9h-47.07H292.25h-47.07l-25.27,39.71h305.89c17.45,0,31.65,14.2,31.65,31.65
			c0,16.84-13.19,30.69-30.04,31.54l0,0L179.62,331l-157,247.06l33.51,21.3l145.3-228.65h324.37c1.03,0,2.04-0.06,3.06-0.13
			l0.53-0.03h0.02c37.99-1.9,67.76-33.18,67.76-71.2C597.16,260.01,565.15,228,525.81,228z"/>
		<path class="st3" d="M190.53,350.86"/>
		<path class="st3" d="M256.08,247.86"/>
		<path class="st3" d="M256.08,247.86"/>
		<polygon class="st0" points="366.55,111.27 440.84,228 487.91,228 366.55,37.31 245.19,228 292.25,228 		"/>
	</g>
</g>
</svg>
