<?xml version="1.0" encoding="utf-8"?>
<!-- Generator: Adobe Illustrator 25.2.1, SVG Export Plug-In . SVG Version: 6.00 Build 0)  -->
<svg version="1.1" id="레이어_1" xmlns="http://www.w3.org/2000/svg" xmlns:xlink="http://www.w3.org/1999/xlink" x="0px"
	 y="0px" viewBox="0 0 477.94 478.89" style="enable-background:new 0 0 477.94 478.89;" xml:space="preserve">
<style type="text/css">
	.st0{fill:#97D8E8;stroke:#000000;stroke-width:2.2186;stroke-miterlimit:10;}
	.st1{fill:#FFA615;}
	.st2{fill:none;stroke:#000000;stroke-width:2.2186;stroke-miterlimit:10.0002;}
	.st3{fill:#C2E8F1;stroke:#000000;stroke-width:2.2185;stroke-miterlimit:9.9999;}
	.st4{stroke:#000000;stroke-width:1.923;stroke-linejoin:round;stroke-miterlimit:10;}
	.st5{fill:none;stroke:#000000;stroke-width:1.2735;stroke-linecap:round;stroke-miterlimit:10;}
	.st6{fill:#FFA615;stroke:#000000;stroke-width:1.0187;stroke-miterlimit:10;}
	.st7{fill:#FF9901;}
	.st8{fill:#DE125D;}
	.st9{fill:none;stroke:#000000;stroke-width:2.0558;stroke-linecap:round;stroke-miterlimit:10;}
	.st10{fill:none;stroke:#000000;stroke-width:2.0558;stroke-linecap:round;stroke-miterlimit:10;stroke-dasharray:2.7254,4.7695;}
	.st11{fill:#D6B5D8;}
	.st12{fill:#CCECF4;}
	.st13{fill:#FFFFFF;}
	.st14{fill:none;stroke:#000000;stroke-width:2.2212;stroke-linecap:round;stroke-miterlimit:10;}
	.st15{fill:#FFA615;stroke:#000000;stroke-width:2.2212;stroke-miterlimit:10;}
	.st16{fill:#FFA615;stroke:#000000;stroke-width:2.2212;stroke-linecap:round;stroke-linejoin:round;stroke-miterlimit:10;}
	.st17{fill:none;stroke:#000000;stroke-width:1.5548;stroke-linecap:round;stroke-miterlimit:10;}
	.st18{fill:#FEE685;stroke:#000000;stroke-width:1.9991;stroke-linecap:round;stroke-linejoin:round;stroke-miterlimit:10;}
	.st19{fill:#FFA615;stroke:#000000;stroke-width:1.5548;stroke-miterlimit:10;}
	.st20{fill:none;stroke:#000000;stroke-width:0.9973;stroke-linecap:round;stroke-miterlimit:10;}
	.st21{fill:#FBAFC1;}
	.st22{fill:none;}
	.st23{fill:none;stroke:#000000;stroke-width:1.5098;stroke-linecap:round;stroke-miterlimit:10;}
	.st24{fill:none;stroke:#000000;stroke-width:1.9411;stroke-linecap:round;stroke-miterlimit:10;}
	.st25{fill:#FFFFFF;stroke:#000000;stroke-width:1.2988;stroke-linecap:round;stroke-miterlimit:10;}
	.st26{fill:none;stroke:#000000;stroke-width:1.2988;stroke-linecap:round;stroke-miterlimit:10;}
	.st27{fill:#F98EB2;}
</style>
<g>
	
		<ellipse transform="matrix(0.9173 -0.3982 0.3982 0.9173 -26.569 55.7603)" class="st0" cx="120.96" cy="91.84" rx="7.07" ry="13.49"/>
	<g>
		<path class="st1" d="M117.18,105.67c-1.17,1.44-3.26,3.61-4.07,5.13c2.31,4.49,7.79,13.24,17.06,17.59
			c1.62-0.77,4.57-2.68,6.13-3.85C125.48,120.12,119.24,109.91,117.18,105.67z"/>
		<path class="st1" d="M113.24,127.41c2.51,2.67,6.79,3.23,11.05,2.58c-6.28-3.85-10.52-9.62-12.97-13.76
			C110.43,120.44,110.73,124.75,113.24,127.41z"/>
		<path class="st1" d="M143.25,99.16c-5.04-5.35-15.52-3.71-23.73,3.59c2.04,4.25,8.15,14.99,19.24,19.34
			C146.12,114.42,148.17,104.4,143.25,99.16z"/>
		<path d="M121.56,100.93c-0.21,0.2-1.68,1.54-1.89,1.74c-1.01,0.96-1.95,1.95-2.78,2.99c2.05,4.25,8.05,14.72,18.87,19.13
			c0.91-0.68,1.8-1.42,2.65-2.23c0.4-0.37,2.03-1.9,2.4-2.29C129.71,115.92,123.61,105.17,121.56,100.93z"/>
		<path d="M113.75,109.83c-1.04,1.95-2.24,4.43-2.65,6.34c2.44,4.14,6.67,9.91,12.97,13.76c2.03-0.31,4.63-1.5,6.74-2.51
			C121.55,123.07,116.06,114.31,113.75,109.83z"/>
	</g>
	
		<ellipse transform="matrix(0.7281 -0.6855 0.6855 0.7281 -42.789 118.7192)" class="st2" cx="128.25" cy="113.29" rx="20.61" ry="13.66"/>
	
		<ellipse transform="matrix(0.3533 -0.9355 0.9355 0.3533 -24.3727 168.6091)" class="st3" cx="109.77" cy="101.93" rx="8.74" ry="16.65"/>
	<path class="st4" d="M110.92,123.57c0,0,1.02,4.58-1.12,8.16c0,0,3.11-2.21,8.67-1.46C118.47,130.27,112.96,129.85,110.92,123.57z"
		/>
	<circle cx="140.31" cy="104.95" r="2.03"/>
	<path class="st5" d="M136.22,100.52c0,0-5.79-8.53,2.29-13.21"/>
	<path class="st5" d="M139.6,96.41c0,0-2.02-6.58,5.17-7.33"/>
	<circle class="st6" cx="139" cy="86.94" r="1.69"/>
	<circle class="st6" cx="146.34" cy="88.86" r="1.69"/>
</g>
<g>
	<path d="M301.33,179.39c-7.47-0.53-16.8-0.06-16.21,5.99c0.55,5.65,8.62,5.11,20.05,11.13c9.29,4.89,14.66,9.82,5.89,19.99
		c-6.3,7.3-10.73,12.13-8.34,14.84c4.21,4.79,14.9-1.98,21.91-10.46c7.19-8.68,8.5-17.07,5.43-24.54
		C325.29,184.74,312.95,180.21,301.33,179.39z"/>
	<path d="M333.75,150.64c-5.13-0.6-4.99-1.83-5.47,2.53c-0.37,3.31-0.57,8.14-0.93,12.17c-0.62,6.96-3.44,11.04-9.16,10.03
		c-4.42-0.77-4.19-5.82-1.89-15.67c1.68-7.2,2.45-14.13,2.64-19.89c0.28-8.94-0.53-13.53-0.68-17.36
		c-0.37-9.62,8.51-10.62,12.73-8.19c6.93,3.99,0.23,16.56-0.77,20.33c-1.94,7.23-1.71,6.86,3.02,7.48c4.1,0.54,6.74,0.15,7.9-0.52
		c1.82-1.06,2.02-3.88,1.07-7.18c-1.32-4.56-0.74-8.98,0.85-11.45c2.26-3.51,6.81-4.76,10.36-2.13c5.95,4.42,0.95,15.25-1.3,22.37
		c-3.09,9.82-0.02,13.78-3.34,24.78c-1.65,5.46-4.68,9.3-9.55,8.32c-4.91-1-5.85-6.16-2.95-11.74c2.34-4.5,4.75-7.53,4.37-9.99
		C340.2,151.78,338.63,151.22,333.75,150.64z"/>
	<path d="M284.69,115.59c0,2.31-0.99,5.45-5.39,3.88c-3.55-1.26-11.66-5.09-14.24-0.17c-1.53,2.91-1.3,7.9,8.17,9.37
		c8.87,1.37,12.9,2.27,14.46,4.86c1.91,3.16,1.97,7.18-4.53,10.9c-6.78,3.88-13.55,3.92-22.36,5.04c-7.65,0.98-6.67,7.56-1.25,10.04
		c3.96,1.81,12.98,0.81,20.23-3.24c7.63-4.27,8.65-2.14,9.63,1.68c1.15,4.41-0.92,11.59,5.43,13.25c4.88,1.27,6.93-4.67,6.04-8.13
		c-1.45-5.67-3.46-6.51-6.67-10.72c-2.32-3.04,2.6-3.23,8.49-8.59c6.97-6.35,4.79-16.05-4.08-18.37c-4.42-1.16-7.57-1.84-6.25-5.16
		c2.34-5.85,5.25-8.47,1.99-11.86c-1.89-1.97-7.51-3.54-9.02-0.12C284.25,110.7,284.69,113.63,284.69,115.59z"/>
	<path class="st1" d="M328.79,214.72c-6.14,0.3-11.43-0.65-15.16-1.68c-0.67,1.08-1.51,2.22-2.57,3.45c-0.51,0.59-1,1.16-1.48,1.71
		c3.14,1.59,7.78,3.52,13.35,4.62c0.59-0.63,1.16-1.29,1.71-1.95C326.35,218.81,327.73,216.75,328.79,214.72z"/>
	<path d="M305.81,222.69c2.05,1.73,5.56,4.4,9.92,6.5c2.48-1.72,4.98-3.94,7.22-6.36c-5.57-1.1-10.21-3.04-13.35-4.62
		C308.19,219.83,306.9,221.32,305.81,222.69z"/>
	<path d="M328.79,214.72c1.42-2.71,2.29-5.38,2.64-7.98c-5.52,1.18-11.45,1.16-15.92,0.86c-0.04,1.62-0.64,3.41-1.88,5.44
		C317.37,214.07,322.65,215.02,328.79,214.72z"/>
	<path class="st1" d="M330.9,198.77c-7.4,3.54-13.85,3.54-18.09,2.85c1.76,1.76,2.77,3.7,2.7,5.98c4.47,0.3,10.41,0.32,15.92-0.86
		C331.81,204,331.61,201.35,330.9,198.77z"/>
	<path class="st1" d="M305.81,222.69c-1.21,1.51-2.18,2.85-2.83,4.05c0.87,1.16,3.19,4.05,5.82,5.88c2.13-0.54,4.52-1.77,6.93-3.44
		C311.37,227.09,307.86,224.42,305.81,222.69z"/>
</g>
<path class="st7" d="M172.81,42.33c1.4,1.11,1.53,2.26,0.37,3.47c-1.16,1.21-2.34,1.36-3.55,0.45l-5.87-4.52
	c-0.7-0.5-1.28-0.73-1.73-0.68s-0.93,0.37-1.43,0.98l-6.48,6.33c-1.4,1.51-2.76,1.71-4.07,0.6c-1.31-1.1-1.21-2.46,0.3-4.07
	l6.78-7.23c0.8-0.8,1.31-1.51,1.51-2.11c0.2-0.6,0.3-1.56,0.3-2.86V24.7c0-1.71,0.88-2.59,2.64-2.64s2.64,0.88,2.64,2.79v7.84
	c0,1.21,0.15,2.06,0.45,2.56c0.3,0.51,0.8,1.06,1.51,1.66L172.81,42.33z M186.22,64.03c0,2.51-0.91,4.62-2.71,6.33
	c-1.81,1.71-4.02,2.56-6.63,2.56c-2.51,0-4.7-0.85-6.56-2.56c-1.86-1.71-2.79-3.82-2.79-6.33c0-2.61,0.92-4.75,2.79-6.41
	c1.86-1.66,4.04-2.49,6.56-2.49c2.61,0,4.83,0.83,6.63,2.49C185.31,59.29,186.22,61.42,186.22,64.03z M181.4,64.03
	c0-1.21-0.45-2.26-1.36-3.16c-0.91-0.91-1.95-1.36-3.16-1.36s-2.26,0.45-3.16,1.36c-0.91,0.91-1.36,1.95-1.36,3.16
	c0,1.21,0.45,2.24,1.36,3.09c0.91,0.85,1.95,1.28,3.16,1.28s2.26-0.43,3.16-1.28C180.94,66.27,181.4,65.24,181.4,64.03z
	 M199.18,46.25c0,2.11-0.85,3.14-2.56,3.09c-1.71-0.05-2.56-1.08-2.56-3.09v-9.79c0-0.7-0.15-1.23-0.45-1.58
	c-0.3-0.35-0.85-0.52-1.66-0.52h-4.22c-0.7,0-1.18,0.15-1.43,0.45s-0.37,0.81-0.37,1.51v10.09c0,2.01-0.85,3.04-2.56,3.09
	s-2.56-0.98-2.56-3.09V20.64c0-1.91,0.85-2.94,2.56-3.09s2.56,0.93,2.56,3.24v7.08c0,0.7,0.18,1.18,0.52,1.43
	c0.35,0.25,0.83,0.37,1.43,0.37h4.22c0.8,0,1.33-0.15,1.58-0.45c0.25-0.3,0.37-0.85,0.37-1.66v-9.04c0-2.31,0.85-3.39,2.56-3.24
	c1.71,0.15,2.56,1.18,2.56,3.09L199.18,46.25L199.18,46.25z"/>
<path class="st7" d="M224.01,63.87c0,1.61-0.88,2.49-2.64,2.64c-1.76,0.15-2.64-0.73-2.64-2.64l-0.01-9.79c0-1-0.15-1.68-0.45-2.03
	c-0.3-0.35-0.91-0.52-1.81-0.52l-10.09,0.01c-1.31,0-2.03-0.76-2.19-2.26c-0.15-1.51,0.68-2.26,2.49-2.27L220.37,47
	c1.71,0,2.74,0.4,3.09,1.2c0.36,0.81,0.53,1.71,0.53,2.71L224.01,63.87z M240.75,87.08c0,1.71-0.88,2.61-2.64,2.71
	c-1.76,0.1-2.64-0.85-2.64-2.86l-0.01-6.93c0-1-0.15-1.68-0.45-2.03c-0.3-0.35-0.91-0.52-1.81-0.52l-8.44,0.01
	c-1.31,0-2.03-0.76-2.19-2.26c-0.15-1.51,0.62-2.26,2.34-2.27l12.21-0.01c1.71,0,2.74,0.4,3.09,1.2c0.36,0.81,0.53,1.76,0.53,2.86
	L240.75,87.08z M253.69,46.83c1.21,0,1.81,0.78,1.81,2.34s-0.65,2.34-1.95,2.34l-6.48,0.01c-0.7,0-1.21,0.2-1.51,0.6
	c-0.3,0.4-0.45,0.96-0.45,1.66l0.01,10.09c0,2.01-0.85,3.04-2.56,3.09c-1.71,0.05-2.56-0.98-2.57-3.08l-0.02-24.86
	c0-1.81,0.85-2.76,2.56-2.86c1.71-0.1,2.56,1,2.57,3.31v5.28c0,0.81,0.25,1.36,0.76,1.65c0.5,0.3,1.16,0.45,1.96,0.45L253.69,46.83z
	"/>
<path class="st8" d="M277.03,37.01c0,1.21-0.3,2.16-0.91,2.86c-0.6,0.7-1.4,1.06-2.41,1.06H261.2c-1.31,0-2.28-0.3-2.94-0.91
	c-0.66-0.6-0.98-1.56-0.98-2.86V25.56c0-1.1,0.37-2.01,1.13-2.71c0.76-0.7,1.73-1.06,2.94-1.06h11.76c1,0,1.91,0.28,2.71,0.83
	s1.21,1.43,1.21,2.64V37.01z M271.9,28.42c0-0.8-0.12-1.33-0.37-1.58s-0.78-0.37-1.58-0.37h-5.72c-0.51,0-0.93,0.15-1.28,0.45
	c-0.36,0.3-0.52,0.81-0.52,1.51v6.02c0,0.6,0.18,1.06,0.52,1.36c0.35,0.3,0.88,0.45,1.58,0.45h5.43c0.7,0,1.21-0.2,1.51-0.6
	c0.3-0.4,0.45-0.85,0.45-1.36v-5.88H271.9z M294.06,59.77c0,0.6-0.2,1.23-0.6,1.88c-0.4,0.65-1.16,0.98-2.26,0.98h-8.74
	c-0.6,0-1.06,0.18-1.36,0.52c-0.3,0.35-0.45,0.83-0.45,1.43v3.01c0,0.7,0.2,1.18,0.6,1.43s0.91,0.37,1.51,0.37h7.08
	c1.4,0,2.11,0.77,2.11,2.34c0,1.56-0.66,2.34-1.95,2.34h-10.55c-1.4,0-2.41-0.3-3.01-0.91s-0.91-1.36-0.91-2.26V60.83
	c0-1.21,0.28-1.98,0.83-2.34c0.55-0.35,1.28-0.52,2.19-0.52c2.51,0,4.22,0.03,5.13,0.07c0.91,0.05,1.95,0.03,3.16-0.07
	c0.6,0,1.1-0.12,1.51-0.37c0.4-0.25,0.6-0.73,0.6-1.43v-3.01c0-0.91-0.2-1.46-0.6-1.66c-0.4-0.2-1-0.3-1.81-0.3h-6.18
	c-1.21,0-1.91-0.76-2.11-2.26c-0.2-1.51,0.5-2.26,2.11-2.26h10.09c0.91,0,1.73,0.25,2.49,0.76c0.76,0.51,1.13,1.31,1.13,2.41
	L294.06,59.77L294.06,59.77z M306.87,21.79c1.21,0,1.81,0.78,1.81,2.34s-0.66,2.34-1.96,2.34h-6.48c-0.7,0-1.21,0.2-1.51,0.6
	c-0.3,0.4-0.45,0.96-0.45,1.66v10.09c0,2.01-0.85,3.04-2.56,3.09c-1.71,0.05-2.56-0.98-2.56-3.09V13.95c0-1.81,0.85-2.76,2.56-2.86
	c1.71-0.1,2.56,1,2.56,3.31v5.28c0,0.81,0.25,1.36,0.76,1.66c0.5,0.3,1.16,0.45,1.96,0.45L306.87,21.79L306.87,21.79z"/>
<path class="st8" d="M326.03,60.35c0,0.7-0.2,1.36-0.6,1.95c-0.4,0.6-1.16,0.91-2.26,0.91h-10.55c-0.6,0-1.06,0.18-1.36,0.52
	c-0.3,0.36-0.45,0.83-0.45,1.43v6.33c0,0.7,0.2,1.18,0.6,1.43c0.4,0.25,0.91,0.37,1.51,0.37h8.9c1.4,0,2.11,0.78,2.11,2.34
	s-0.66,2.34-1.95,2.34h-12.51c-1.31,0-2.26-0.3-2.86-0.91c-0.6-0.6-0.91-1.36-0.91-2.26V61.55c0-1.31,0.28-2.11,0.83-2.41
	c0.55-0.3,1.28-0.45,2.19-0.45h10.09c0.6,0,1.1-0.12,1.51-0.37c0.4-0.25,0.6-0.77,0.6-1.58v-5.28c0-0.91-0.2-1.48-0.6-1.73
	c-0.4-0.25-1-0.37-1.81-0.37h-8.59c-1.21,0-1.91-0.76-2.11-2.26c-0.2-1.51,0.5-2.26,2.11-2.26h12.51c0.91,0,1.73,0.25,2.49,0.76
	c0.76,0.51,1.13,1.31,1.13,2.41L326.03,60.35L326.03,60.35z M342.45,93.2c0,2.51-0.91,4.62-2.71,6.33
	c-1.81,1.71-4.02,2.56-6.63,2.56c-2.51,0-4.7-0.85-6.56-2.56c-1.86-1.71-2.79-3.82-2.79-6.33c0-2.61,0.92-4.75,2.79-6.41
	c1.86-1.66,4.04-2.49,6.56-2.49c2.61,0,4.83,0.83,6.63,2.49S342.45,90.59,342.45,93.2z M337.63,93.2c0-1.21-0.45-2.26-1.36-3.16
	c-0.91-0.91-1.95-1.36-3.16-1.36s-2.26,0.45-3.16,1.36s-1.36,1.95-1.36,3.16s0.45,2.24,1.36,3.09c0.91,0.85,1.96,1.28,3.16,1.28
	s2.26-0.43,3.16-1.28C337.18,95.44,337.63,94.41,337.63,93.2z M355.11,58.84c1.21,0,1.81,0.78,1.81,2.34s-0.66,2.34-1.95,2.34h-6.48
	c-0.7,0-1.21,0.2-1.51,0.6c-0.3,0.4-0.45,0.96-0.45,1.66v10.09c0,2.01-0.85,3.04-2.56,3.09c-1.71,0.05-2.56-0.98-2.56-3.09V51.01
	c0-1.81,0.85-2.76,2.56-2.86c1.71-0.1,2.56,1,2.56,3.31v5.28c0,0.81,0.25,1.36,0.76,1.66c0.5,0.3,1.16,0.45,1.95,0.45L355.11,58.84
	L355.11,58.84z"/>
<path d="M179,86.16c-6.3,0.73-11.95,3.43-11.57,9.3c0.28,4.35,3.4,7.36,12.77,10.32c6.94,2.19,8.12,7.3,0.92,15.6
	c-7.26,8.36-7.37,12.74-4.88,14.94c4.41,3.87,17.14-5.69,24.04-15.3c8.33-11.61,4.71-20.5-0.18-26.28
	C195.93,89.82,188.79,85.03,179,86.16z"/>
<path d="M219.8,97.97c-4.52,0.4-8.58,2.36-8.32,7c0.2,3.43,2.06,5.9,8.79,8.49c4.99,1.91,5.7,7.22,1.3,13.11
	c-4.93,6.6-4.69,8.27-2.91,10.07c3.16,3.16,11.45-3.29,16.4-10.65c5.98-8.9,3.39-15.99-0.12-20.66
	C231.96,101.31,226.83,97.35,219.8,97.97z"/>
<path d="M176.65,142.84c10.23,1.42,20.17,4.8,29.66,4.06c8.53-0.67,16.15-4.01,34.59-11.18c9.25-3.6,12.76,4.42,9.77,8.58
	c-4.65,6.46-16.29,6.87-29.5,9.68c-9.63,2.04-10.23,5.91-6.55,12.13c2.8,4.75,1.26,4.04-4.43,5.4c-3.68,0.88-6.91,3.39-6.05-3.38
	c0.6-4.67,0.17-9.39-4.9-10.57c-5.07-1.17-16.33,1.9-28.53,1.61c-10.87-0.26-15.82-5.56-14.15-11.32
	C158.41,141.56,166.34,141.41,176.65,142.84z"/>
<path d="M198.31,88.04c0.04,0.04,0.09,0.09,0.14,0.13C198.39,88.13,198.35,88.09,198.31,88.04z"/>
<path class="st1" d="M204.43,102.3c-0.41-1.51-1.24-3.16-2.25-4.74C203.1,99,203.88,100.58,204.43,102.3L204.43,102.3z"/>
<path class="st1" d="M196.08,98.7c1.58-0.75,3.48-0.42,4.13,1.22c0.44,1.13-0.42,3.25,0.74,4.8c1.05,1.39,4.35,0.87,3.48-2.42
	c-0.54-1.72-1.33-3.3-2.25-4.74c-0.64-0.99-1.35-1.95-2.08-2.82c-0.51-0.6-1.06-1.2-1.65-1.79c-0.04-0.04-0.09-0.09-0.14-0.13
	c-4.3-4.16-10.8-7.64-19.29-6.66c-0.57,0.06-1.13,0.15-1.68,0.25c0.49-0.08,4.08-0.53,5.79,2.32c1.08,1.79-0.63,3.69-0.29,5.15
	c0.44,1.88,1.02,3.92,3.58,3.29C190.15,96.24,190.5,101.32,196.08,98.7z"/>
<path class="st1" d="M234.63,111.71c0.78,0.92,3.52,0.63,2.99-1.67c-0.34-1.2-1.15-2.65-1.74-3.67c-0.42-0.7-0.89-1.38-1.37-1.99
	c-0.34-0.43-0.7-0.85-1.1-1.27c-0.03-0.04-0.06-0.06-0.09-0.1c-2.87-2.98-7.28-5.55-13.17-5.07c-0.39,0.04-0.78,0.07-1.16,0.12
	c0.34-0.04,2.83-0.27,3.95,1.74c0.7,1.26-0.17,2.78-0.22,3.81c-0.04,0.87,0.92,2.19,2.88,1.92c4.56-0.65,1.43,3.71,5.07,3.66
	C233.38,109.17,233.37,110.23,234.63,111.71z"/>
<path class="st1" d="M168.32,91.35c-0.92,1.56-0.45,3.07,0.32,3.23c1.44,0.28,2.74-2.09,4.05-0.85c1.14,1.08,2.28,3.61,4.02,0.88
	c0.62-0.99,0.97-1.6,1.67-2.21c1.12-0.97,2.36-0.74,3.15-0.27c1.13,0.68,1.09,1.28,1.51,2.59c0.39,1.21,3.81-3.29,3.81-3.29
	s-2.91-5.05-4.13-5.26C181.52,85.96,171.72,85.61,168.32,91.35z"/>
<path d="M249.07,249.78c-3.37-2.34-5.79-3.66-5.66-8.48c0.11-4.14-0.09-6.02-0.64-9.68c0,0,0,0,0-0.01
	c-0.59-3.94-3.23-6.68-3.23-6.68c14-14.71,4.35-26.61,4.35-26.61c4.99-9.06,5.73-24.48-9.34-29.53c-16.54-5.54-29.31-1.7-39.75,1.64
	c-15.12,4.83-23.09,15.38-18.2,22.55c5.86,8.59,30.13,9.78,48.15-2.25c8.34-5.56,8.03-12.89,3.61-10.41
	c-3.83,2.16-13.11,6.16-20.47,8.36c-12.36,3.71-24.44,6.66-27.29,2.94c-2.91-3.8,7.55-10.12,18.83-13.5
	c10.9-3.27,28.27-6.77,37.67-1.98c7.97,4.06,2.01,13.44-2.88,17.96c-5.78,5.36-14.28,9.46-26.68,13.03
	c-7.96,2.28-18.07,0.42-23.3-1.02c-3.48-0.96-6.9-0.6-1.6,4.67c4.43,4.4,15.05,11.78,31.65,8.76c19.02-3.47,27-17.02,27-17.02
	c2.52,2.03,0.21,12.39-13.14,19.46c-11.59,6.13-22.76,6.84-31.78,4.55c-5.71-1.45-7.97-3.65-4.39,1.51
	c2.59,3.73,11.66,6.82,16.96,7.42c15.62,1.79,26.62-7.41,26.62-7.41s2.96,4.05,0.13,7.73c-3.49,4.55-10.2,5.87-15.79,4.34
	c-2.27-0.62-2.28,0.49,1.22,2.76c0.31,0.2,0.64,0.39,0.98,0.57l0,0c0,0,6.25,3.25,11.3,4.92c3.44,1.14,7.06,1.99,10.25,2.55
	C246.51,251.44,252.89,252.43,249.07,249.78z"/>
<path class="st1" d="M201.64,96.09"/>
<g>
	<g>
		<path class="st9" d="M105.43,139.35c-0.31,0.34-0.61,0.68-0.91,1.03"/>
		<path class="st10" d="M101.62,144.15c-11.77,17.1-9.5,39.19-0.69,50.84c11.18,14.8,32.25,17.25,41.4,5.69
			c11.45-14.47-7.06-31.59-16.27-8.06c-4.14,10.57-5.24,32.38,16,47.63c27.83,19.99,34.35-8,83.01,26.04
			c77.15,53.97,198.79-66.51,136.5-174.87"/>
		<path class="st9" d="M360.36,89.36c-0.23-0.39-0.47-0.78-0.71-1.17"/>
	</g>
</g>
<path class="st11" d="M62.87,367.88v48.87c0,9.77,5.07,18.86,13.38,24l43.02,26.58c9.09,5.62,20.57,5.62,29.65,0l43.02-26.58
	c8.32-5.14,13.38-14.22,13.38-24v-48.87c0-9.77-5.07-18.86-13.38-24l-43.02-26.58c-9.09-5.62-20.57-5.62-29.65,0l-43.02,26.58
	C67.93,349.02,62.87,358.1,62.87,367.88z"/>
<g>
	<g>
		<path class="st12" d="M104.97,383.77c-4.55-6.84-10.85-13.91-19.19-16.76c-2.65-0.91-6-1.34-8.11,0.69
			c-1.7,1.64-1.88,4.21-1.65,6.46c0.47,4.71,2.27,9.14,5.02,12.88c-0.28,0.13-0.56,0.28-0.84,0.45c-5.62,3.55-7.91,14.66-5.98,20.66
			s7.77,10.17,14.16,10.86c6.39,0.68,12.49-2.17,18.17-6.18C112.23,408.83,109.51,390.62,104.97,383.77z"/>
		<path class="st13" d="M94.45,390.39c0,0-7.43-3.91-7.68-3.91s-5.74,0.14-5.74,0.14s5.43,6.24,5.62,6.3
			c0.19,0.06,6.84,3.02,7.63,3.25c0.78,0.23,2.91-0.96,2.91-0.96L94.45,390.39z"/>
		<path class="st14" d="M104.97,383.36c-3.87-7.81-10.85-13.91-19.19-16.76c-2.65-0.91-6-1.34-8.11,0.69
			c-1.7,1.64-1.88,4.21-1.65,6.46c1.06,10.59,8.82,19.82,19.05,22.66c0.8,0.22,1.83,0.33,2.36-0.36c0.47-0.61,0.2-1.46-0.15-2.1
			c-3.05-5.47-11.45-10.43-17.08-6.88c-5.63,3.55-7.91,14.66-5.98,20.66c1.93,6,7.77,10.17,14.16,10.86
			c6.39,0.68,13.11-1.86,18.17-6.18"/>
	</g>
	<path class="st12" d="M190.27,388.97c-1.02-0.41-2.11-0.68-3.23-0.85c4.14-4.33,6.72-9.65,6.99-15.11
		c0.11-2.08-0.25-4.41-2.21-5.69c-2.45-1.59-6.1-0.76-8.94,0.39c-8.96,3.66-16.83,11.25-19.98,17.71c-3.44,7.06-6.1,22.88,0.1,26.69
		c3.77,2.32,13.36,4.77,20.31,3.34s13.1-5.97,14.83-11.69C199.88,398.07,196.65,391.5,190.27,388.97z"/>
	<path class="st13" d="M174.14,391.23c0,0,7.07-3.07,7.32-3.07c0.25,0,4.42,0.2,4.42,0.2s-4.36,4.61-4.55,4.67
		c-0.19,0.06-6.48,2.91-7.26,3.15c-0.78,0.23-2.67-0.13-2.67-0.13L174.14,391.23z"/>
	<path class="st14" d="M162.91,385.37c3.74-7.61,11.01-14.05,19.98-17.71c2.84-1.16,6.49-1.98,8.94-0.39
		c1.96,1.28,2.32,3.61,2.21,5.69c-0.5,9.79-8.42,19.19-19.46,23.07c-0.86,0.3-1.99,0.53-2.61-0.03c-0.55-0.5-0.31-1.31,0.04-1.93
		c2.99-5.37,11.88-7.69,18.26-5.15c6.38,2.53,9.62,9.1,7.87,14.81s-7.87,10.25-14.83,11.69c-6.96,1.43-14.48-0.04-20.31-3.34"/>
</g>
<g>
	<g>
		<g>
			<path class="st15" d="M134.39,441.71L134.39,441.71c-12.12,0-22.04-9.92-22.04-22.04v-45.04c0-12.12,9.92-22.04,22.04-22.04l0,0
				c12.12,0,22.04,9.92,22.04,22.04v45.04C156.42,431.79,146.51,441.71,134.39,441.71z"/>
			<path d="M156.42,396.2c-22.04,11.19-44.08,0.88-44.08,0.88v-9.99c0,0,22.04,11.82,44.08-0.38V396.2z"/>
			<path d="M156.42,415.04c-22.04,11.19-44.08,0.88-44.08,0.88v-9.99c0,0,22.04,11.82,44.08-0.38V415.04z"/>
			<path d="M149.56,436.24c-15.89,11.28-30.69-0.26-30.69-0.26l-5.98-11.83c0,0,21.5,12.61,43.54-0.37L149.56,436.24z"/>
		</g>
		<path class="st16" d="M134.39,454.52l5.21-12.81c0,0-2.5,0.79-5.21,0.79c-2.72,0-5.21-0.79-5.21-0.79L134.39,454.52z"/>
		<g>
			<g>
				<path class="st17" d="M147.27,363.37c0,0,2.99-8.25,13.53-7.3"/>
				<circle cx="161.68" cy="356.11" r="1.89"/>
			</g>
			<g>
				<path class="st17" d="M121.43,363.37c0,0-2.99-8.25-13.53-7.3"/>
				<circle cx="107.03" cy="356.11" r="1.89"/>
			</g>
		</g>
		<g>
			<path class="st18" d="M139.15,348.28l-4.78-11.36l-4.78,11.36l-8.73-3.39l5.71,14.88c0,0,7.8-4.09,15.6,0l5.71-14.88
				L139.15,348.28z"/>
			<g>
				<circle class="st19" cx="120.52" cy="344.1" r="2.5"/>
				<circle class="st19" cx="148.21" cy="344.1" r="2.5"/>
				<circle class="st19" cx="134.37" cy="335.99" r="2.5"/>
			</g>
		</g>
	</g>
	<path class="st20" d="M136.33,385.17c0,1.05-0.89,1.89-1.98,1.89c-1.09,0-1.98-0.84-1.98-1.89"/>
	<ellipse class="st21" cx="124.77" cy="384.18" rx="2.83" ry="1.58"/>
	<path class="st22" d="M118.3,375.18c0-3.57,2.9-6.47,6.47-6.47c3.57,0,6.47,2.9,6.47,6.47"/>
	<g>
		<g>
			<line class="st23" x1="124.77" y1="370.67" x2="124.77" y2="367.46"/>
			<path class="st23" d="M127.46,371.31c0,0,1.67-0.39,2.25-2.38"/>
			<path class="st23" d="M122.08,371.29c0,0-1.67-0.61-2.25-2.38"/>
		</g>
		<path class="st24" d="M129.13,373.59c0,0-1.27-2.3-4.36-2.3s-4.36,2.3-4.36,2.3"/>
	</g>
	<circle class="st25" cx="124.77" cy="375.14" r="5.01"/>
	<g>
		<g>
			<line class="st23" x1="143.93" y1="370.67" x2="143.93" y2="367.46"/>
			<path class="st23" d="M146.62,371.31c0,0,1.67-0.39,2.25-2.38"/>
			<path class="st23" d="M141.24,371.29c0,0-1.67-0.61-2.25-2.38"/>
		</g>
		<path class="st24" d="M148.29,373.59c0,0-1.27-2.3-4.36-2.3s-4.36,2.3-4.36,2.3"/>
	</g>
	<circle class="st25" cx="143.93" cy="375.14" r="5.01"/>
	<circle cx="124.77" cy="375.14" r="1.89"/>
	<ellipse class="st21" cx="143.93" cy="384.18" rx="2.83" ry="1.58"/>
	<path class="st26" d="M146.15,375.67c0,0-0.44-1.55-2.07-1.55s-2.07,1.55-2.07,1.55"/>
</g>
<path class="st27" d="M274.52,367.88v48.87c0,9.77,5.07,18.86,13.38,24l43.02,26.58c9.09,5.62,20.57,5.62,29.65,0l43.02-26.58
	c8.32-5.14,13.38-14.22,13.38-24v-48.87c0-9.77-5.07-18.86-13.38-24l-43.02-26.58c-9.09-5.62-20.57-5.62-29.65,0l-43.02,26.58
	C279.59,349.02,274.52,358.1,274.52,367.88z"/>
<g>
	<g>
		<path class="st12" d="M316.62,383.77c-4.55-6.84-10.85-13.91-19.19-16.76c-2.65-0.91-6-1.34-8.11,0.69
			c-1.7,1.64-1.88,4.21-1.65,6.46c0.47,4.71,2.27,9.14,5.02,12.88c-0.28,0.13-0.56,0.28-0.84,0.45c-5.62,3.55-7.91,14.66-5.98,20.66
			c1.93,6,7.77,10.17,14.16,10.86c6.39,0.68,12.49-2.17,18.17-6.18C323.87,408.81,321.17,390.62,316.62,383.77z"/>
		<path class="st13" d="M306.11,390.39c0,0-7.43-3.91-7.68-3.91c-0.25,0-5.74,0.14-5.74,0.14s5.43,6.24,5.62,6.3
			c0.19,0.06,6.84,3.02,7.63,3.25c0.78,0.23,2.91-0.96,2.91-0.96L306.11,390.39z"/>
		<path class="st14" d="M316.62,383.36c-3.87-7.81-10.85-13.91-19.19-16.76c-2.65-0.91-6-1.34-8.11,0.69
			c-1.7,1.64-1.88,4.21-1.65,6.46c1.06,10.59,8.82,19.82,19.05,22.66c0.8,0.22,1.83,0.33,2.36-0.36c0.47-0.61,0.2-1.46-0.15-2.1
			c-3.05-5.47-11.45-10.43-17.08-6.88c-5.62,3.55-7.91,14.66-5.98,20.66c1.93,6,7.77,10.17,14.16,10.86
			c6.39,0.68,13.11-1.86,18.17-6.18"/>
	</g>
	<path class="st12" d="M401.93,388.97c-1.02-0.41-2.11-0.68-3.23-0.85c4.14-4.33,6.72-9.65,6.99-15.11
		c0.11-2.08-0.25-4.41-2.21-5.69c-2.45-1.59-6.1-0.76-8.94,0.39c-8.96,3.66-16.83,11.25-19.98,17.71c-3.44,7.06-6.1,22.88,0.1,26.69
		c3.77,2.32,13.36,4.77,20.31,3.34s13.1-5.97,14.83-11.69C411.53,398.07,408.31,391.5,401.93,388.97z"/>
	<path class="st13" d="M385.79,391.23c0,0,7.07-3.07,7.32-3.07s4.42,0.2,4.42,0.2s-4.36,4.61-4.55,4.67
		c-0.19,0.06-6.48,2.91-7.26,3.15c-0.78,0.23-2.67-0.13-2.67-0.13L385.79,391.23z"/>
	<path class="st14" d="M374.56,385.37c3.74-7.61,11.01-14.05,19.98-17.71c2.84-1.16,6.49-1.98,8.94-0.39
		c1.96,1.28,2.32,3.61,2.21,5.69c-0.5,9.79-8.42,19.19-19.46,23.07c-0.86,0.3-1.99,0.53-2.61-0.03c-0.55-0.5-0.31-1.31,0.04-1.93
		c2.99-5.37,11.88-7.69,18.26-5.15c6.38,2.53,9.62,9.1,7.87,14.81c-1.74,5.71-7.87,10.25-14.83,11.69
		c-6.96,1.43-14.48-0.04-20.31-3.34"/>
</g>
<g>
	<g>
		<g>
			<path class="st15" d="M346.04,441.71L346.04,441.71c-12.12,0-22.04-9.92-22.04-22.04v-45.04c0-12.12,9.92-22.04,22.04-22.04l0,0
				c12.12,0,22.04,9.92,22.04,22.04v45.04C368.08,431.79,358.16,441.71,346.04,441.71z"/>
			<path d="M368.08,396.2c-22.04,11.19-44.08,0.88-44.08,0.88v-9.99c0,0,22.04,11.82,44.08-0.38V396.2z"/>
			<path d="M368.08,415.04c-22.04,11.19-44.08,0.88-44.08,0.88v-9.99c0,0,22.04,11.82,44.08-0.38V415.04z"/>
			<path d="M361.21,436.24c-15.89,11.28-30.69-0.26-30.69-0.26l-5.98-11.83c0,0,21.5,12.61,43.54-0.37L361.21,436.24z"/>
		</g>
		<path class="st16" d="M346.04,454.52l5.21-12.81c0,0-2.5,0.79-5.21,0.79c-2.72,0-5.21-0.79-5.21-0.79L346.04,454.52z"/>
		<g>
			<g>
				<path class="st17" d="M358.93,363.37c0,0,2.99-8.25,13.53-7.3"/>
				<circle cx="373.33" cy="356.11" r="1.89"/>
			</g>
			<g>
				<path class="st17" d="M333.08,363.37c0,0-2.99-8.25-13.53-7.3"/>
				<circle cx="318.68" cy="356.11" r="1.89"/>
			</g>
		</g>
		<g>
			<path class="st18" d="M350.8,348.28l-4.78-11.36l-4.78,11.36l-8.73-3.39l5.71,14.88c0,0,7.8-4.09,15.6,0l5.71-14.88L350.8,348.28
				z"/>
			<g>
				<circle class="st19" cx="332.18" cy="344.1" r="2.5"/>
				<circle class="st19" cx="359.86" cy="344.1" r="2.5"/>
				<circle class="st19" cx="346.01" cy="335.99" r="2.5"/>
			</g>
		</g>
	</g>
	<path class="st20" d="M347.98,385.17c0,1.05-0.89,1.89-1.98,1.89c-1.09,0-1.98-0.84-1.98-1.89"/>
	<ellipse class="st21" cx="336.42" cy="384.18" rx="2.83" ry="1.58"/>
	<path class="st22" d="M329.95,375.18c0-3.57,2.9-6.47,6.47-6.47c3.57,0,6.47,2.9,6.47,6.47"/>
	<g>
		<g>
			<line class="st23" x1="336.42" y1="370.67" x2="336.42" y2="367.46"/>
			<path class="st23" d="M339.11,371.31c0,0,1.67-0.39,2.25-2.38"/>
			<path class="st23" d="M333.72,371.29c0,0-1.67-0.61-2.25-2.38"/>
		</g>
		<path class="st24" d="M340.79,373.59c0,0-1.27-2.3-4.36-2.3c-3.09,0-4.36,2.3-4.36,2.3"/>
	</g>
	<circle class="st25" cx="336.42" cy="375.14" r="5.01"/>
	<g>
		<g>
			<line class="st23" x1="355.58" y1="370.67" x2="355.58" y2="367.46"/>
			<path class="st23" d="M358.28,371.31c0,0,1.67-0.39,2.25-2.38"/>
			<path class="st23" d="M352.89,371.29c0,0-1.67-0.61-2.25-2.38"/>
		</g>
		<path class="st24" d="M359.95,373.59c0,0-1.27-2.3-4.36-2.3c-3.09,0-4.36,2.3-4.36,2.3"/>
	</g>
	<circle class="st25" cx="355.58" cy="375.14" r="5.01"/>
	<circle cx="336.42" cy="375.14" r="1.89"/>
	<ellipse class="st21" cx="355.58" cy="384.18" rx="2.83" ry="1.58"/>
	<path class="st26" d="M357.81,375.67c0,0-0.44-1.55-2.07-1.55s-2.07,1.55-2.07,1.55"/>
</g>
</svg>
