<?xml version="1.0" encoding="utf-8"?>
<!-- Generator: Adobe Illustrator 25.2.1, SVG Export Plug-In . SVG Version: 6.00 Build 0)  -->
<svg version="1.1" id="Layer_1" xmlns="http://www.w3.org/2000/svg" xmlns:xlink="http://www.w3.org/1999/xlink" x="0px" y="0px"
	 viewBox="0 0 584.93 373.19" style="enable-background:new 0 0 584.93 373.19;" xml:space="preserve">
<style type="text/css">
	.st0{fill:#F99BC2;}
</style>
<rect x="-0.39" y="-0.48" width="585.32" height="373.67"/>
<g>
	<g>
		<path class="st0" d="M62.16-0.48h-1.44c-2.57,1.82-5.1,3.69-7.58,5.7c-1.87,1.51-3.69,3.07-5.47,4.65
			c-0.12,0.1-0.24,0.2-0.36,0.31c-1.3,1.17-2.54,2.37-3.79,3.57c-0.64,0.62-1.29,1.21-1.92,1.84c-0.63,0.63-1.22,1.28-1.83,1.91
			c-1.2,1.25-2.41,2.5-3.58,3.8c-0.1,0.11-0.19,0.23-0.29,0.34c-0.15,0.16-0.28,0.34-0.43,0.51C43.47,13.2,52.49,5.67,62.16-0.48z"
			/>
		<path class="st0" d="M255.54,22.14c-0.14-0.16-0.28-0.34-0.42-0.5c-0.1-0.11-0.2-0.23-0.3-0.35c-1.17-1.3-2.37-2.55-3.58-3.8
			c-0.62-0.64-1.21-1.29-1.84-1.91c-0.63-0.63-1.28-1.22-1.91-1.84c-1.25-1.2-2.49-2.41-3.8-3.58c-0.11-0.1-0.23-0.2-0.35-0.3
			c-1.78-1.59-3.6-3.14-5.47-4.66c-2.48-2-5.02-3.88-7.58-5.7h-1.44C238.53,5.67,247.54,13.2,255.54,22.14z"/>
		<path class="st0" d="M15.12,185.51c0.71-1.36,1.41-2.72,2.16-4.06c0.33-0.59,0.69-1.17,1.03-1.76c0.91-1.57,1.83-3.12,2.79-4.66
			c0.25-0.4,0.53-0.8,0.79-1.2c0.11-0.17,0.22-0.34,0.34-0.52C-4.76,131.42-3.97,75.15,27.26,32.3c-1.67,2.27-3.29,4.56-4.82,6.89
			c-0.09,0.13-0.17,0.27-0.25,0.4c-1.21,1.86-2.37,3.75-3.49,5.65c-0.28,0.48-0.55,0.97-0.82,1.46c-0.88,1.54-1.74,3.09-2.56,4.65
			c-0.45,0.86-0.87,1.73-1.3,2.59c-0.6,1.2-1.19,2.4-1.76,3.61c-0.56,1.2-1.09,2.42-1.61,3.63c-0.39,0.89-0.77,1.78-1.14,2.68
			c-0.61,1.49-1.18,2.99-1.74,4.5C7.52,69,7.28,69.64,7.05,70.29c-0.6,1.7-1.17,3.42-1.71,5.14c-0.15,0.48-0.31,0.96-0.45,1.45
			c-0.55,1.84-1.07,3.68-1.55,5.54c-0.11,0.4-0.21,0.81-0.32,1.21c-0.47,1.88-0.9,3.77-1.3,5.67c-0.09,0.42-0.18,0.84-0.26,1.25
			c-0.37,1.84-0.69,3.69-0.99,5.54c-0.08,0.51-0.17,1.02-0.24,1.53c-0.26,1.73-0.48,3.46-0.68,5.2c-0.08,0.67-0.15,1.33-0.22,2
			c-0.16,1.56-0.28,3.12-0.38,4.68c-0.06,0.87-0.12,1.75-0.16,2.62c-0.07,1.34-0.11,2.69-0.14,4.03c-0.02,1.11-0.05,2.22-0.05,3.32
			c0,1.11,0.02,2.21,0.05,3.32c0.03,1.34,0.07,2.69,0.14,4.03c0.04,0.87,0.1,1.75,0.16,2.62c0.11,1.56,0.23,3.12,0.38,4.68
			c0.07,0.67,0.15,1.34,0.22,2c0.2,1.74,0.42,3.47,0.68,5.2c0.08,0.51,0.16,1.02,0.24,1.53c0.3,1.85,0.62,3.7,0.99,5.54
			c0.08,0.42,0.18,0.84,0.26,1.25c0.4,1.9,0.82,3.79,1.3,5.67c0.1,0.41,0.21,0.81,0.32,1.21c0.48,1.85,1,3.7,1.55,5.54
			c0.15,0.48,0.3,0.96,0.45,1.45c0.54,1.72,1.11,3.44,1.71,5.15c0.23,0.65,0.47,1.29,0.71,1.94c0.56,1.51,1.13,3.01,1.74,4.5
			c0.37,0.9,0.76,1.79,1.14,2.68c0.52,1.21,1.05,2.43,1.61,3.63c0.56,1.21,1.16,2.41,1.76,3.61c0.22,0.44,0.44,0.87,0.66,1.31
			C14.82,186.06,14.97,185.79,15.12,185.51z"/>
		<path class="st0" d="M268.79,173.31c0.11,0.17,0.23,0.34,0.34,0.52c0.26,0.4,0.53,0.8,0.79,1.2c0.97,1.54,1.89,3.1,2.79,4.66
			c0.34,0.59,0.69,1.17,1.03,1.76c0.75,1.34,1.46,2.7,2.16,4.06c0.15,0.28,0.3,0.56,0.45,0.84c0.22-0.44,0.44-0.87,0.66-1.31
			c0.6-1.2,1.19-2.4,1.75-3.6c0.56-1.2,1.09-2.42,1.61-3.64c0.39-0.89,0.77-1.78,1.14-2.67c0.61-1.49,1.18-3,1.74-4.51
			c0.24-0.64,0.48-1.29,0.71-1.94c0.6-1.71,1.17-3.42,1.71-5.15c0.15-0.48,0.31-0.96,0.45-1.45c0.55-1.83,1.07-3.68,1.55-5.53
			c0.11-0.41,0.22-0.81,0.32-1.22c0.47-1.88,0.9-3.77,1.3-5.66c0.09-0.42,0.18-0.84,0.26-1.25c0.37-1.84,0.69-3.69,0.99-5.54
			c0.08-0.51,0.17-1.02,0.24-1.53c0.26-1.73,0.48-3.47,0.68-5.2c0.08-0.67,0.15-1.33,0.22-2c0.16-1.56,0.28-3.12,0.38-4.68
			c0.06-0.87,0.12-1.75,0.16-2.62c0.07-1.34,0.11-2.69,0.14-4.03c0.01-0.4,0.01-0.81,0.02-1.21c-0.01-0.7,0-1.41,0-2.11
			c0-0.7-0.01-1.41,0-2.11c-0.01-0.4-0.01-0.81-0.02-1.21c-0.03-1.34-0.07-2.69-0.14-4.03c-0.04-0.87-0.1-1.75-0.16-2.62
			c-0.11-1.56-0.23-3.12-0.38-4.68c-0.07-0.67-0.14-1.33-0.22-2c-0.2-1.74-0.42-3.47-0.68-5.2c-0.08-0.51-0.16-1.02-0.24-1.53
			c-0.3-1.85-0.62-3.7-0.99-5.54c-0.08-0.42-0.18-0.84-0.26-1.25c-0.4-1.89-0.82-3.78-1.3-5.66c-0.1-0.41-0.21-0.81-0.32-1.22
			c-0.48-1.85-0.99-3.7-1.55-5.53c-0.15-0.48-0.3-0.96-0.45-1.45c-0.54-1.72-1.11-3.44-1.71-5.14c-0.23-0.65-0.48-1.29-0.72-1.94
			c-0.56-1.51-1.13-3.01-1.74-4.5c-0.37-0.89-0.75-1.78-1.14-2.67c-0.53-1.22-1.06-2.43-1.62-3.64c-0.56-1.21-1.16-2.41-1.75-3.6
			c-0.43-0.87-0.86-1.73-1.31-2.59c-0.82-1.56-1.68-3.11-2.56-4.65c-0.28-0.48-0.54-0.97-0.82-1.46c-1.12-1.9-2.28-3.78-3.49-5.65
			c-0.09-0.13-0.17-0.27-0.25-0.4c-1.53-2.33-3.14-4.62-4.82-6.89C294.98,75.15,295.77,131.42,268.79,173.31z"/>
		<path class="st0" d="M196.33,0c22.32-1.84,45.1,6.49,60.99,24.23c-9.45-10.82-20.8-19.09-33.16-24.71h-28.53
			C195.86-0.32,196.09-0.15,196.33,0z"/>
		<path class="st0" d="M248.79,130.77c-0.85,0.69-1.72,1.35-2.6,1.99c-0.91,3.55-1.97,7.08-3.2,10.57c0.05,0.04,0.09,0.09,0.14,0.13
			c1.26,1.12,2.5,2.25,3.73,3.42c0.86,0.82,1.68,1.65,2.52,2.48c0.83,0.83,1.67,1.66,2.48,2.52c1.17,1.22,2.3,2.47,3.42,3.73
			c0.01,0.01,0.01,0.01,0.02,0.02c31.69-33.97,35.37-86.29,7.56-124.5c-0.25-0.33-0.51-0.66-0.77-1
			C285.03,61.66,279.45,105.98,248.79,130.77z"/>
		<path class="st0" d="M209.63,10.25c25.91,23,39.65,55.07,40.49,87.95c0.78-0.56,1.55-1.14,2.3-1.75
			c20.51-16.58,24.24-46.23,8.89-67.31c-0.52-0.67-1.01-1.35-1.54-2.01c-0.54-0.66-1.1-1.29-1.65-1.93
			C245.66,11.27,226.84,6.01,209.63,10.25z"/>
		<path class="st0" d="M169.22,12.49c5.33,4.31,10.08,9.06,14.26,14.16c2.05-2.47,4.38-4.78,6.97-6.88
			c5.81-4.7,12.37-7.85,19.18-9.53c-1.39-1.24-2.81-2.46-4.27-3.64c-2.93-2.37-5.95-4.55-9.03-6.6c-10.64,0.88-21.17,4.07-30.8,9.66
			C166.77,10.57,168,11.51,169.22,12.49z"/>
		<path class="st0" d="M204.4,104.36c-0.7,4.37-1.69,8.71-2.99,12.99c0.05,0.02,0.09,0.04,0.14,0.06c0.82,0.34,1.65,0.66,2.47,1.02
			c1.14,0.5,2.27,1.03,3.4,1.56c1.1,0.51,2.21,1.01,3.3,1.55c0.85,0.42,1.68,0.87,2.52,1.31c1.36,0.71,2.72,1.41,4.06,2.16
			c0.59,0.33,1.17,0.69,1.76,1.03c1.57,0.91,3.12,1.83,4.66,2.79c0.4,0.25,0.8,0.53,1.2,0.79c1.69,1.09,3.36,2.2,5.01,3.36
			c0.31,0.22,0.62,0.45,0.93,0.67c1.7,1.22,3.38,2.46,5.04,3.76c0.34,0.27,0.67,0.55,1.01,0.81c0.1,0.08,0.2,0.16,0.29,0.24
			c3.09-1.66,6.1-3.54,8.99-5.68c2.93-11.39,4.23-23.03,3.93-34.57C236.46,107.98,219.29,109.84,204.4,104.36z"/>
		<path class="st0" d="M94.68,0c0.23-0.16,0.46-0.33,0.7-0.48H66.85C54.5,5.14,43.15,13.4,33.7,24.23C49.58,6.49,72.37-1.84,94.68,0
			z"/>
		<path class="st0" d="M39.15,151.88c0.82-0.86,1.65-1.68,2.48-2.52c0.83-0.83,1.66-1.67,2.52-2.48c1.22-1.17,2.47-2.3,3.73-3.42
			c0.05-0.04,0.09-0.09,0.14-0.13c-1.23-3.49-2.29-7.02-3.2-10.57c-0.87-0.65-1.74-1.3-2.6-1.99
			C11.56,105.98,5.98,61.66,28.93,30.13c-0.26,0.33-0.51,0.66-0.77,1c-27.81,38.21-24.13,90.53,7.56,124.5
			c0.01-0.01,0.01-0.01,0.02-0.02C36.85,154.35,37.98,153.1,39.15,151.88z"/>
		<path class="st0" d="M134.89,16.13c3.96,3.2,7.5,6.73,10.62,10.51c3.12-3.78,6.66-7.31,10.62-10.51c3.01-2.43,6.16-4.59,9.4-6.47
			c-5.49-4.03-11.26-7.41-17.24-10.14h-5.56c-5.98,2.73-11.75,6.11-17.24,10.14C128.73,11.55,131.88,13.7,134.89,16.13z"/>
		<path class="st0" d="M183.1,89.1c5.81,7.18,13.22,12.3,21.3,15.27c4.35-27.25-2.88-55.71-20.92-77.72
			C168.78,44.35,168.08,70.52,183.1,89.1z"/>
		<path class="st0" d="M44.82,132.77c2.9,2.14,5.9,4.03,8.99,5.68c0.1-0.08,0.2-0.16,0.29-0.24c0.34-0.27,0.67-0.55,1.01-0.81
			c1.66-1.3,3.34-2.54,5.04-3.76c0.31-0.22,0.62-0.45,0.93-0.67c1.65-1.16,3.32-2.27,5.01-3.36c0.4-0.26,0.8-0.53,1.2-0.79
			c1.54-0.97,3.1-1.89,4.66-2.79c0.59-0.34,1.17-0.69,1.76-1.03c1.34-0.75,2.7-1.46,4.06-2.16c0.84-0.44,1.68-0.89,2.52-1.31
			c1.09-0.54,2.2-1.04,3.3-1.55c1.13-0.53,2.26-1.06,3.4-1.56c0.82-0.35,1.65-0.68,2.47-1.02c0.05-0.02,0.09-0.04,0.14-0.06
			c-1.3-4.28-2.29-8.62-2.99-12.99c-14.89,5.47-32.07,3.62-45.73-6.17C40.6,109.74,41.89,121.38,44.82,132.77z"/>
		<path class="st0" d="M107.53,26.65c4.18-5.1,8.93-9.85,14.26-14.16c1.21-0.98,2.45-1.92,3.69-2.83
			c-9.63-5.59-20.16-8.78-30.8-9.66c-3.08,2.05-6.1,4.23-9.03,6.6c-1.46,1.18-2.88,2.4-4.27,3.64c6.81,1.67,13.37,4.83,19.18,9.53
			C103.16,21.87,105.48,24.18,107.53,26.65z"/>
		<path class="st0" d="M136.62,106.59c0.26-0.02,0.52-0.02,0.78-0.04c1.55-0.08,3.09-0.17,4.64-0.21c1.15-0.03,2.3-0.01,3.46-0.01
			c1.15,0,2.31-0.02,3.46,0.01c1.55,0.04,3.09,0.13,4.64,0.21c0.26,0.01,0.52,0.02,0.78,0.04c13.1-25.96,9.63-57.47-8.88-79.95
			C126.99,49.12,123.52,80.64,136.62,106.59z"/>
		<path class="st0" d="M38.58,96.44c0.75,0.61,1.53,1.19,2.3,1.75c0.84-32.87,14.58-64.95,40.49-87.95
			c-17.21-4.23-36.03,1.02-48.5,14.94c-0.55,0.64-1.11,1.27-1.65,1.93c-0.53,0.66-1.02,1.35-1.54,2.01
			C14.35,50.22,18.07,79.87,38.58,96.44z"/>
		<path class="st0" d="M107.91,89.1c15.02-18.58,14.32-44.75-0.38-62.45c-18.04,22-25.27,50.47-20.92,77.72
			C94.7,101.4,102.11,96.28,107.91,89.1z"/>
		<path class="st0" d="M22.69,200.17c-0.09-0.13-0.16-0.26-0.25-0.39c-0.09-0.13-0.17-0.27-0.25-0.4c-1.21-1.86-2.37-3.74-3.49-5.65
			c-0.28-0.48-0.55-0.97-0.82-1.46c-0.88-1.54-1.74-3.09-2.56-4.65c-0.22-0.42-0.44-0.83-0.65-1.25c-0.28,0.55-0.58,1.1-0.86,1.65
			c-0.54,1.09-1.04,2.2-1.55,3.3c-0.52,1.13-1.06,2.26-1.56,3.4c-0.36,0.82-0.68,1.65-1.02,2.47c-0.59,1.43-1.18,2.86-1.73,4.31
			c-0.21,0.55-0.39,1.12-0.59,1.67c-0.62,1.71-1.23,3.43-1.78,5.16c-0.11,0.34-0.2,0.68-0.3,1.01c-0.61,1.95-1.19,3.9-1.71,5.86
			c-0.05,0.18-0.09,0.37-0.14,0.56c-0.55,2.1-1.07,4.22-1.53,6.34c-0.03,0.14-0.05,0.27-0.08,0.41c-0.46,2.16-0.88,4.33-1.24,6.51
			c-0.03,0.21-0.06,0.42-0.09,0.63c-0.34,2.09-0.64,4.18-0.89,6.28c-0.05,0.43-0.08,0.87-0.13,1.3c-0.2,1.87-0.39,3.74-0.52,5.62
			c-0.05,0.76-0.07,1.52-0.11,2.28c-0.09,1.55-0.17,3.09-0.21,4.64c-0.03,1.15-0.01,2.3-0.01,3.46c0,1.15-0.02,2.3,0.01,3.46
			c0.04,1.55,0.12,3.1,0.21,4.64c0.04,0.76,0.06,1.52,0.11,2.28c0.13,1.88,0.32,3.75,0.52,5.62c0.05,0.43,0.08,0.87,0.13,1.3
			c0.25,2.1,0.55,4.2,0.89,6.28c0.03,0.21,0.06,0.42,0.09,0.63c0.36,2.18,0.78,4.35,1.24,6.51c0.03,0.14,0.05,0.27,0.08,0.41
			c0.46,2.12,0.97,4.24,1.53,6.34c0.05,0.18,0.09,0.37,0.14,0.56c0.52,1.97,1.11,3.92,1.71,5.86c0.11,0.34,0.2,0.68,0.3,1.01
			c0.55,1.73,1.16,3.45,1.78,5.16c0.2,0.56,0.38,1.12,0.59,1.67c0.54,1.45,1.14,2.88,1.73,4.31c0.34,0.82,0.66,1.65,1.02,2.47
			c0.49,1.14,1.03,2.27,1.56,3.4c0.51,1.1,1.01,2.21,1.55,3.3c0.42,0.85,0.87,1.68,1.31,2.52c0.71,1.36,1.41,2.72,2.16,4.06
			c0.33,0.59,0.69,1.17,1.03,1.76c0.91,1.56,1.82,3.12,2.79,4.66c0.25,0.4,0.53,0.8,0.79,1.2c1.09,1.69,2.19,3.36,3.36,5.01
			c0.22,0.31,0.45,0.62,0.67,0.93c1.21,1.7,2.46,3.38,3.76,5.04c0.27,0.34,0.54,0.67,0.81,1.01c0.02,0.02,0.03,0.04,0.05,0.06
			C-3.22,301.77-5.23,243.46,22.69,200.17z"/>
		<path class="st0" d="M292.39,249.78c-0.04-1.55-0.12-3.1-0.21-4.64c-0.04-0.76-0.06-1.52-0.11-2.28
			c-0.13-1.88-0.32-3.75-0.52-5.62c-0.05-0.43-0.08-0.87-0.13-1.3c-0.25-2.1-0.55-4.2-0.89-6.28c-0.03-0.21-0.06-0.42-0.09-0.63
			c-0.36-2.18-0.78-4.35-1.24-6.51c-0.03-0.14-0.05-0.27-0.08-0.41c-0.46-2.12-0.97-4.24-1.53-6.34c-0.05-0.18-0.09-0.37-0.14-0.56
			c-0.52-1.97-1.11-3.92-1.71-5.86c-0.11-0.34-0.2-0.68-0.3-1.01c-0.55-1.73-1.16-3.45-1.78-5.16c-0.2-0.56-0.38-1.12-0.59-1.67
			c-0.54-1.45-1.14-2.88-1.73-4.31c-0.34-0.82-0.66-1.65-1.02-2.47c-0.49-1.14-1.03-2.27-1.56-3.4c-0.51-1.1-1.01-2.21-1.55-3.3
			c-0.27-0.56-0.58-1.1-0.86-1.65c-0.21,0.42-0.43,0.83-0.65,1.25c-0.82,1.57-1.68,3.11-2.56,4.65c-0.28,0.48-0.54,0.97-0.82,1.46
			c-1.12,1.91-2.28,3.79-3.49,5.65c-0.09,0.13-0.17,0.27-0.25,0.4c-0.08,0.13-0.16,0.26-0.25,0.39
			c27.92,43.29,25.91,101.6-7.84,144.52c0.02-0.02,0.03-0.04,0.05-0.06c0.27-0.34,0.55-0.67,0.81-1.01c1.3-1.66,2.54-3.34,3.76-5.04
			c0.22-0.31,0.45-0.62,0.67-0.93c1.16-1.65,2.27-3.33,3.36-5.01c0.26-0.4,0.53-0.8,0.79-1.2c0.97-1.54,1.89-3.1,2.79-4.66
			c0.34-0.59,0.7-1.17,1.03-1.76c0.75-1.34,1.46-2.7,2.16-4.06c0.44-0.84,0.89-1.67,1.31-2.52c0.54-1.09,1.04-2.2,1.55-3.3
			c0.52-1.13,1.06-2.26,1.56-3.4c0.36-0.82,0.68-1.65,1.02-2.47c0.59-1.43,1.18-2.86,1.73-4.31c0.21-0.55,0.39-1.12,0.59-1.67
			c0.62-1.71,1.23-3.43,1.78-5.16c0.11-0.34,0.2-0.68,0.3-1.01c0.61-1.95,1.19-3.9,1.71-5.86c0.05-0.18,0.09-0.37,0.14-0.56
			c0.55-2.1,1.07-4.22,1.53-6.34c0.03-0.14,0.05-0.27,0.08-0.41c0.46-2.16,0.88-4.33,1.24-6.51c0.03-0.21,0.06-0.42,0.09-0.63
			c0.34-2.09,0.64-4.18,0.89-6.28c0.05-0.43,0.08-0.87,0.13-1.3c0.2-1.87,0.39-3.74,0.52-5.62c0.05-0.76,0.07-1.52,0.11-2.28
			c0.09-1.55,0.17-3.09,0.21-4.64c0.03-1.15,0.01-2.3,0.01-3.46C292.4,252.08,292.41,250.93,292.39,249.78z"/>
		<path class="st0" d="M217.02,373.19h8.91c9.82-4.87,18.97-11.45,26.97-19.75c0.29-0.31,0.57-0.62,0.85-0.93
			C243.45,363.2,230.61,370.12,217.02,373.19z"/>
		<path class="st0" d="M254.14,218.44c-0.94,1.03-1.93,2.02-2.9,3.02c-0.61,0.64-1.21,1.29-1.84,1.91
			c-0.62,0.62-1.28,1.22-1.91,1.84c-1.25,1.21-2.51,2.42-3.8,3.58c-0.11,0.1-0.23,0.2-0.35,0.3c-0.02,0.02-0.05,0.04-0.07,0.06
			c1.85,5.1,3.37,10.27,4.54,15.5c0.44,0.36,0.88,0.71,1.31,1.08c30.55,26.61,33.87,72.84,7.55,103.54c0,0,0,0,0,0
			c0.98-1.13,1.91-2.29,2.85-3.45C289.48,307.71,286.87,253.52,254.14,218.44z"/>
		<path class="st0" d="M251.51,280.18c-0.28-0.24-0.58-0.44-0.86-0.68c-1.88,31.59-15.74,62.18-41.19,84.34
			c-0.57,0.5-1.17,0.96-1.75,1.44c17.09,4.06,35.76-1.17,48.22-15.17c0.19-0.22,0.4-0.44,0.59-0.66
			C274.16,328.92,271.95,297.98,251.51,280.18z"/>
		<path class="st0" d="M265.1,167.89c-1.21-1.7-2.46-3.38-3.76-5.04c-0.27-0.34-0.54-0.67-0.81-1.01c-1.25-1.57-2.53-3.12-3.85-4.65
			c-0.45-0.52-0.93-1.04-1.39-1.56c-3.12,3.34-6.49,6.52-10.14,9.47c-1.83,1.48-3.71,2.85-5.61,4.18c2.29,1.72,4.54,3.5,6.73,5.41
			c4.43,3.86,8.49,7.99,12.22,12.32c3.78-4.35,7.22-8.92,10.29-13.69c-0.98-1.51-1.97-3.02-3.02-4.5
			C265.55,168.5,265.32,168.2,265.1,167.89z"/>
		<path class="st0" d="M243.33,201.67c-1.47,1.19-2.96,2.32-4.47,3.43c2.71,1.91,5.34,3.98,7.89,6.2c2.6,2.27,5.05,4.64,7.36,7.11
			c0.23-0.25,0.47-0.49,0.7-0.74c0.1-0.11,0.2-0.23,0.3-0.35c1.59-1.78,3.14-3.6,4.66-5.47c3.07-3.8,5.9-7.7,8.53-11.7
			c-2.94-4.56-6.21-8.96-9.82-13.15C253.94,192.24,248.9,197.17,243.33,201.67z"/>
		<path class="st0" d="M224.16,178.1c5.31-2.42,10.45-5.38,15.38-8.82c-2.11-1.59-4.26-3.1-6.45-4.53
			C230.43,169.32,227.44,173.78,224.16,178.1z"/>
		<path class="st0" d="M238.86,205.1c-3.96-2.8-8.08-5.26-12.31-7.4c2.6,3.57,4.99,7.23,7.17,10.98
			C235.45,207.53,237.17,206.34,238.86,205.1z"/>
		<path class="st0" d="M44.73,174.68c2.19-1.91,4.45-3.69,6.73-5.41c-1.9-1.33-3.78-2.7-5.61-4.18c-3.66-2.95-7.02-6.13-10.14-9.47
			c-0.46,0.52-0.93,1.03-1.39,1.56c-1.32,1.53-2.6,3.08-3.85,4.65c-0.27,0.34-0.55,0.67-0.81,1.01c-1.3,1.66-2.54,3.34-3.76,5.04
			c-0.22,0.31-0.45,0.62-0.67,0.93c-1.04,1.48-2.03,2.99-3.02,4.5c3.07,4.77,6.51,9.34,10.29,13.69
			C36.25,182.67,40.3,178.54,44.73,174.68z"/>
		<path class="st0" d="M237.19,138.45c-15.5,8.31-33.13,10.59-49.69,7.17c-0.26,0.36-0.51,0.73-0.77,1.09
			c16.26,2.66,32.05,8.67,46.36,18.03c4.01-6.91,7.31-14.08,9.9-21.41c-0.48-0.42-0.95-0.86-1.43-1.28
			C240.12,140.82,238.66,139.63,237.19,138.45z"/>
		<path class="st0" d="M217.31,186.42c1.53-1.7,3.04-3.45,4.5-5.25c0.81-1.01,1.57-2.04,2.35-3.06c-3.54,1.62-7.16,2.98-10.83,4.15
			C214.68,183.6,216.01,184.99,217.31,186.42z"/>
		<path class="st0" d="M53.82,138.45c-1.47,1.17-2.93,2.37-4.36,3.61c-0.48,0.42-0.95,0.85-1.43,1.28c2.59,7.33,5.89,14.5,9.9,21.41
			c14.31-9.37,30.1-15.37,46.36-18.03c-0.26-0.36-0.51-0.73-0.77-1.09C86.95,149.04,69.32,146.76,53.82,138.45z"/>
		<path class="st0" d="M145.88,119.79c-0.12,0.15-0.25,0.29-0.37,0.44c11.11,13.54,26.06,22.11,41.99,25.4
			c6.28-8.82,10.9-18.37,13.9-28.26c-1.39-0.57-2.77-1.15-4.18-1.67c-0.55-0.21-1.12-0.39-1.67-0.59c-1.71-0.62-3.43-1.23-5.16-1.78
			c-0.34-0.11-0.68-0.2-1.01-0.3c-1.95-0.61-3.9-1.19-5.86-1.71c-0.18-0.05-0.37-0.09-0.56-0.14c-2.1-0.55-4.22-1.07-6.34-1.53
			c-0.14-0.03-0.27-0.05-0.41-0.08c-2.16-0.46-4.33-0.88-6.51-1.24c-0.21-0.03-0.42-0.06-0.63-0.09c-2.09-0.34-4.18-0.64-6.28-0.89
			c-0.43-0.05-0.87-0.08-1.3-0.13c-1.87-0.2-3.74-0.39-5.62-0.52c-0.5-0.03-1-0.05-1.49-0.08
			C152.07,111.19,149.24,115.62,145.88,119.79z"/>
		<path class="st0" d="M145.51,146.94c11.09,1.92,21.97,5.37,32.33,10.28c2.08-2.14,4.09-4.38,6-6.74c1-1.24,1.96-2.49,2.89-3.76
			C173.1,144.47,159.15,144.57,145.51,146.94z"/>
		<path class="st0" d="M145.51,120.22c-0.12-0.15-0.25-0.29-0.37-0.44c-3.37-4.17-6.19-8.59-8.51-13.19c-0.5,0.03-1,0.04-1.49,0.08
			c-1.88,0.13-3.75,0.32-5.62,0.52c-0.43,0.05-0.87,0.08-1.3,0.13c-2.1,0.25-4.2,0.55-6.28,0.89c-0.21,0.03-0.42,0.06-0.63,0.09
			c-2.18,0.36-4.35,0.78-6.51,1.24c-0.14,0.03-0.27,0.05-0.41,0.08c-2.12,0.46-4.24,0.97-6.34,1.53c-0.18,0.05-0.37,0.09-0.56,0.14
			c-1.97,0.52-3.92,1.11-5.86,1.71c-0.34,0.11-0.68,0.2-1.01,0.3c-1.73,0.55-3.45,1.16-5.16,1.78c-0.56,0.2-1.12,0.38-1.67,0.59
			c-1.4,0.53-2.79,1.1-4.18,1.67c3.01,9.89,7.62,19.44,13.9,28.26C119.45,142.33,134.39,133.76,145.51,120.22z"/>
		<path class="st0" d="M225.8,242.55c-0.14,0.09-0.27,0.17-0.41,0.26c-1.86,1.2-3.73,2.37-5.64,3.48c-0.48,0.28-0.98,0.55-1.46,0.83
			c-1.54,0.88-3.08,1.74-4.65,2.56c-0.86,0.45-1.73,0.87-2.59,1.3c-1.2,0.6-2.4,1.19-3.61,1.76c-1.2,0.56-2.42,1.09-3.63,1.61
			c-0.59,0.25-1.16,0.53-1.75,0.78c1.57,4.88,2.74,9.85,3.52,14.86c15.18-4.32,32.1-1.28,45.06,9.52
			c0.69-11.61-0.26-23.34-2.83-34.85c-4.06-3.37-8.37-6.24-12.87-8.61C231.97,238.34,228.92,240.51,225.8,242.55z"/>
		<path class="st0" d="M182.34,350.09c-2.84,3.22-5.89,6.3-9.21,9.19c-2.66,2.32-5.42,4.46-8.25,6.44
			c6.2,3.46,12.76,5.95,19.49,7.47h12.8c3.62-2.42,7.14-5.05,10.55-7.91c-7.51-1.78-14.72-5.34-20.95-10.76
			C185.16,353.13,183.71,351.63,182.34,350.09z"/>
		<path class="st0" d="M44.26,211.3c2.55-2.22,5.19-4.29,7.89-6.2c-1.51-1.11-3-2.24-4.47-3.43c-5.58-4.51-10.61-9.43-15.16-14.67
			c-3.61,4.19-6.87,8.59-9.82,13.15c2.63,3.99,5.47,7.9,8.53,11.7c1.52,1.88,3.08,3.7,4.66,5.48c0.1,0.11,0.19,0.23,0.29,0.34
			c0.23,0.26,0.47,0.49,0.7,0.74C39.2,215.95,41.65,213.57,44.26,211.3z"/>
		<path class="st0" d="M212.14,191.81c4.91,1.56,9.73,3.52,14.41,5.89c-2.21-3.03-4.54-6.01-7.05-8.9
			c-0.71-0.82-1.46-1.59-2.18-2.39C215.63,188.28,213.9,190.07,212.14,191.81z"/>
		<path class="st0" d="M188.76,228.6c15.52-2.54,31.76-0.12,46.14,7.43c0.99-0.76,1.99-1.49,2.96-2.27c1.85-1.5,3.65-3.04,5.41-4.6
			c-2.54-7.01-5.72-13.87-9.56-20.48c-14.33,9.42-30.11,15.41-46.32,18.09C187.85,227.38,188.33,227.98,188.76,228.6z"/>
		<path class="st0" d="M77.68,182.25c-3.66-1.17-7.28-2.53-10.83-4.15c0.78,1.02,1.54,2.05,2.35,3.06c1.46,1.8,2.96,3.55,4.5,5.25
			C75,184.99,76.33,183.6,77.68,182.25z"/>
		<path class="st0" d="M73.7,186.42c-0.73,0.8-1.47,1.57-2.18,2.39c-2.51,2.88-4.85,5.86-7.05,8.9c4.68-2.37,9.5-4.32,14.41-5.89
			C77.11,190.07,75.38,188.28,73.7,186.42z"/>
		<path class="st0" d="M145.51,179.28c21.4,8.96,45.52,10.09,67.82,2.97c-10.59-10.59-22.63-18.95-35.49-25.04
			C168.42,166.92,157.39,174.3,145.51,179.28z"/>
		<path class="st0" d="M212.14,191.81c-21.84-6.95-45.48-6-66.63,2.55c11.9,4.81,23,12.01,32.54,21.58
			C190.4,209.98,201.94,201.9,212.14,191.81z"/>
		<path class="st0" d="M51.47,169.28c4.93,3.44,10.07,6.4,15.38,8.82c-3.29-4.32-6.28-8.78-8.93-13.36
			C55.73,166.17,53.58,167.69,51.47,169.28z"/>
		<path class="st0" d="M104.28,146.71c0.93,1.27,1.89,2.53,2.89,3.76c1.91,2.37,3.92,4.6,6,6.74c10.36-4.9,21.24-8.35,32.33-10.28
			C131.86,144.57,117.91,144.47,104.28,146.71z"/>
		<path class="st0" d="M113.17,157.22c-12.86,6.09-24.9,14.45-35.49,25.04c22.31,7.12,46.43,5.98,67.82-2.97
			C133.62,174.3,122.59,166.92,113.17,157.22z"/>
		<path class="st0" d="M41.88,245.74c0.43-0.37,0.87-0.72,1.31-1.08c1.17-5.23,2.69-10.4,4.54-15.5c-0.02-0.02-0.04-0.03-0.06-0.05
			c-0.12-0.1-0.24-0.2-0.36-0.31c-1.29-1.16-2.54-2.36-3.79-3.57c-0.64-0.61-1.29-1.22-1.92-1.84c-0.62-0.62-1.22-1.28-1.83-1.91
			c-0.97-1.01-1.96-2-2.9-3.03c-32.73,35.08-35.34,89.26-5.39,127.39c0.94,1.16,1.87,2.31,2.85,3.45c0,0,0,0,0,0
			C8.01,318.58,11.33,272.35,41.88,245.74z"/>
		<path class="st0" d="M37.26,352.52c0.28,0.31,0.56,0.62,0.85,0.93c7.99,8.29,17.14,14.88,26.97,19.75h8.91
			C60.4,370.12,47.56,363.2,37.26,352.52z"/>
		<path class="st0" d="M152.33,356.9c-2.46-2.14-4.72-4.42-6.82-6.79c-2.1,2.37-4.36,4.65-6.82,6.79
			c-3.94,3.44-8.15,6.37-12.55,8.82c4.05,2.83,8.25,5.32,12.56,7.47h13.61c4.32-2.15,8.52-4.64,12.56-7.47
			C160.48,363.27,156.27,360.34,152.33,356.9z"/>
		<path class="st0" d="M181.96,284.98c-16.49,18.93-15.9,46.85,0.38,65.11c19.73-22.37,27.68-51.92,23.25-80.11
			C196.73,272.51,188.46,277.51,181.96,284.98z"/>
		<path class="st0" d="M102.25,228.6c0.44-0.62,0.91-1.22,1.37-1.83c-16.21-2.68-31.99-8.67-46.32-18.09
			c-3.84,6.61-7.02,13.46-9.56,20.48c1.76,1.57,3.56,3.1,5.41,4.6c0.97,0.79,1.98,1.52,2.96,2.27
			C70.49,228.48,86.73,226.05,102.25,228.6z"/>
		<path class="st0" d="M187.4,226.76c-1.5-2.01-3.05-3.99-4.72-5.9c-1.49-1.71-3.05-3.34-4.63-4.93
			c-10.4,5.02-21.36,8.52-32.54,10.52C159.35,228.93,173.53,229.06,187.4,226.76z"/>
		<path class="st0" d="M145.51,252.53c0.12,0.13,0.24,0.26,0.36,0.39c3.59,4.13,6.63,8.55,9.14,13.16c0.16-0.01,0.31-0.02,0.47-0.03
			c1.56-0.11,3.12-0.23,4.68-0.38c0.67-0.07,1.34-0.15,2-0.22c1.74-0.2,3.47-0.42,5.2-0.68c0.51-0.08,1.02-0.16,1.53-0.24
			c1.85-0.3,3.7-0.62,5.54-0.99c0.42-0.08,0.84-0.18,1.25-0.26c1.89-0.4,3.78-0.82,5.66-1.3c0.41-0.1,0.81-0.21,1.22-0.32
			c1.85-0.48,3.7-0.99,5.53-1.55c0.49-0.15,0.97-0.3,1.45-0.46c1.72-0.54,3.44-1.11,5.14-1.71c0.65-0.23,1.29-0.48,1.94-0.72
			c1.51-0.56,3.01-1.13,4.5-1.74c0.31-0.13,0.61-0.26,0.92-0.39c-3-9.28-7.42-18.22-13.29-26.5
			C172.58,231.25,157.19,239.3,145.51,252.53z"/>
		<path class="st0" d="M52.15,205.1c1.69,1.24,3.4,2.43,5.14,3.58c2.18-3.75,4.57-7.41,7.17-10.98
			C60.23,199.84,56.11,202.3,52.15,205.1z"/>
		<path class="st0" d="M145.51,194.36c-21.15-8.54-44.8-9.5-66.63-2.55c10.2,10.09,21.74,18.17,34.09,24.12
			C122.51,206.37,133.61,199.16,145.51,194.36z"/>
		<path class="st0" d="M145.51,226.45c-11.18-2-22.14-5.5-32.54-10.52c-1.58,1.59-3.14,3.21-4.63,4.93c-1.67,1.92-3.22,3.9-4.72,5.9
			C117.48,229.06,131.66,228.93,145.51,226.45z"/>
		<path class="st0" d="M85.42,269.98c0.79-5.01,1.95-9.98,3.52-14.86c-0.59-0.25-1.17-0.52-1.75-0.78
			c-1.21-0.53-2.43-1.05-3.63-1.61c-1.21-0.56-2.41-1.16-3.61-1.76c-0.86-0.43-1.73-0.85-2.59-1.3c-1.56-0.82-3.11-1.68-4.64-2.56
			c-0.49-0.28-0.98-0.55-1.47-0.83c-1.9-1.11-3.77-2.28-5.63-3.48c-0.14-0.09-0.28-0.17-0.41-0.26c-3.12-2.04-6.17-4.21-9.15-6.5
			c-4.5,2.36-8.82,5.23-12.87,8.61c-2.57,11.5-3.52,23.24-2.83,34.85C53.32,268.7,70.25,265.66,85.42,269.98z"/>
		<path class="st0" d="M117.89,359.28c-3.32-2.89-6.38-5.98-9.21-9.19c-1.38,1.54-2.83,3.04-4.43,4.44
			c-6.23,5.42-13.44,8.97-20.95,10.76c3.41,2.86,6.93,5.49,10.55,7.91h12.8c6.73-1.53,13.29-4.01,19.49-7.47
			C123.31,363.74,120.55,361.6,117.89,359.28z"/>
		<path class="st0" d="M155.01,266.09c-0.72,0.05-1.44,0.09-2.16,0.12c-1.34,0.07-2.69,0.11-4.03,0.14
			c-1.11,0.03-2.21,0.05-3.32,0.05c-1.11,0-2.21-0.02-3.32-0.05c-1.34-0.03-2.69-0.07-4.03-0.14c-0.72-0.04-1.44-0.08-2.16-0.12
			c-14.7,26.96-11.14,60.71,9.51,84.02C166.15,326.8,169.72,293.04,155.01,266.09z"/>
		<path class="st0" d="M145.15,252.92c0.12-0.13,0.24-0.26,0.36-0.39c-11.69-13.23-27.08-21.28-43.26-23.93
			c-5.88,8.28-10.3,17.22-13.29,26.5c0.31,0.13,0.61,0.26,0.92,0.39c1.49,0.61,3,1.18,4.5,1.74c0.65,0.24,1.29,0.48,1.94,0.71
			c1.7,0.6,3.42,1.17,5.14,1.71c0.48,0.15,0.97,0.31,1.45,0.46c1.83,0.55,3.68,1.07,5.53,1.55c0.41,0.11,0.81,0.22,1.22,0.32
			c1.88,0.47,3.77,0.9,5.66,1.3c0.42,0.09,0.84,0.18,1.25,0.26c1.84,0.37,3.69,0.69,5.54,0.99c0.51,0.08,1.02,0.17,1.53,0.24
			c1.73,0.26,3.46,0.48,5.2,0.68c0.67,0.08,1.33,0.15,2,0.22c1.56,0.16,3.12,0.28,4.68,0.38c0.16,0.01,0.31,0.02,0.47,0.03
			C138.52,261.47,141.55,257.05,145.15,252.92z"/>
		<path class="st0" d="M83.3,365.29c-0.58-0.49-1.17-0.94-1.75-1.44c-25.45-22.16-39.31-52.76-41.19-84.34
			c-0.28,0.23-0.58,0.43-0.86,0.68c-20.44,17.8-22.65,48.75-5.01,69.28c0.19,0.22,0.39,0.44,0.59,0.66
			C47.53,364.11,66.21,369.34,83.3,365.29z"/>
		<path class="st0" d="M109.05,284.98c-6.5-7.47-14.77-12.47-23.63-14.99c-4.43,28.19,3.52,57.74,23.25,80.11
			C124.95,331.83,125.53,303.91,109.05,284.98z"/>
	</g>
	<g>
		<path class="st0" d="M292.3,119.49c0,0.7,0.01,1.41,0,2.11c0.01,0.4,0.01,0.81,0.02,1.21c0.03,1.34,0.07,2.69,0.14,4.03
			c0.04,0.87,0.1,1.75,0.16,2.62c0.11,1.56,0.23,3.12,0.38,4.68c0.07,0.67,0.14,1.33,0.22,2c0.2,1.74,0.42,3.47,0.68,5.2
			c0.08,0.51,0.16,1.02,0.24,1.53c0.3,1.85,0.62,3.7,0.99,5.54c0.08,0.42,0.18,0.84,0.26,1.25c0.4,1.89,0.82,3.78,1.3,5.66
			c0.1,0.41,0.21,0.82,0.32,1.22c0.48,1.85,0.99,3.7,1.55,5.53c0.15,0.48,0.3,0.96,0.45,1.45c0.54,1.72,1.11,3.44,1.71,5.15
			c0.23,0.65,0.47,1.29,0.71,1.94c0.56,1.51,1.13,3.01,1.74,4.51c0.37,0.89,0.75,1.78,1.14,2.67c0.53,1.22,1.06,2.43,1.61,3.64
			c0.56,1.21,1.16,2.41,1.75,3.6c0.22,0.44,0.44,0.87,0.66,1.31c0.14-0.28,0.3-0.56,0.45-0.84c0.71-1.36,1.41-2.72,2.16-4.06
			c0.33-0.59,0.69-1.17,1.03-1.76c0.91-1.57,1.83-3.12,2.79-4.66c0.25-0.4,0.53-0.8,0.79-1.2c0.11-0.17,0.22-0.34,0.34-0.52
			c-26.98-41.89-26.19-98.16,5.04-141.01c-1.67,2.27-3.29,4.56-4.82,6.89c-0.09,0.13-0.17,0.27-0.25,0.4
			c-1.21,1.86-2.37,3.75-3.49,5.65c-0.28,0.48-0.55,0.97-0.82,1.46c-0.88,1.54-1.74,3.09-2.56,4.65c-0.45,0.86-0.87,1.73-1.31,2.59
			c-0.6,1.2-1.19,2.39-1.75,3.6c-0.56,1.21-1.09,2.42-1.62,3.64c-0.38,0.89-0.77,1.78-1.14,2.67c-0.61,1.49-1.18,2.99-1.74,4.5
			c-0.24,0.65-0.49,1.29-0.72,1.94c-0.6,1.7-1.17,3.42-1.71,5.14c-0.15,0.48-0.31,0.96-0.45,1.45c-0.55,1.83-1.07,3.68-1.55,5.53
			c-0.11,0.41-0.22,0.81-0.32,1.22c-0.47,1.88-0.9,3.77-1.3,5.66c-0.09,0.42-0.18,0.84-0.26,1.25c-0.37,1.84-0.69,3.69-0.99,5.54
			c-0.08,0.51-0.17,1.02-0.24,1.53c-0.26,1.73-0.48,3.47-0.68,5.2c-0.08,0.67-0.15,1.33-0.22,2c-0.16,1.56-0.28,3.12-0.38,4.68
			c-0.06,0.87-0.12,1.75-0.16,2.62c-0.07,1.34-0.11,2.69-0.14,4.03c-0.01,0.4-0.01,0.81-0.02,1.21
			C292.3,118.08,292.3,118.78,292.3,119.49z"/>
		<path class="st0" d="M549.21,22.14c-0.15-0.17-0.28-0.34-0.43-0.51c-0.1-0.11-0.19-0.23-0.29-0.34c-1.17-1.3-2.38-2.55-3.58-3.8
			c-0.61-0.63-1.2-1.28-1.83-1.91c-0.63-0.63-1.28-1.23-1.92-1.84c-1.25-1.2-2.49-2.4-3.79-3.57c-0.12-0.11-0.24-0.2-0.36-0.31
			c-1.78-1.58-3.6-3.14-5.47-4.65c-2.48-2-5.02-3.88-7.58-5.7h-1.44C532.19,5.67,541.21,13.2,549.21,22.14z"/>
		<path class="st0" d="M562.46,173.31c0.11,0.17,0.23,0.34,0.34,0.52c0.26,0.4,0.53,0.8,0.79,1.2c0.97,1.54,1.89,3.1,2.79,4.66
			c0.34,0.59,0.69,1.17,1.03,1.76c0.75,1.34,1.46,2.7,2.16,4.06c0.15,0.28,0.3,0.56,0.45,0.84c0.22-0.43,0.44-0.87,0.66-1.3
			c0.6-1.2,1.19-2.4,1.76-3.61c0.56-1.2,1.09-2.42,1.61-3.63c0.39-0.89,0.77-1.78,1.14-2.68c0.61-1.49,1.18-2.99,1.74-4.5
			c0.24-0.65,0.49-1.29,0.72-1.94c0.6-1.7,1.17-3.42,1.71-5.14c0.15-0.48,0.31-0.96,0.45-1.45c0.55-1.83,1.07-3.68,1.55-5.53
			c0.11-0.41,0.22-0.81,0.32-1.22c0.47-1.88,0.9-3.77,1.3-5.66c0.09-0.42,0.18-0.84,0.26-1.25c0.37-1.84,0.69-3.69,0.99-5.54
			c0.08-0.51,0.17-1.02,0.24-1.53c0.26-1.73,0.48-3.47,0.68-5.2c0.08-0.67,0.15-1.33,0.22-2c0.16-1.56,0.28-3.12,0.38-4.68
			c0.06-0.87,0.12-1.75,0.16-2.62c0.07-1.34,0.11-2.69,0.14-4.03c0.02-1.11,0.05-2.21,0.05-3.32c0-1.11-0.02-2.21-0.05-3.32
			c-0.03-1.34-0.07-2.69-0.14-4.03c-0.04-0.87-0.1-1.75-0.16-2.62c-0.11-1.56-0.23-3.12-0.38-4.68c-0.07-0.67-0.14-1.33-0.22-2
			c-0.2-1.74-0.42-3.47-0.68-5.2c-0.08-0.51-0.16-1.02-0.24-1.53c-0.3-1.85-0.62-3.7-0.99-5.54c-0.08-0.42-0.18-0.84-0.26-1.25
			c-0.4-1.89-0.82-3.78-1.3-5.66c-0.1-0.41-0.21-0.81-0.32-1.22c-0.48-1.85-0.99-3.7-1.55-5.53c-0.15-0.48-0.3-0.96-0.45-1.45
			c-0.54-1.72-1.11-3.44-1.71-5.14c-0.23-0.65-0.48-1.3-0.72-1.95c-0.56-1.51-1.13-3.01-1.74-4.5c-0.37-0.89-0.75-1.78-1.14-2.67
			c-0.52-1.22-1.05-2.43-1.61-3.64c-0.56-1.21-1.16-2.41-1.76-3.61c-0.43-0.86-0.85-1.73-1.3-2.59c-0.82-1.56-1.68-3.11-2.56-4.65
			c-0.28-0.48-0.54-0.97-0.82-1.46c-1.12-1.9-2.28-3.78-3.49-5.65c-0.09-0.13-0.17-0.27-0.25-0.4c-1.53-2.33-3.14-4.62-4.82-6.89
			C588.64,75.15,589.44,131.42,562.46,173.31z"/>
		<path class="st0" d="M355.83-0.48h-1.44c-2.57,1.82-5.1,3.69-7.58,5.7c-1.87,1.52-3.69,3.07-5.47,4.66
			c-0.11,0.1-0.23,0.2-0.35,0.3c-1.3,1.17-2.55,2.37-3.8,3.58c-0.64,0.62-1.29,1.21-1.91,1.84c-0.63,0.63-1.22,1.28-1.84,1.91
			c-1.2,1.25-2.41,2.49-3.58,3.8c-0.1,0.11-0.2,0.23-0.3,0.35c-0.14,0.16-0.28,0.34-0.42,0.5C337.14,13.2,346.15,5.67,355.83-0.48z"
			/>
		<path class="st0" d="M489.99,0c22.32-1.84,45.1,6.49,60.99,24.23c-9.45-10.82-20.8-19.09-33.16-24.71H489.3
			C489.53-0.32,489.76-0.15,489.99,0z"/>
		<path class="st0" d="M542.45,130.77c-0.85,0.69-1.72,1.35-2.6,1.99c-0.91,3.55-1.97,7.08-3.2,10.57c0.05,0.04,0.09,0.09,0.14,0.13
			c1.26,1.12,2.5,2.25,3.73,3.42c0.86,0.82,1.68,1.65,2.52,2.48c0.83,0.83,1.67,1.66,2.48,2.52c1.17,1.22,2.3,2.47,3.42,3.73
			c0.01,0.01,0.01,0.01,0.02,0.02c31.69-33.97,35.37-86.29,7.56-124.5c-0.25-0.33-0.51-0.66-0.77-1
			C578.7,61.66,573.12,105.98,542.45,130.77z"/>
		<path class="st0" d="M503.3,10.25c25.91,23,39.65,55.07,40.49,87.95c0.78-0.56,1.55-1.14,2.3-1.75
			c20.51-16.58,24.24-46.23,8.89-67.31c-0.52-0.67-1.01-1.35-1.54-2.01c-0.54-0.66-1.1-1.29-1.65-1.93
			C539.33,11.27,520.51,6.01,503.3,10.25z"/>
		<path class="st0" d="M462.88,12.49c5.33,4.31,10.08,9.06,14.26,14.16c2.05-2.47,4.38-4.78,6.97-6.88
			c5.81-4.7,12.37-7.85,19.18-9.53c-1.39-1.24-2.81-2.46-4.27-3.64c-2.93-2.37-5.95-4.55-9.03-6.6c-10.64,0.88-21.17,4.07-30.8,9.66
			C460.44,10.57,461.67,11.51,462.88,12.49z"/>
		<path class="st0" d="M498.06,104.36c-0.7,4.37-1.69,8.71-2.99,12.99c0.05,0.02,0.09,0.04,0.14,0.06c0.82,0.34,1.65,0.66,2.47,1.02
			c1.14,0.5,2.27,1.03,3.4,1.56c1.1,0.51,2.21,1.01,3.3,1.55c0.85,0.42,1.68,0.87,2.52,1.31c1.36,0.71,2.72,1.41,4.06,2.16
			c0.59,0.33,1.17,0.69,1.76,1.03c1.57,0.91,3.12,1.83,4.66,2.79c0.4,0.25,0.8,0.53,1.2,0.79c1.69,1.09,3.36,2.2,5.01,3.36
			c0.31,0.22,0.62,0.45,0.93,0.67c1.7,1.22,3.38,2.46,5.04,3.76c0.34,0.27,0.67,0.55,1.01,0.81c0.1,0.08,0.2,0.16,0.29,0.24
			c3.09-1.66,6.1-3.54,8.99-5.68c2.93-11.39,4.23-23.03,3.93-34.57C530.13,107.98,512.96,109.84,498.06,104.36z"/>
		<path class="st0" d="M388.35,0c0.23-0.16,0.46-0.33,0.7-0.48h-28.53c-12.35,5.62-23.7,13.88-33.16,24.71
			C343.25,6.49,366.03-1.84,388.35,0z"/>
		<path class="st0" d="M332.82,151.88c0.82-0.86,1.65-1.68,2.48-2.52c0.83-0.83,1.66-1.67,2.52-2.48c1.22-1.17,2.47-2.3,3.73-3.42
			c0.05-0.04,0.09-0.09,0.14-0.13c-1.23-3.49-2.29-7.02-3.2-10.57c-0.87-0.65-1.74-1.3-2.6-1.99
			c-30.67-24.79-36.24-69.12-13.3-100.64c-0.26,0.33-0.51,0.66-0.77,1c-27.81,38.21-24.13,90.53,7.56,124.5
			c0.01-0.01,0.01-0.01,0.02-0.02C330.52,154.35,331.65,153.1,332.82,151.88z"/>
		<path class="st0" d="M428.56,16.13c3.96,3.2,7.5,6.73,10.62,10.51c3.12-3.78,6.66-7.31,10.62-10.51c3.01-2.43,6.16-4.59,9.4-6.47
			c-5.49-4.03-11.26-7.41-17.24-10.14h-5.56c-5.98,2.73-11.75,6.11-17.24,10.14C422.4,11.55,425.55,13.7,428.56,16.13z"/>
		<path class="st0" d="M476.77,89.1c5.81,7.18,13.22,12.3,21.3,15.27c4.35-27.25-2.88-55.71-20.92-77.72
			C462.45,44.35,461.75,70.52,476.77,89.1z"/>
		<path class="st0" d="M338.49,132.77c2.9,2.14,5.9,4.03,8.99,5.68c0.1-0.08,0.2-0.16,0.29-0.24c0.34-0.27,0.67-0.55,1.01-0.81
			c1.66-1.3,3.34-2.54,5.04-3.76c0.31-0.22,0.62-0.45,0.93-0.67c1.65-1.16,3.32-2.27,5.01-3.36c0.4-0.26,0.8-0.53,1.2-0.79
			c1.54-0.97,3.1-1.89,4.66-2.79c0.59-0.34,1.17-0.69,1.76-1.03c1.34-0.75,2.7-1.46,4.06-2.16c0.84-0.44,1.68-0.89,2.52-1.31
			c1.09-0.54,2.2-1.04,3.3-1.55c1.13-0.53,2.26-1.06,3.4-1.56c0.82-0.35,1.65-0.68,2.47-1.02c0.05-0.02,0.09-0.04,0.14-0.06
			c-1.3-4.28-2.29-8.62-2.99-12.99c-14.89,5.47-32.07,3.62-45.73-6.17C334.26,109.74,335.56,121.38,338.49,132.77z"/>
		<path class="st0" d="M401.2,26.65c4.18-5.1,8.93-9.85,14.26-14.16c1.21-0.98,2.45-1.92,3.69-2.83c-9.63-5.59-20.16-8.78-30.8-9.66
			c-3.08,2.05-6.1,4.23-9.03,6.6c-1.46,1.18-2.88,2.4-4.27,3.64c6.81,1.67,13.37,4.83,19.18,9.53
			C396.82,21.87,399.15,24.18,401.2,26.65z"/>
		<path class="st0" d="M430.29,106.59c0.26-0.02,0.52-0.02,0.78-0.04c1.55-0.08,3.09-0.17,4.64-0.21c1.15-0.03,2.3-0.01,3.46-0.01
			c1.15,0,2.31-0.02,3.46,0.01c1.55,0.04,3.09,0.13,4.64,0.21c0.26,0.01,0.52,0.02,0.78,0.04c13.1-25.96,9.63-57.47-8.88-79.95
			C420.66,49.12,417.19,80.64,430.29,106.59z"/>
		<path class="st0" d="M332.25,96.44c0.75,0.61,1.53,1.19,2.3,1.75c0.84-32.87,14.58-64.95,40.49-87.95
			c-17.21-4.23-36.03,1.02-48.5,14.94c-0.55,0.64-1.11,1.27-1.65,1.93c-0.53,0.66-1.02,1.35-1.54,2.01
			C308.01,50.22,311.74,79.87,332.25,96.44z"/>
		<path class="st0" d="M401.58,89.1c15.02-18.58,14.32-44.75-0.38-62.45c-18.04,22-25.27,50.47-20.92,77.72
			C388.36,101.4,395.77,96.28,401.58,89.1z"/>
		<path class="st0" d="M332.82,354.58c0.81,0.85,1.65,1.68,2.48,2.52c0.83,0.84,1.67,1.67,2.52,2.48c1.22,1.16,2.46,2.29,3.73,3.42
			c0.52,0.47,1.04,0.94,1.57,1.4c1.53,1.32,3.08,2.6,4.65,3.85c0.34,0.27,0.67,0.55,1.01,0.81c1.66,1.3,3.34,2.54,5.04,3.76
			c0.17,0.12,0.34,0.25,0.51,0.37h1.1c-8.08-5.23-15.71-11.43-22.66-18.65C332.79,354.56,332.81,354.57,332.82,354.58z"/>
		<path class="st0" d="M569.36,187.63c-0.82,1.57-1.68,3.11-2.56,4.65c-0.28,0.48-0.54,0.97-0.82,1.46
			c-1.12,1.91-2.28,3.79-3.49,5.65c-0.09,0.13-0.17,0.27-0.25,0.4c-0.08,0.13-0.16,0.26-0.25,0.39
			c27.92,43.29,25.91,101.6-7.84,144.52c0.02-0.02,0.03-0.04,0.05-0.06c0.27-0.34,0.55-0.67,0.81-1.01c1.3-1.66,2.54-3.34,3.76-5.04
			c0.22-0.31,0.45-0.62,0.67-0.93c1.16-1.65,2.27-3.33,3.36-5.01c0.26-0.4,0.53-0.8,0.79-1.2c0.97-1.54,1.89-3.1,2.79-4.66
			c0.34-0.59,0.7-1.17,1.03-1.76c0.75-1.34,1.46-2.7,2.16-4.06c0.44-0.84,0.89-1.67,1.31-2.52c0.54-1.09,1.04-2.2,1.55-3.3
			c0.52-1.13,1.06-2.26,1.56-3.4c0.36-0.82,0.68-1.65,1.02-2.47c0.59-1.43,1.18-2.86,1.73-4.31c0.21-0.55,0.39-1.12,0.59-1.67
			c0.62-1.71,1.23-3.43,1.78-5.16c0.11-0.34,0.2-0.68,0.3-1.01c0.61-1.95,1.19-3.9,1.71-5.86c0.05-0.18,0.09-0.37,0.14-0.56
			c0.55-2.1,1.07-4.22,1.53-6.34c0.03-0.14,0.05-0.27,0.08-0.41c0.46-2.16,0.88-4.33,1.24-6.51c0.03-0.21,0.06-0.42,0.09-0.63
			c0.34-2.09,0.64-4.18,0.89-6.28c0.05-0.43,0.08-0.87,0.13-1.3c0.2-1.87,0.39-3.74,0.52-5.62c0.05-0.76,0.07-1.52,0.11-2.28
			c0.09-1.55,0.17-3.09,0.21-4.64c0.03-1.15,0.01-2.3,0.01-3.46c0-1.15,0.02-2.3-0.01-3.46c-0.04-1.55-0.12-3.1-0.21-4.64
			c-0.04-0.76-0.06-1.52-0.11-2.28c-0.13-1.88-0.32-3.75-0.52-5.62c-0.05-0.43-0.08-0.87-0.13-1.3c-0.25-2.1-0.55-4.2-0.89-6.28
			c-0.03-0.21-0.06-0.42-0.09-0.63c-0.36-2.18-0.78-4.35-1.24-6.51c-0.03-0.14-0.05-0.27-0.08-0.41c-0.46-2.12-0.97-4.24-1.53-6.34
			c-0.05-0.18-0.09-0.37-0.14-0.56c-0.52-1.97-1.11-3.92-1.71-5.86c-0.11-0.34-0.2-0.68-0.3-1.01c-0.55-1.73-1.16-3.45-1.78-5.16
			c-0.2-0.56-0.38-1.12-0.59-1.67c-0.54-1.45-1.14-2.88-1.73-4.31c-0.34-0.82-0.66-1.65-1.02-2.47c-0.49-1.14-1.03-2.27-1.56-3.4
			c-0.51-1.1-1.01-2.21-1.55-3.3c-0.27-0.56-0.58-1.1-0.86-1.65C569.8,186.8,569.58,187.21,569.36,187.63z"/>
		<path class="st0" d="M316.36,200.17c-0.09-0.13-0.16-0.26-0.25-0.39c-0.09-0.13-0.17-0.27-0.25-0.4
			c-1.21-1.86-2.37-3.74-3.49-5.65c-0.28-0.48-0.55-0.97-0.82-1.46c-0.88-1.54-1.74-3.09-2.56-4.65c-0.22-0.42-0.44-0.83-0.65-1.25
			c-0.28,0.55-0.58,1.1-0.86,1.65c-0.54,1.09-1.04,2.2-1.55,3.3c-0.52,1.13-1.06,2.26-1.56,3.4c-0.36,0.82-0.68,1.65-1.02,2.47
			c-0.59,1.43-1.18,2.86-1.73,4.31c-0.21,0.55-0.39,1.12-0.59,1.67c-0.62,1.71-1.23,3.43-1.78,5.16c-0.11,0.34-0.2,0.68-0.3,1.01
			c-0.61,1.95-1.19,3.9-1.71,5.86c-0.05,0.18-0.09,0.37-0.14,0.56c-0.55,2.1-1.07,4.22-1.53,6.34c-0.03,0.14-0.05,0.27-0.08,0.41
			c-0.46,2.16-0.88,4.33-1.24,6.51c-0.03,0.21-0.06,0.42-0.09,0.63c-0.34,2.09-0.64,4.18-0.89,6.28c-0.05,0.43-0.08,0.87-0.13,1.3
			c-0.2,1.87-0.39,3.74-0.52,5.62c-0.05,0.76-0.07,1.52-0.11,2.28c-0.09,1.55-0.17,3.09-0.21,4.64c-0.03,1.15-0.01,2.3-0.01,3.46
			c0,1.15-0.02,2.3,0.01,3.46c0.04,1.55,0.12,3.1,0.21,4.64c0.04,0.76,0.06,1.52,0.11,2.28c0.13,1.88,0.32,3.75,0.52,5.62
			c0.05,0.43,0.08,0.87,0.13,1.3c0.25,2.1,0.55,4.2,0.89,6.28c0.03,0.21,0.06,0.42,0.09,0.63c0.36,2.18,0.78,4.35,1.24,6.51
			c0.03,0.14,0.05,0.27,0.08,0.41c0.46,2.12,0.97,4.24,1.53,6.34c0.05,0.18,0.09,0.37,0.14,0.56c0.52,1.97,1.11,3.92,1.71,5.86
			c0.11,0.34,0.2,0.68,0.3,1.01c0.55,1.73,1.16,3.45,1.78,5.16c0.2,0.56,0.38,1.12,0.59,1.67c0.54,1.45,1.14,2.88,1.73,4.31
			c0.34,0.82,0.66,1.65,1.02,2.47c0.49,1.14,1.03,2.27,1.56,3.4c0.51,1.1,1.01,2.21,1.55,3.3c0.42,0.85,0.87,1.68,1.31,2.52
			c0.71,1.36,1.41,2.72,2.16,4.06c0.33,0.59,0.69,1.17,1.03,1.76c0.91,1.56,1.82,3.12,2.79,4.66c0.25,0.4,0.53,0.8,0.79,1.2
			c1.09,1.69,2.19,3.36,3.36,5.01c0.22,0.31,0.45,0.62,0.67,0.93c1.21,1.7,2.46,3.38,3.76,5.04c0.27,0.34,0.54,0.67,0.81,1.01
			c0.02,0.02,0.03,0.04,0.05,0.06C290.45,301.77,288.44,243.46,316.36,200.17z"/>
		<path class="st0" d="M529.56,369.07c0.34-0.27,0.67-0.54,1.01-0.81c1.57-1.25,3.12-2.53,4.65-3.85c0.53-0.46,1.05-0.94,1.57-1.4
			c1.26-1.12,2.51-2.26,3.73-3.42c0.85-0.81,1.68-1.65,2.52-2.48c0.84-0.83,1.67-1.67,2.48-2.52c0.01-0.01,0.03-0.03,0.04-0.04
			c-6.95,7.22-14.58,13.42-22.66,18.65h1.1c0.17-0.12,0.34-0.25,0.51-0.37C526.22,371.61,527.9,370.36,529.56,369.07z"/>
		<path class="st0" d="M510.69,373.19h8.91c9.82-4.87,18.97-11.45,26.97-19.75c0.29-0.31,0.57-0.62,0.85-0.93
			C537.12,363.2,524.28,370.12,510.69,373.19z"/>
		<path class="st0" d="M547.81,218.44c-0.94,1.03-1.93,2.02-2.91,3.03c-0.61,0.63-1.21,1.28-1.83,1.91
			c-0.63,0.63-1.28,1.23-1.92,1.84c-1.25,1.21-2.5,2.41-3.79,3.57c-0.12,0.1-0.24,0.2-0.36,0.31c-0.02,0.02-0.04,0.03-0.06,0.05
			c1.85,5.1,3.37,10.27,4.54,15.5c0.44,0.36,0.88,0.71,1.31,1.08c30.55,26.61,33.87,72.84,7.55,103.54c0,0,0,0,0,0
			c0.98-1.13,1.91-2.29,2.85-3.45C583.14,307.71,580.53,253.52,547.81,218.44z"/>
		<path class="st0" d="M545.18,280.18c-0.28-0.24-0.58-0.44-0.86-0.68c-1.88,31.59-15.74,62.18-41.19,84.34
			c-0.57,0.5-1.17,0.96-1.75,1.44c17.09,4.06,35.76-1.17,48.22-15.17c0.19-0.22,0.4-0.44,0.59-0.66
			C567.82,328.92,565.62,297.98,545.18,280.18z"/>
		<path class="st0" d="M538.82,165.1c-1.83,1.48-3.71,2.85-5.61,4.18c2.29,1.72,4.54,3.5,6.73,5.41c4.43,3.86,8.49,7.99,12.22,12.32
			c3.79-4.35,7.22-8.92,10.29-13.69c-0.98-1.51-1.97-3.02-3.02-4.5c-0.22-0.31-0.45-0.62-0.67-0.93c-1.21-1.7-2.46-3.38-3.76-5.04
			c-0.27-0.34-0.54-0.67-0.81-1.01c-1.25-1.57-2.53-3.12-3.85-4.65c-0.45-0.52-0.93-1.04-1.39-1.56
			C545.84,158.97,542.47,162.14,538.82,165.1z"/>
		<path class="st0" d="M537,201.67c-1.47,1.19-2.96,2.32-4.47,3.43c2.71,1.91,5.34,3.98,7.89,6.2c2.6,2.27,5.05,4.64,7.36,7.11
			c0.23-0.25,0.47-0.49,0.7-0.75c0.1-0.11,0.19-0.23,0.29-0.34c1.59-1.78,3.15-3.61,4.67-5.48c3.07-3.8,5.9-7.7,8.53-11.7
			c-2.94-4.56-6.21-8.96-9.82-13.15C547.61,192.24,542.57,197.17,537,201.67z"/>
		<path class="st0" d="M517.82,178.1c5.31-2.42,10.45-5.38,15.38-8.82c-2.11-1.59-4.26-3.1-6.45-4.53
			C524.1,169.32,521.11,173.78,517.82,178.1z"/>
		<path class="st0" d="M532.53,205.1c-3.96-2.8-8.08-5.26-12.31-7.4c2.6,3.57,4.99,7.23,7.17,10.98
			C529.12,207.53,530.84,206.34,532.53,205.1z"/>
		<path class="st0" d="M338.4,174.68c2.19-1.91,4.45-3.69,6.73-5.41c-1.9-1.33-3.78-2.7-5.61-4.18c-3.66-2.95-7.02-6.13-10.14-9.47
			c-0.46,0.52-0.93,1.03-1.39,1.56c-1.32,1.53-2.6,3.08-3.85,4.65c-0.27,0.34-0.55,0.67-0.81,1.01c-1.3,1.66-2.54,3.34-3.76,5.04
			c-0.22,0.31-0.45,0.62-0.67,0.93c-1.04,1.48-2.03,2.99-3.02,4.5c3.07,4.77,6.51,9.34,10.29,13.69
			C329.91,182.67,333.97,178.54,338.4,174.68z"/>
		<path class="st0" d="M526.76,164.74c4.01-6.91,7.31-14.08,9.9-21.41c-0.48-0.42-0.95-0.86-1.43-1.28
			c-1.44-1.24-2.89-2.43-4.36-3.61c-15.5,8.31-33.13,10.59-49.69,7.17c-0.26,0.36-0.51,0.73-0.77,1.09
			C496.66,149.37,512.45,155.37,526.76,164.74z"/>
		<path class="st0" d="M510.98,186.42c1.53-1.7,3.04-3.45,4.5-5.25c0.81-1.01,1.57-2.04,2.35-3.06c-3.54,1.62-7.16,2.98-10.83,4.15
			C508.35,183.6,509.67,184.99,510.98,186.42z"/>
		<path class="st0" d="M347.49,138.45c-1.47,1.17-2.93,2.37-4.36,3.61c-0.48,0.42-0.95,0.85-1.43,1.28
			c2.59,7.33,5.89,14.5,9.9,21.41c14.31-9.37,30.1-15.37,46.36-18.03c-0.26-0.36-0.51-0.73-0.77-1.09
			C380.61,149.04,362.99,146.76,347.49,138.45z"/>
		<path class="st0" d="M439.54,119.79c-0.12,0.15-0.25,0.29-0.37,0.44c11.11,13.54,26.06,22.11,41.99,25.4
			c6.28-8.82,10.9-18.37,13.9-28.26c-1.39-0.57-2.77-1.15-4.18-1.67c-0.55-0.21-1.12-0.39-1.67-0.59c-1.71-0.62-3.43-1.23-5.16-1.78
			c-0.34-0.11-0.68-0.2-1.01-0.3c-1.95-0.61-3.9-1.19-5.86-1.71c-0.18-0.05-0.37-0.09-0.56-0.14c-2.1-0.55-4.22-1.07-6.34-1.53
			c-0.14-0.03-0.27-0.05-0.41-0.08c-2.16-0.46-4.33-0.88-6.51-1.24c-0.21-0.03-0.42-0.06-0.63-0.09c-2.09-0.34-4.18-0.64-6.28-0.89
			c-0.43-0.05-0.87-0.08-1.3-0.13c-1.87-0.2-3.74-0.39-5.62-0.52c-0.5-0.03-1-0.05-1.49-0.08
			C445.73,111.19,442.91,115.62,439.54,119.79z"/>
		<path class="st0" d="M439.17,146.94c11.09,1.92,21.97,5.37,32.33,10.28c2.08-2.14,4.09-4.38,6-6.74c1-1.24,1.96-2.49,2.89-3.76
			C466.77,144.47,452.82,144.57,439.17,146.94z"/>
		<path class="st0" d="M439.17,120.22c-0.12-0.15-0.25-0.29-0.37-0.44c-3.37-4.17-6.19-8.59-8.51-13.19c-0.5,0.03-1,0.04-1.49,0.08
			c-1.88,0.13-3.75,0.32-5.62,0.52c-0.43,0.05-0.87,0.08-1.3,0.13c-2.1,0.25-4.2,0.55-6.28,0.89c-0.21,0.03-0.42,0.06-0.63,0.09
			c-2.18,0.36-4.35,0.78-6.51,1.24c-0.14,0.03-0.27,0.05-0.41,0.08c-2.12,0.46-4.24,0.97-6.34,1.53c-0.18,0.05-0.37,0.09-0.56,0.14
			c-1.97,0.52-3.92,1.11-5.86,1.71c-0.34,0.11-0.68,0.2-1.01,0.3c-1.73,0.55-3.45,1.16-5.16,1.78c-0.56,0.2-1.12,0.38-1.67,0.59
			c-1.4,0.53-2.79,1.1-4.18,1.67c3.01,9.89,7.62,19.44,13.9,28.26C413.12,142.33,428.06,133.76,439.17,120.22z"/>
		<path class="st0" d="M519.47,242.55c-0.14,0.09-0.28,0.17-0.41,0.26c-1.86,1.2-3.73,2.37-5.63,3.48
			c-0.49,0.29-0.98,0.55-1.47,0.83c-1.54,0.88-3.08,1.74-4.64,2.56c-0.86,0.45-1.73,0.87-2.59,1.3c-1.2,0.6-2.4,1.19-3.61,1.76
			c-1.2,0.56-2.42,1.09-3.63,1.61c-0.59,0.25-1.16,0.53-1.75,0.78c1.57,4.88,2.74,9.85,3.52,14.86c15.18-4.32,32.1-1.28,45.06,9.52
			c0.69-11.61-0.26-23.34-2.83-34.85c-4.06-3.37-8.37-6.24-12.87-8.61C525.63,238.34,522.59,240.51,519.47,242.55z"/>
		<path class="st0" d="M501.38,365.29c-7.51-1.78-14.72-5.34-20.95-10.76c-1.6-1.39-3.05-2.89-4.43-4.44
			c-2.84,3.22-5.89,6.3-9.21,9.19c-2.66,2.32-5.42,4.46-8.25,6.44c6.2,3.46,12.76,5.95,19.49,7.47h12.8
			C494.45,370.78,497.97,368.14,501.38,365.29z"/>
		<path class="st0" d="M337.92,211.3c2.55-2.22,5.19-4.29,7.89-6.2c-1.51-1.11-3-2.24-4.47-3.43c-5.58-4.51-10.61-9.43-15.16-14.67
			c-3.61,4.19-6.87,8.59-9.82,13.15c2.63,3.99,5.47,7.9,8.53,11.7c1.52,1.87,3.07,3.69,4.66,5.47c0.1,0.11,0.2,0.23,0.3,0.35
			c0.23,0.25,0.47,0.49,0.7,0.74C332.87,215.95,335.32,213.57,337.92,211.3z"/>
		<path class="st0" d="M505.8,191.81c4.91,1.56,9.73,3.52,14.41,5.89c-2.21-3.03-4.54-6.01-7.05-8.9c-0.71-0.82-1.46-1.59-2.18-2.39
			C509.3,188.28,507.57,190.07,505.8,191.81z"/>
		<path class="st0" d="M482.43,228.6c15.52-2.54,31.76-0.12,46.14,7.43c0.99-0.76,1.99-1.49,2.96-2.27c1.85-1.5,3.65-3.03,5.41-4.6
			c-2.54-7.01-5.72-13.87-9.56-20.48c-14.33,9.42-30.11,15.41-46.32,18.09C481.52,227.38,481.99,227.98,482.43,228.6z"/>
		<path class="st0" d="M371.35,182.25c-3.66-1.17-7.28-2.53-10.83-4.15c0.78,1.02,1.54,2.05,2.35,3.06c1.46,1.8,2.96,3.55,4.5,5.25
			C368.67,184.99,370,183.6,371.35,182.25z"/>
		<path class="st0" d="M367.37,186.42c-0.73,0.8-1.47,1.57-2.18,2.39c-2.51,2.88-4.85,5.86-7.05,8.9c4.68-2.37,9.5-4.32,14.41-5.89
			C370.78,190.07,369.05,188.28,367.37,186.42z"/>
		<path class="st0" d="M439.17,179.28c21.4,8.96,45.52,10.09,67.82,2.97c-10.59-10.59-22.63-18.95-35.49-25.04
			C462.09,166.92,451.05,174.3,439.17,179.28z"/>
		<path class="st0" d="M505.8,191.81c-21.84-6.95-45.48-6-66.63,2.55c11.9,4.81,23,12.01,32.54,21.58
			C484.06,209.98,495.61,201.9,505.8,191.81z"/>
		<path class="st0" d="M345.14,169.28c4.93,3.44,10.07,6.4,15.38,8.82c-3.29-4.32-6.28-8.78-8.93-13.36
			C349.4,166.17,347.25,167.69,345.14,169.28z"/>
		<path class="st0" d="M397.95,146.71c0.93,1.27,1.89,2.53,2.89,3.76c1.91,2.37,3.92,4.6,6,6.74c10.36-4.9,21.24-8.35,32.33-10.28
			C425.53,144.57,411.58,144.47,397.95,146.71z"/>
		<path class="st0" d="M406.84,157.22c-12.86,6.09-24.9,14.45-35.49,25.04c22.31,7.12,46.43,5.98,67.82-2.97
			C427.29,174.3,416.26,166.92,406.84,157.22z"/>
		<path class="st0" d="M330.93,352.52c0.28,0.31,0.56,0.62,0.85,0.93c7.99,8.29,17.14,14.88,26.97,19.75h8.91
			C354.07,370.12,341.23,363.2,330.93,352.52z"/>
		<path class="st0" d="M335.55,245.74c0.43-0.37,0.87-0.72,1.31-1.08c1.17-5.23,2.69-10.4,4.54-15.5c-0.02-0.02-0.04-0.04-0.07-0.06
			c-0.11-0.1-0.23-0.2-0.35-0.3c-1.29-1.16-2.54-2.37-3.8-3.58c-0.64-0.61-1.29-1.21-1.91-1.84c-0.62-0.62-1.22-1.28-1.84-1.91
			c-0.97-1-1.96-2-2.9-3.02c-32.73,35.08-35.34,89.26-5.39,127.39c0.94,1.16,1.87,2.31,2.85,3.45c0,0,0,0,0,0
			C301.68,318.58,304.99,272.35,335.55,245.74z"/>
		<path class="st0" d="M445.99,356.9c-2.46-2.14-4.72-4.42-6.82-6.79c-2.1,2.37-4.36,4.65-6.82,6.79
			c-3.94,3.44-8.15,6.37-12.55,8.82c4.05,2.83,8.25,5.32,12.56,7.47h13.61c4.32-2.15,8.52-4.64,12.56-7.47
			C454.15,363.27,449.94,360.34,445.99,356.9z"/>
		<path class="st0" d="M499.26,269.98c-8.86,2.53-17.13,7.53-23.63,14.99c-16.48,18.93-15.9,46.85,0.38,65.11
			C495.73,327.72,503.68,298.17,499.26,269.98z"/>
		<path class="st0" d="M395.91,228.6c0.44-0.62,0.91-1.22,1.37-1.83c-16.21-2.68-31.99-8.67-46.32-18.09
			c-3.84,6.61-7.02,13.46-9.56,20.48c1.76,1.57,3.56,3.1,5.41,4.6c0.97,0.79,1.98,1.52,2.96,2.27
			C364.16,228.48,380.39,226.05,395.91,228.6z"/>
		<path class="st0" d="M481.07,226.76c-1.5-2.01-3.05-3.99-4.72-5.9c-1.49-1.71-3.05-3.34-4.63-4.93
			c-10.4,5.02-21.36,8.52-32.54,10.52C453.02,228.93,467.19,229.06,481.07,226.76z"/>
		<path class="st0" d="M482.43,228.6c-16.18,2.65-31.57,10.7-43.26,23.93c0.12,0.13,0.24,0.26,0.36,0.39
			c3.59,4.13,6.63,8.55,9.14,13.16c0.16-0.01,0.31-0.02,0.47-0.03c1.56-0.11,3.12-0.23,4.68-0.38c0.67-0.07,1.34-0.15,2-0.22
			c1.74-0.2,3.47-0.42,5.2-0.68c0.51-0.08,1.02-0.16,1.53-0.24c1.85-0.3,3.7-0.62,5.54-0.99c0.42-0.08,0.84-0.18,1.25-0.26
			c1.9-0.4,3.78-0.82,5.66-1.3c0.41-0.1,0.81-0.21,1.22-0.32c1.85-0.48,3.7-0.99,5.53-1.55c0.48-0.15,0.97-0.3,1.45-0.46
			c1.72-0.54,3.44-1.11,5.14-1.71c0.65-0.23,1.29-0.48,1.94-0.71c1.51-0.56,3.01-1.13,4.5-1.74c0.31-0.13,0.61-0.26,0.92-0.39
			C492.73,245.82,488.31,236.88,482.43,228.6z"/>
		<path class="st0" d="M345.82,205.1c1.69,1.24,3.4,2.43,5.14,3.58c2.18-3.75,4.57-7.41,7.17-10.98
			C353.9,199.84,349.78,202.3,345.82,205.1z"/>
		<path class="st0" d="M372.54,191.81c10.2,10.09,21.74,18.17,34.09,24.12c9.54-9.56,20.64-16.77,32.54-21.58
			C418.02,185.81,394.38,184.86,372.54,191.81z"/>
		<path class="st0" d="M439.17,226.45c-11.18-2-22.14-5.5-32.54-10.52c-1.58,1.59-3.14,3.21-4.63,4.93c-1.67,1.92-3.22,3.9-4.72,5.9
			C411.15,229.06,425.33,228.93,439.17,226.45z"/>
		<path class="st0" d="M411.56,359.28c-3.32-2.89-6.38-5.98-9.21-9.19c-1.38,1.54-2.83,3.04-4.43,4.44
			c-6.23,5.42-13.44,8.97-20.95,10.76c3.41,2.86,6.93,5.49,10.55,7.91h12.8c6.73-1.53,13.29-4.01,19.49-7.47
			C416.98,363.74,414.22,361.6,411.56,359.28z"/>
		<path class="st0" d="M379.09,269.98c0.79-5.01,1.95-9.98,3.52-14.86c-0.59-0.25-1.17-0.53-1.75-0.78
			c-1.21-0.53-2.43-1.05-3.63-1.61c-1.21-0.56-2.41-1.16-3.61-1.76c-0.86-0.43-1.73-0.85-2.59-1.3c-1.56-0.82-3.11-1.68-4.65-2.56
			c-0.49-0.28-0.98-0.54-1.46-0.83c-1.9-1.11-3.78-2.28-5.64-3.48c-0.14-0.09-0.27-0.17-0.41-0.26c-3.12-2.04-6.17-4.21-9.15-6.5
			c-4.5,2.36-8.82,5.23-12.87,8.61c-2.57,11.5-3.52,23.24-2.83,34.85C346.99,268.7,363.91,265.66,379.09,269.98z"/>
		<path class="st0" d="M448.68,266.09c-0.72,0.05-1.44,0.09-2.16,0.12c-1.34,0.07-2.69,0.11-4.03,0.14
			c-1.11,0.03-2.21,0.05-3.32,0.05c-1.11,0-2.21-0.02-3.32-0.05c-1.34-0.03-2.69-0.07-4.03-0.14c-0.72-0.04-1.44-0.08-2.16-0.12
			c-14.7,26.96-11.14,60.71,9.51,84.02C459.82,326.8,463.39,293.04,448.68,266.09z"/>
		<path class="st0" d="M438.81,252.92c0.12-0.13,0.24-0.26,0.36-0.39c-11.69-13.23-27.08-21.28-43.26-23.93
			c-5.88,8.28-10.3,17.22-13.29,26.5c0.31,0.13,0.61,0.26,0.92,0.39c1.49,0.61,2.99,1.18,4.5,1.74c0.65,0.24,1.29,0.49,1.94,0.72
			c1.7,0.6,3.42,1.17,5.14,1.71c0.48,0.15,0.97,0.31,1.45,0.46c1.83,0.55,3.68,1.07,5.53,1.55c0.41,0.11,0.81,0.22,1.22,0.32
			c1.88,0.47,3.77,0.9,5.66,1.3c0.42,0.09,0.84,0.18,1.25,0.26c1.84,0.37,3.69,0.69,5.54,0.99c0.51,0.08,1.02,0.17,1.53,0.24
			c1.73,0.26,3.46,0.48,5.2,0.68c0.67,0.08,1.33,0.15,2,0.22c1.56,0.16,3.12,0.28,4.68,0.38c0.16,0.01,0.31,0.02,0.47,0.03
			C432.19,261.47,435.22,257.05,438.81,252.92z"/>
		<path class="st0" d="M376.97,365.29c-0.58-0.49-1.17-0.94-1.75-1.44c-25.45-22.16-39.31-52.76-41.19-84.34
			c-0.28,0.23-0.58,0.43-0.86,0.68c-20.44,17.8-22.65,48.75-5.01,69.28c0.19,0.22,0.39,0.44,0.59,0.66
			C341.2,364.11,359.88,369.34,376.97,365.29z"/>
		<path class="st0" d="M402.72,284.98c-6.5-7.47-14.77-12.47-23.63-14.99c-4.43,28.19,3.52,57.74,23.25,80.11
			C418.62,331.83,419.2,303.91,402.72,284.98z"/>
	</g>
</g>
</svg>
