<?xml version="1.0" encoding="utf-8"?>
<!-- Generator: Adobe Illustrator 25.2.1, SVG Export Plug-In . SVG Version: 6.00 Build 0)  -->
<svg version="1.1" id="Layer_1" xmlns="http://www.w3.org/2000/svg" xmlns:xlink="http://www.w3.org/1999/xlink" x="0px" y="0px"
	 viewBox="0 0 584.93 373.19" style="enable-background:new 0 0 584.93 373.19;" xml:space="preserve">
<style type="text/css">
	.st0{fill:#F99BC2;}
</style>
<rect x="-0.16" y="-0.92" width="585.32" height="373.67"/>
<g>
	<g>
		<path class="st0" d="M321.68,204.33c-8.49,8.18-21.99,7.93-30.17-0.55c-6.5-6.75-7.67-16.66-3.62-24.56
			c-4.19-8.16-2.77-18.42,4.17-25.12c8.49-8.18,21.99-7.93,30.17,0.55c0.12,0.13,0.24,0.26,0.36,0.39c0.01-0.01,0.03-0.03,0.04-0.04
			c-6.86-8.07-17.08-13.19-28.5-13.19c-20.66,0-37.4,16.75-37.4,37.4c0,20.66,16.75,37.4,37.4,37.4c11.42,0,21.64-5.12,28.5-13.19
			c-0.01-0.01-0.03-0.03-0.04-0.04C322.3,203.71,322,204.03,321.68,204.33z"/>
		<circle class="st0" cx="317.9" cy="160.56" r="7.16"/>
		<circle class="st0" cx="317.57" cy="198.28" r="7.16"/>
		<path class="st0" d="M325.92,179.22c1.18-2.31,1.94-4.83,2.22-7.49c0.57-5.39-0.88-10.69-4.09-15.01
			c-0.18-0.25-0.37-0.49-0.56-0.73c-0.19-0.24-0.39-0.48-0.6-0.71c-3.56-4.04-8.43-6.57-13.83-7.14c-5.7-0.6-11.29,1.05-15.75,4.65
			c-8.02,6.48-10.13,17.59-5.63,26.43c-1.76,3.43-2.56,7.29-2.29,11.24c0.39,5.72,2.99,10.94,7.31,14.7
			c4.06,3.53,9.08,5.27,14.08,5.27c5.67,0,11.31-2.23,15.49-6.59c0.24-0.25,0.48-0.5,0.71-0.77c3.76-4.32,5.62-9.85,5.22-15.57
			C328.01,184.56,327.22,181.76,325.92,179.22z M327.91,171.71c-0.27,2.57-1,5.02-2.12,7.26c-0.3-0.56-0.62-1.11-0.96-1.65
			c1.51-2.36,2.46-5.07,2.73-7.96c0.19-2.05,0.04-4.1-0.44-6.06C327.94,165.99,328.22,168.83,327.91,171.71z M320.15,185.98
			c-0.14,0.12-0.29,0.22-0.44,0.34c-4.31-2.18-9.73-1.27-13.05,2.53c-0.49,0.57-0.91,1.17-1.27,1.8c-0.28-0.02-0.55-0.04-0.83-0.07
			c-2.03-0.21-3.97-0.71-5.81-1.46c0.57-1.71,1.48-3.33,2.73-4.77c0.21-0.24,0.44-0.48,0.66-0.71c2.47,1.17,5.15,1.76,7.83,1.76
			c3.62,0,7.23-1.09,10.32-3.31c0.39,0.27,0.76,0.57,1.12,0.88c0.34,0.29,0.65,0.6,0.96,0.92
			C321.7,184.63,320.95,185.33,320.15,185.98z M322.55,184.05c3.82,4.14,4.75,10.11,2.6,15.14c1.24-3.98,0.12-8.49-3.21-11.4
			c-0.62-0.54-1.29-0.99-1.99-1.37c0.12-0.09,0.24-0.18,0.35-0.27C321.1,185.5,321.85,184.8,322.55,184.05z M319.51,186.46
			c-4.01,3-8.86,4.48-13.86,4.2c0.34-0.58,0.73-1.14,1.18-1.66c2.09-2.4,5.03-3.63,7.99-3.63
			C316.43,185.37,318.04,185.73,319.51,186.46z M305.29,190.86c-2.32,4.35-1.44,9.88,2.43,13.25c2.05,1.78,4.58,2.66,7.1,2.66
			c1.58,0,3.16-0.35,4.61-1.03c-5.11,3.06-11.83,2.66-16.56-1.46c-4.38-3.81-5.83-9.74-4.18-14.95c1.85,0.75,3.82,1.25,5.86,1.47
			C304.79,190.83,305.04,190.85,305.29,190.86z M302.33,183.46c2.39-2.32,5.49-3.71,8.85-3.94c0.33-0.02,0.66-0.03,0.99-0.03
			c2.85,0,5.6,0.85,7.94,2.46C314.83,185.71,308.02,186.11,302.33,183.46z M305.37,167.56c-0.01,0-0.03,0-0.04,0
			c-2.29,0.16-4.49,0.67-6.55,1.5c-0.53-1.77-0.71-3.65-0.51-5.55c0.4-3.75,2.23-7.13,5.17-9.5c2.61-2.11,5.75-3.14,8.87-3.14
			c2.7,0,5.39,0.77,7.71,2.28c-1.17-0.6-2.45-0.99-3.79-1.14c-2.88-0.3-5.69,0.53-7.94,2.35c-2.25,1.82-3.65,4.4-3.96,7.27
			C304.1,163.71,304.47,165.75,305.37,167.56z M305.34,167.79c0.05,0,0.09,0,0.14-0.01c0.33,0.63,0.73,1.23,1.18,1.8
			c2.14,2.64,5.27,4.01,8.43,4.01c1.7,0,3.4-0.41,4.96-1.21c0.23,0.19,0.47,0.38,0.69,0.58c0.65,0.57,1.25,1.17,1.81,1.79
			c-0.42,0.44-0.87,0.86-1.35,1.25c-0.26,0.21-0.52,0.4-0.79,0.59c-5.34-3.95-12.36-4.45-18.23-1.73c-0.3-0.31-0.59-0.63-0.86-0.97
			c-1.13-1.39-1.96-2.95-2.48-4.61C300.89,168.46,303.08,167.95,305.34,167.79z M305.74,167.77c0.37-0.02,0.73-0.03,1.1-0.03
			c4.74,0,9.28,1.57,13.02,4.49c-4.36,2.2-9.82,1.16-13.01-2.79C306.42,168.92,306.05,168.36,305.74,167.77z M320.27,172.27
			c0.56-0.31,1.09-0.66,1.6-1.07c3.43-2.77,4.72-7.23,3.64-11.24c1.89,4.94,0.87,10.64-2.8,14.62c-0.57-0.63-1.18-1.23-1.82-1.8
			C320.69,172.61,320.48,172.44,320.27,172.27z M309.91,173.39c3.63,0,7.24,1.1,10.31,3.35c-2.75,1.86-6.04,2.69-9.39,2.34
			c-3.24-0.34-6.2-1.76-8.47-4.03C304.75,173.94,307.33,173.39,309.91,173.39z M311.06,179.31c-3.27,0.25-6.46,1.62-8.95,4.05
			c-2.04-0.98-3.93-2.37-5.54-4.13c1.63-1.75,3.53-3.12,5.57-4.08C304.59,177.61,307.77,179.02,311.06,179.31z M313.44,179.33
			c2.43-0.19,4.84-0.99,6.97-2.45c0.32,0.24,0.64,0.5,0.96,0.77c0.6,0.52,1.15,1.08,1.67,1.67c-0.64,0.72-1.33,1.39-2.09,2
			c-0.21,0.17-0.42,0.33-0.63,0.48C318.22,180.36,315.85,179.54,313.44,179.33z M321.52,177.47c-0.3-0.26-0.6-0.5-0.91-0.74
			c0.25-0.18,0.5-0.36,0.75-0.55c0.49-0.39,0.94-0.82,1.36-1.26c0.68,0.77,1.29,1.57,1.84,2.41c-0.41,0.63-0.87,1.23-1.37,1.81
			C322.67,178.56,322.12,178,321.52,177.47z M322.87,174.76c3.57-3.86,4.68-9.33,3.1-14.19c1.16,2.75,1.64,5.75,1.35,8.77
			c-0.27,2.82-1.18,5.47-2.64,7.77C324.14,176.29,323.54,175.5,322.87,174.76z M321.73,171.02c-0.52,0.42-1.08,0.78-1.65,1.09
			c-4.11-3.25-9.2-4.85-14.45-4.56c-0.91-1.8-1.3-3.83-1.08-5.88c0.3-2.81,1.67-5.34,3.87-7.12c1.9-1.54,4.22-2.36,6.64-2.36
			c0.38,0,0.76,0.02,1.14,0.06c2.81,0.3,5.34,1.67,7.12,3.87C326.98,160.67,326.27,167.35,321.73,171.02z M313.83,150.73
			c-3.82-0.41-7.56,0.7-10.54,3.11c-4.67,3.77-6.35,9.89-4.72,15.31c-2.13,0.88-4.1,2.1-5.85,3.64c-0.84-2.43-1.17-5.03-0.92-7.64
			c0.45-4.76,2.72-9.01,6.39-11.98c3.12-2.52,6.94-3.86,10.93-3.86c0.7,0,1.41,0.04,2.12,0.12c3,0.35,5.81,1.43,8.24,3.13
			C317.77,151.57,315.86,150.94,313.83,150.73z M298.64,169.37c0.53,1.65,1.36,3.24,2.51,4.67c0.26,0.32,0.54,0.63,0.82,0.92
			c-2.04,0.98-3.93,2.34-5.56,4.09c-0.2-0.23-0.4-0.46-0.6-0.7c-1.31-1.63-2.33-3.43-3.02-5.33
			C294.54,171.48,296.51,170.26,298.64,169.37z M295.63,178.5c0.2,0.25,0.41,0.49,0.62,0.73c-0.09,0.1-0.19,0.2-0.28,0.31
			c-1.51,1.73-2.63,3.66-3.4,5.69c-0.81-0.74-1.58-1.54-2.28-2.41c-0.92-1.14-1.7-2.34-2.35-3.6c0.77-1.49,1.72-2.89,2.85-4.19
			c0.57-0.66,1.18-1.27,1.82-1.84C293.31,175.09,294.32,176.88,295.63,178.5z M296.15,179.69c0.09-0.1,0.18-0.19,0.26-0.29
			c1.61,1.76,3.5,3.14,5.53,4.13c-0.21,0.21-0.42,0.43-0.62,0.66c-1.27,1.46-2.19,3.11-2.78,4.84c-2.11-0.89-4.06-2.12-5.78-3.65
			C293.51,183.35,294.64,181.42,296.15,179.69z M298.47,189.25c-1.69,5.3-0.2,11.33,4.25,15.21c2.72,2.37,6.08,3.53,9.42,3.53
			c2.31,0,4.61-0.56,6.69-1.64c-6.54,4.18-15.22,3.85-21.24-1.39c-5.59-4.87-7.3-12.6-4.91-19.33
			C294.41,187.14,296.36,188.37,298.47,189.25z M307.87,203.94c-3.81-3.32-4.66-8.79-2.34-13.05c0.44,0.03,0.88,0.04,1.31,0.04
			c4.66,0,9.15-1.51,12.89-4.34c0.72,0.38,1.4,0.83,2.04,1.38c4.4,3.83,4.87,10.54,1.03,14.94S312.27,207.77,307.87,203.94z
			 M322.7,183.88c0.7-0.77,1.34-1.58,1.91-2.44c3.2,5.06,3.59,11.52,1.04,17.06C327.44,193.55,326.4,187.87,322.7,183.88z
			 M322.54,183.71c-0.3-0.32-0.62-0.63-0.96-0.92c-0.35-0.3-0.71-0.59-1.08-0.85c0.19-0.14,0.39-0.29,0.58-0.45
			c0.76-0.62,1.46-1.29,2.1-2.01c0.47,0.56,0.9,1.14,1.3,1.74C323.9,182.1,323.25,182.93,322.54,183.71z M323.34,179.31
			c0.49-0.56,0.94-1.15,1.35-1.77c0.35,0.55,0.67,1.11,0.97,1.69c-0.32,0.61-0.66,1.21-1.04,1.79
			C324.23,180.43,323.8,179.86,323.34,179.31z M293.46,152.96c3.92-3.17,8.64-4.71,13.32-4.71c3.52,0,7.03,0.87,10.17,2.58
			c-1.78-0.84-3.69-1.4-5.69-1.63c-4.81-0.57-9.5,0.78-13.23,3.79c-3.72,3.01-6.02,7.32-6.47,12.14c-0.25,2.68,0.08,5.34,0.96,7.83
			c-0.67,0.6-1.31,1.24-1.9,1.92c-1.1,1.27-2.04,2.64-2.8,4.08C283.46,170.24,285.58,159.34,293.46,152.96z M292.87,204.97
			c-4.28-3.72-6.84-8.89-7.24-14.54c-0.27-3.85,0.5-7.61,2.19-10.97c0.64,1.21,1.4,2.39,2.3,3.49c0.73,0.9,1.53,1.73,2.37,2.5
			c-2.46,6.84-0.74,14.71,4.95,19.67c3.33,2.9,7.46,4.32,11.61,4.32c2.5,0,5-0.52,7.34-1.54
			C308.91,211.67,299.56,210.81,292.87,204.97z M326.89,195.82c1.37-4.94,0.63-10.28-2.13-14.59c0.37-0.57,0.72-1.15,1.03-1.75
			C328.31,184.55,328.71,190.46,326.89,195.82z"/>
	</g>
	<g>
		<path class="st0" d="M265.04,225.13c0-0.91,0.3-1.71,1.52-1.71c0.89,0,1.3,0.45,1.3,1.18v0.65h-0.85v-0.45
			c0-0.41-0.14-0.67-0.52-0.67c-0.47,0-0.56,0.33-0.56,1.12v3.19c0,0.77,0.24,0.9,0.53,0.9c0.33,0,0.55-0.23,0.55-0.77v-0.45h0.85
			v0.72c0,0.68-0.28,1.21-1.32,1.21c-1.13,0-1.5-0.6-1.5-1.61V225.13z"/>
		<path class="st0" d="M270.02,223.47h0.9v2.79h1.2v-2.79h0.9v6.5h-0.9v-2.95h-1.2v2.95h-0.9V223.47z"/>
		<path class="st0" d="M275.39,223.47h0.9v5.74h1.51v0.76h-2.41V223.47z"/>
		<path class="st0" d="M279.91,225.13c0-0.91,0.3-1.71,1.52-1.71c1.16,0,1.53,0.6,1.53,1.61v3.29c0,0.91-0.3,1.71-1.53,1.71
			c-1.15,0-1.52-0.6-1.52-1.61V225.13z M280.81,228.47c0,0.56,0.25,0.85,0.62,0.85c0.38,0,0.63-0.3,0.63-0.85v-3.41
			c0-0.64-0.22-0.94-0.63-0.94c-0.4,0-0.62,0.3-0.62,0.94V228.47z"/>
		<path class="st0" d="M285.31,223.47h2.45v0.76h-1.55v2.03h1.46v0.76h-1.46v2.2h1.55v0.76h-2.45V223.47z"/>
		<path class="st0" d="M293.23,223.47h1.45c1.46,0,1.58,0.49,1.58,2.38v1.94c0,1.67-0.3,2.19-1.72,2.19h-1.31V223.47z
			 M294.14,229.21h0.43c0.67,0,0.79-0.35,0.79-1.47v-2.23c0-0.96-0.1-1.29-0.86-1.29h-0.36V229.21z"/>
		<path class="st0" d="M298.61,223.47h2.45v0.76h-1.55v2.03h1.46v0.76h-1.46v2.2h1.55v0.76h-2.45V223.47z"/>
		<path class="st0" d="M303.05,228.09h0.9v0.53c0,0.43,0.16,0.7,0.52,0.7c0.48,0,0.59-0.32,0.59-0.75c0-0.55-0.03-0.73-0.96-1.66
			c-0.58-0.58-1.05-1.1-1.05-1.98c0-1.06,0.5-1.52,1.48-1.52c0.49,0,0.84,0.16,1.05,0.36c0.15,0.14,0.26,0.37,0.26,0.83v0.61H305
			v-0.51c0-0.37-0.15-0.58-0.5-0.58c-0.37,0-0.54,0.21-0.54,0.71c0,0.44,0.09,0.71,0.92,1.58c0.88,0.92,1.04,1.23,1.04,2.02
			c0,1.02-0.4,1.6-1.47,1.6c-0.83,0-1.4-0.35-1.4-1.16V228.09z"/>
		<path class="st0" d="M308.17,223.47h0.9v6.5h-0.9V223.47z"/>
		<path class="st0" d="M313.51,225.19v-0.33c0-0.46-0.22-0.74-0.58-0.74c-0.41,0-0.62,0.38-0.62,1.07v3.28
			c0,0.52,0.25,0.85,0.62,0.85c0.25,0,0.46-0.04,0.58-0.06v-1.91h-0.59v-0.76h1.49v3.27c-0.35,0.08-0.97,0.16-1.49,0.16
			c-1.14,0-1.51-0.6-1.51-1.61v-3.29c0-1.22,0.37-1.71,1.53-1.71c0.96,0,1.47,0.35,1.47,1.18v0.59H313.51z"/>
		<path class="st0" d="M316.79,223.47h1.24l1.06,5.4h0.02v-5.4h0.85v6.5h-1.3l-1.06-5.55h-0.02v5.55h-0.79V223.47z"/>
	</g>
</g>
</svg>
