<?xml version="1.0" encoding="utf-8"?>
<!-- Generator: Adobe Illustrator 24.3.0, SVG Export Plug-In . SVG Version: 6.00 Build 0)  -->
<svg version="1.1" id="Layer_1" xmlns="http://www.w3.org/2000/svg" xmlns:xlink="http://www.w3.org/1999/xlink" x="0px" y="0px"
	 viewBox="0 0 733.7 1024" style="enable-background:new 0 0 733.7 1024;" xml:space="preserve">
<style type="text/css">
	.st0{fill:none;stroke:#000000;stroke-width:0.4;stroke-miterlimit:10;}
</style>
<path class="st0" d="M366.2,313.9C163.9,313.9,0,477.9,0,680.1c0,202.2,163.9,366.1,366.2,366.1c202.2,0,366.2-163.9,366.2-366.1
	C732.3,477.9,568.4,313.9,366.2,313.9z"/>
<path class="st0" d="M122.4,475.2c-131.1,106-149.5,300.8-41,435c108.5,134.2,302.8,157.1,433.9,51.1c131.1-106,149.5-300.8,41-435
	C447.8,392.1,253.5,369.2,122.4,475.2z"/>
<path class="st0" d="M271.5,512C136.5,512,27,621.5,27,756.6c0,135,109.5,244.5,244.5,244.5c135,0,244.5-109.5,244.5-244.5
	C516,621.5,406.6,512,271.5,512z"/>
<path class="st0" d="M224.2,611.1c-101.5,0-183.7,82.2-183.7,183.7s82.2,183.7,183.7,183.7s183.7-82.2,183.7-183.7
	S325.7,611.1,224.2,611.1z"/>
<path class="st0" d="M176.9,710.2c-67.8,0-122.8,55-122.8,122.8c0,67.8,55,122.8,122.8,122.8s122.8-55,122.8-122.8
	C299.7,765.2,244.7,710.2,176.9,710.2z"/>
<path class="st0" d="M366.2-19.4C163.9-19.4,0,144.5,0,346.8s163.9,366.2,366.2,366.2c202.2,0,366.2-163.9,366.2-366.2
	S568.4-19.4,366.2-19.4z"/>
<path class="st0" d="M90,106.3C-23.3,236.4-12.1,431.7,115,542.5c127.2,110.7,322.1,95,435.5-35.2c113.4-130.2,102.2-325.5-25-436.2
	S203.4-23.9,90,106.3z"/>
<path class="st0" d="M274.4,22.3c-135,0-244.5,109.5-244.5,244.5s109.5,244.5,244.5,244.5s244.5-109.5,244.5-244.5
	S409.4,22.3,274.4,22.3z"/>
<path class="st0" d="M228.5,43.2c-101.5,0-183.7,82.2-183.7,183.7s82.2,183.7,183.7,183.7s183.7-82.2,183.7-183.7
	S330,43.2,228.5,43.2z"/>
<path class="st0" d="M182.7,64.2c-67.8,0-122.8,55-122.8,122.8s55,122.8,122.8,122.8s122.8-55,122.8-122.8S250.5,64.2,182.7,64.2z"
	/>
</svg>
