<?xml version="1.0" encoding="utf-8"?>
<!-- Generator: Adobe Illustrator 24.3.0, SVG Export Plug-In . SVG Version: 6.00 Build 0)  -->
<svg version="1.1" id="Layer_1" xmlns="http://www.w3.org/2000/svg" xmlns:xlink="http://www.w3.org/1999/xlink" x="0px" y="0px"
	 viewBox="0 0 736.9 1070.3" style="enable-background:new 0 0 736.9 1070.3;" xml:space="preserve">
<style type="text/css">
	.st0{fill:none;stroke:#000000;stroke-width:0.3;stroke-miterlimit:10;}
</style>
<path class="st0" d="M369.4,336.1c-202.3,0-366.2,164-366.2,366.2s163.9,366.1,366.2,366.1c202.2,0,366.2-163.9,366.2-366.1
	C735.5,500.1,571.6,336.1,369.4,336.1z"/>
<path class="st0" d="M125.6,497.4c-131.1,106-149.5,300.8-41,435s302.8,157.1,433.9,51.1s149.5-300.8,41-435
	S256.7,391.4,125.6,497.4z"/>
<path class="st0" d="M274.7,534.2c-135,0-244.5,109.5-244.5,244.6c0,135,109.5,244.5,244.5,244.5s244.5-109.5,244.5-244.5
	C519.2,643.7,409.8,534.2,274.7,534.2z"/>
<path class="st0" d="M227.4,633.3c-101.5,0-183.7,82.2-183.7,183.7s82.2,183.7,183.7,183.7S411.1,918.5,411.1,817
	S328.9,633.3,227.4,633.3z"/>
<path class="st0" d="M180.1,732.4c-67.8,0-122.8,55-122.8,122.8S112.3,978,180.1,978s122.8-55,122.8-122.8S247.9,732.4,180.1,732.4z
	"/>
<path class="st0" d="M369.4,2.8C167.1,2.8,3.2,166.7,3.2,369s163.9,366.2,366.2,366.2c202.2,0,366.2-163.9,366.2-366.2
	S571.6,2.8,369.4,2.8z"/>
<path class="st0" d="M93.2,128.5c-113.3,130.1-102.1,325.4,25,436.2c127.2,110.7,322.1,95,435.5-35.2s102.2-325.5-25-436.2
	S206.6-1.7,93.2,128.5z"/>
<path class="st0" d="M277.6,44.5C142.6,44.5,33.1,154,33.1,289s109.5,244.5,244.5,244.5S522.1,424,522.1,289S412.6,44.5,277.6,44.5z
	"/>
<path class="st0" d="M231.7,65.4C130.2,65.4,48,147.6,48,249.1s82.2,183.7,183.7,183.7s183.7-82.2,183.7-183.7
	S333.2,65.4,231.7,65.4z"/>
<path class="st0" d="M185.9,86.4c-67.8,0-122.8,55-122.8,122.8S118.1,332,185.9,332s122.8-55,122.8-122.8S253.7,86.4,185.9,86.4z"/>
</svg>
