<svg width="88" height="92" viewBox="0 0 88 92" fill="none" xmlns="http://www.w3.org/2000/svg">
<g clip-path="url(#clip0)">
<path d="M85.1241 45.9943C86.5706 43.1537 87.5065 40.0523 87.8525 36.7921C88.5559 30.1639 86.7748 23.6492 82.8269 18.3252C82.6056 18.019 82.3731 17.7185 82.1348 17.4236C81.8966 17.1288 81.647 16.8396 81.3974 16.5561C81.2613 16.4031 81.1252 16.2613 80.989 16.1139C72.543 6.25391 60.0186 0 46.0193 0C20.6018 0 0 20.5931 0 46C0 71.4069 20.6018 92 46.0193 92C60.0242 92 72.56 85.7404 81.0004 75.8748C81.1706 75.6933 81.3464 75.5119 81.5109 75.3191C86.1395 70.0064 88.4254 63.2025 87.9376 56.1718C87.688 52.5658 86.7181 49.1241 85.1241 45.9943ZM87.5689 36.7637C87.2342 39.9219 86.3437 42.9326 84.9596 45.6938C84.5966 45.0021 84.1996 44.3274 83.7741 43.6697C85.6347 40.7723 86.7975 37.4384 87.1321 33.8777C87.3704 31.3489 87.1775 28.8428 86.5933 26.4275C87.6029 29.7274 87.9433 33.2257 87.5689 36.7637ZM68.4022 28.582C71.4596 32.3639 77.0071 32.9535 80.7905 29.8918C83.6266 27.6011 84.6647 23.91 83.7231 20.6158C85.9863 25.8491 84.6136 32.1597 79.968 35.9132C79.3214 36.4349 78.6407 36.8771 77.9317 37.257C72.872 33.2654 66.6154 31.2866 60.149 31.6495C59.0259 29.4325 58.5551 26.9434 58.8217 24.4146C59.1904 20.956 60.8807 17.8489 63.5864 15.6603C65.9291 13.7665 68.7823 12.763 71.7489 12.763C72.214 12.763 72.6791 12.7857 73.1442 12.8367C75.5493 13.0918 77.7785 13.999 79.6504 15.4278C76.5873 13.6588 72.6224 13.8403 69.7068 16.1989C65.9348 19.255 65.3448 24.8002 68.4022 28.582ZM38.2483 46.3005C39.0367 47.7974 39.9727 49.2375 41.0788 50.5983C41.975 51.7096 42.9506 52.7302 43.9943 53.6657C40.9596 62.0742 43.0811 71.7527 50.0807 77.8479C54.1761 81.4143 59.2641 83.1606 64.3635 83.1606C67.4379 83.1606 70.518 82.5199 73.3938 81.2725C64.1934 85.9105 52.6956 84.8446 44.4538 77.6721C39.1956 73.0909 36.0304 66.7405 35.554 59.7836C35.225 55.0549 36.1666 50.4282 38.2483 46.3005ZM59.8314 31.6665C59.8144 31.6665 59.7973 31.6665 59.7803 31.6665C56.9669 31.8592 54.2555 32.4943 51.7143 33.5149C51.062 31.3376 50.8408 29.0243 51.0904 26.694C51.5782 22.0786 53.8414 17.9283 57.449 15.0083C60.6595 12.4114 64.5224 11.1527 68.3625 11.1527C71.6865 11.1527 74.9934 12.1053 77.8409 13.9537C76.4001 13.2166 74.8289 12.7346 73.1726 12.5589C69.6331 12.1846 66.1673 13.2109 63.3992 15.4448C60.6312 17.6788 58.9068 20.8539 58.5324 24.392C58.2715 26.9264 58.731 29.4268 59.8314 31.6665ZM48.0784 44.9341C46.4618 42.9326 45.2195 40.7213 44.3687 38.3796C46.5185 36.4859 48.9406 34.9777 51.5498 33.8891C52.1965 35.9246 53.2175 37.875 54.6412 39.6327C54.9645 40.0296 55.3049 40.4038 55.6509 40.7667C53.1437 41.9687 50.8181 43.647 48.8101 45.7959C48.5605 45.5181 48.3166 45.2346 48.0784 44.9341ZM48.6229 46.0057C48.5095 46.1304 48.3904 46.2551 48.2769 46.3856C46.4221 48.5118 45.038 50.8875 44.1021 53.3766C43.1038 52.4694 42.1622 51.4828 41.3 50.4112C40.1655 49.0107 39.2069 47.5309 38.4071 45.9887C39.3544 44.1629 40.5286 42.4336 41.9126 40.8404C42.616 40.0353 43.3647 39.2812 44.1475 38.5781C45.004 40.9084 46.2519 43.114 47.8628 45.1098C48.1067 45.4217 48.362 45.7165 48.6229 46.0057ZM70.2514 10.9599C65.5547 10.461 60.9488 11.8218 57.2788 14.7871C51.5385 19.4251 49.4681 26.9491 51.4704 33.6169C48.8555 34.6999 46.4277 36.2024 44.2723 38.0905C43.2342 35.1024 42.8372 31.9103 43.1378 28.6898C43.688 22.8384 46.4788 17.6051 50.9996 13.9593C54.8398 10.8579 59.5421 9.21361 64.4486 9.21361C65.3108 9.21361 66.1843 9.26464 67.0579 9.3667C70.7449 9.80328 74.205 11.13 77.2 13.2109C75.0899 11.9975 72.7358 11.2264 70.2514 10.9599ZM67.0862 9.0832C61.17 8.3858 55.39 10.0414 50.8124 13.7382C46.2349 17.435 43.4044 22.7364 42.8485 28.6671C42.5365 31.967 42.9506 35.2385 44.034 38.3003C43.2115 39.0373 42.4288 39.8198 41.6914 40.6646C40.3357 42.2182 39.1899 43.9078 38.2426 45.6882C32.8766 34.9664 35.4745 21.557 45.1798 13.7155C50.0013 9.82029 55.804 7.92654 61.5728 7.92654C65.9064 7.92654 70.2174 8.99815 74.0802 11.096C71.8964 10.0584 69.5423 9.37237 67.0862 9.0832ZM50.2679 77.6381C43.3874 71.645 41.283 62.1479 44.2212 53.8698C46.354 55.7409 48.7534 57.2491 51.3513 58.3377C49.2809 64.8525 51.1017 72.2744 56.5755 77.0371C59.9165 79.9458 64.0516 81.3746 68.1696 81.3746C71.0115 81.3746 73.8419 80.6942 76.4002 79.3504C68.3455 84.493 57.6759 84.0848 50.2679 77.6381ZM56.7627 76.8216C51.3797 72.1383 49.5872 64.8411 51.6179 58.4398C53.8925 59.364 56.3145 59.982 58.8217 60.2485C59.128 60.2825 59.4286 60.2995 59.7349 60.3222C56.8818 65.6689 57.9709 72.4728 62.7299 76.6119C65.2484 78.8004 68.3625 79.8777 71.4653 79.8777C73.4109 79.8777 75.3508 79.4525 77.1319 78.6133C70.8413 82.3838 62.5824 81.8905 56.7627 76.8216ZM51.4364 58.0656C48.8441 56.977 46.4448 55.4631 44.3233 53.5807C45.2479 51.0859 46.6263 48.7045 48.4868 46.5727C48.5946 46.4536 48.7023 46.3402 48.8101 46.2211C50.7954 48.3814 53.1097 50.0767 55.6112 51.3014C55.3503 51.5622 55.095 51.8343 54.8454 52.1178C53.2855 53.9095 52.1568 55.9394 51.4364 58.0656ZM49.0086 46.0113C51.0166 43.8568 53.3479 42.1785 55.8608 40.9878C58.8784 44.0212 62.7866 45.7562 66.831 46.1134C62.8037 46.4196 58.8784 48.0979 55.8211 51.0916C53.3139 49.8782 50.9939 48.1772 49.0086 46.0113ZM56.1274 40.8574C59.0713 39.5136 62.2478 38.8219 65.4186 38.8219C69.8827 38.8219 74.3298 40.177 78.1018 42.9383C74.7155 45.2289 70.6711 46.2495 66.553 45.8129C62.5654 45.3933 58.9295 43.647 56.1274 40.8574ZM66.9841 46.3742C67.3925 46.3459 67.8009 46.3345 68.2094 46.3345C71.7205 46.3345 75.0955 47.3835 77.9714 49.3566C71.4766 53.9889 63.0986 54.4822 56.099 51.222C59.0429 48.3644 62.849 46.6577 66.9841 46.3742ZM69.7636 46.1304C72.7585 45.8979 75.7195 44.9057 78.3401 43.1197C78.7371 43.4202 79.1342 43.732 79.5142 44.0666C80.2516 44.7129 80.9323 45.399 81.5619 46.1191C80.7792 46.9979 79.9226 47.8257 78.9924 48.5798C78.7371 48.7839 78.4762 48.9824 78.2153 49.1752C75.6457 47.4005 72.7302 46.3912 69.7636 46.1304ZM79.7014 43.8511C79.3327 43.5336 78.9584 43.2331 78.5783 42.9439C78.8903 42.7228 79.1966 42.5073 79.4972 42.2635C80.0985 41.7759 80.6544 41.26 81.1762 40.7156C82.01 41.6568 82.7645 42.6434 83.4395 43.6753C82.929 44.4521 82.3674 45.1949 81.7548 45.9036C81.1195 45.1835 80.4445 44.4975 79.7014 43.8511ZM79.3157 42.0481C78.9981 42.3032 78.6747 42.5414 78.3457 42.7738C71.7716 37.9204 63.144 37.3024 55.9175 40.6476C55.5488 40.2677 55.1971 39.8708 54.8624 39.4569C53.4784 37.7446 52.4517 35.8225 51.8051 33.787C54.3236 32.7721 57.0122 32.1427 59.803 31.95C59.8597 31.9443 59.9165 31.9443 59.9675 31.9386C60.3759 32.7154 60.8581 33.4525 61.4253 34.1499C64.0516 37.3987 67.9031 39.0884 71.7886 39.0884C73.876 39.0884 75.9747 38.5894 77.8976 37.5915C78.1869 37.824 78.4705 38.0565 78.7485 38.3003C79.5483 38.9977 80.2857 39.7347 80.9834 40.5002C80.4672 41.0445 79.917 41.5661 79.3157 42.0481ZM60.2908 31.9216C60.7446 31.8989 61.1927 31.8819 61.6408 31.8819C67.4663 31.8819 73.0535 33.8097 77.6537 37.4044C72.2934 40.1146 65.5717 38.8276 61.6465 33.9741C61.1247 33.3277 60.6709 32.6417 60.2908 31.9216ZM80.626 62.8C76.956 59.6078 71.3915 59.9933 68.198 63.6561C65.0045 67.3245 65.3902 72.8867 69.0545 76.0789C71.8793 78.5396 75.8272 78.8685 78.9584 77.2129C74.1709 80.5808 67.523 80.405 62.9114 76.3964C58.2204 72.3141 57.1711 65.5896 60.0356 60.3449C60.5744 60.3789 61.1133 60.3959 61.6522 60.3959C67.3812 60.3959 72.906 58.5418 77.5176 55.0549C78.3968 55.5141 79.2476 56.0754 80.0247 56.7558C84.5342 60.6794 85.6687 67.041 83.2126 72.1837C84.2846 68.9235 83.3771 65.1983 80.626 62.8ZM60.1887 60.0727C60.6028 59.3583 61.085 58.6723 61.6465 58.0259C64.2217 55.0719 67.8407 53.5637 71.4823 53.5637C73.4506 53.5637 75.4245 54.0116 77.2396 54.9131C72.3047 58.6042 66.3318 60.4129 60.1887 60.0727ZM77.4779 54.7203C72.1686 52.0328 65.5093 53.1554 61.431 57.8388C60.824 58.5362 60.3078 59.2733 59.8711 60.05C59.5307 60.0274 59.1904 60.0047 58.8501 59.965C56.3599 59.6985 53.9605 59.0862 51.703 58.1676C52.4063 56.0698 53.5238 54.0683 55.0666 52.2993C55.3276 51.9988 55.6055 51.7096 55.8835 51.4318C58.9238 52.8663 62.2251 53.5977 65.5207 53.5977C69.9678 53.5977 74.4148 52.2596 78.2153 49.521C78.6918 49.8555 79.1512 50.2184 79.5993 50.604C80.0134 50.9668 80.4048 51.3411 80.7735 51.7323C79.9226 52.6451 79.0037 53.507 78.0168 54.3064C77.8409 54.4538 77.6594 54.5843 77.4779 54.7203ZM79.7865 50.3942C79.3554 50.02 78.913 49.6741 78.4592 49.3509C78.6974 49.1752 78.9357 48.9937 79.1682 48.8009C80.1042 48.0412 80.9663 47.219 81.7491 46.3345C82.3334 47.0206 82.8609 47.735 83.343 48.4721C82.6283 49.5437 81.8342 50.5643 80.9607 51.5225C80.592 51.1313 80.2006 50.7514 79.7865 50.3942ZM81.942 46.1191C82.5433 45.4273 83.0991 44.7016 83.604 43.9418C84.0351 44.6165 84.4321 45.3083 84.7952 46.017C84.4038 46.7711 83.9783 47.5025 83.5189 48.2113C83.0424 47.4855 82.5149 46.7881 81.942 46.1191ZM86.8542 33.8437C86.5252 37.3137 85.4021 40.5682 83.604 43.4032C82.929 42.3939 82.1859 41.4244 81.3691 40.5059C85.7594 35.7601 87.1265 29.0356 85.1865 23.0539C86.6216 26.4388 87.2059 30.1242 86.8542 33.8437ZM81.1819 40.2961C80.4785 39.525 79.7355 38.7822 78.9357 38.0905C78.6861 37.875 78.4308 37.6652 78.1699 37.4554C78.8563 37.0812 79.5142 36.639 80.1439 36.1344C84.3641 32.7211 85.9466 27.2439 84.625 22.3168C86.9449 28.3893 85.6914 35.4086 81.1819 40.2961ZM80.2119 56.546C79.4462 55.8827 78.6237 55.327 77.7615 54.8677C77.9033 54.7543 78.0508 54.6466 78.1926 54.5332C79.1852 53.7281 80.1098 52.8606 80.9664 51.9421C85.663 57.0337 86.8031 64.3762 84.1599 70.5564C85.6914 65.6689 84.3187 60.1181 80.2119 56.546ZM81.1649 51.7323C82.0271 50.7854 82.8098 49.7875 83.5189 48.7386C87.4555 54.9585 87.9376 62.902 84.8008 69.7116C86.9847 63.6278 85.7084 56.6424 81.1649 51.7323ZM86.3097 66.4174C88 60.3392 87.0924 53.7791 83.689 48.4721C84.1485 47.7747 84.5683 47.0603 84.9596 46.3232C88.0624 52.5544 88.5502 59.8232 86.3097 66.4174Z" fill="black"/>
</g>
<defs>
<clipPath id="clip0">
<rect width="88" height="92" fill="white"/>
</clipPath>
</defs>
</svg>
