<?xml version="1.0" encoding="utf-8"?>
<!-- Generator: Adobe Illustrator 24.3.0, SVG Export Plug-In . SVG Version: 6.00 Build 0)  -->
<svg version="1.1" id="Layer_1" xmlns="http://www.w3.org/2000/svg" xmlns:xlink="http://www.w3.org/1999/xlink" x="0px" y="0px"
	 viewBox="0 0 32.6 22" style="enable-background:new 0 0 32.6 22;" xml:space="preserve">
<path d="M3.9,22h24.8c2.7,0,3.9-1.1,3.9-3.7V3.7c0-2.5-1.2-3.7-3.9-3.7H3.9C1.2,0,0,1.1,0,3.7v14.6C0,20.9,1.2,22,3.9,22z M3.1,20.2
	l8.4-8l1.4,1.4c0.9,0.9,2.2,1.9,3.4,1.9s2.5-1,3.4-1.9l1.4-1.4l8.4,8H3.1z M30.8,3V19l-8.2-8L30.8,3z M29.5,1.8L17.5,13.3
	c-0.6,0.6-1.6,0.6-2.3,0L3.1,1.8H29.5z M1.9,3l8.4,8l-8.4,8V3z"/>
</svg>
