<?xml version="1.0" encoding="utf-8"?>
<!-- Generator: Adobe Illustrator 24.3.0, SVG Export Plug-In . SVG Version: 6.00 Build 0)  -->
<svg version="1.1" id="Layer_1" xmlns="http://www.w3.org/2000/svg" xmlns:xlink="http://www.w3.org/1999/xlink" x="0px" y="0px"
	 viewBox="0 0 625.48 339.53" style="enable-background:new 0 0 625.48 339.53;" xml:space="preserve">
<style type="text/css">
	.st0{fill:#FFCE00;}
</style>
<path d="M459.62,0v73.93h47.97c0-0.01,0-0.02,0-0.03c0-14.3,11.6-25.9,25.9-25.9c0.02,0,0.04,0,0.06,0v-14.8c-0.01,0-0.02,0-0.03,0
	c-6.08,0-11-4.93-11-11c0-6.08,4.93-11,11-11c0.01,0,0.02,0,0.03,0V0H459.62z"/>
<path d="M625.48,33.21c-6.03-0.05-10.91-4.96-10.91-11c0-6.05,4.88-10.95,10.91-11V0h-73.93v73.93h73.93V33.21z M599.49,59.04
	c-6.08,0-11-4.93-11-11s4.93-11,11-11c6.08,0,11,4.93,11,11S605.56,59.04,599.49,59.04z"/>
<path class="st0" d="M20.36,161.95c0-9.19,7.45-16.65,16.65-16.65s16.65,7.45,16.65,16.65c0,0.02,0,0.03,0,0.05h20.28V88.07H53.66
	c0,9.19-7.45,16.65-16.65,16.65s-16.65-7.45-16.65-16.65H0V162h20.36C20.36,161.98,20.36,161.97,20.36,161.95z"/>
<path d="M20.32,73.92c0-9.2,7.45-16.65,16.65-16.65c9.2,0,16.65,7.45,16.65,16.65c0,0.01,0,0.01,0,0.02h20.32V0H0v73.94h20.32
	C20.32,73.93,20.32,73.92,20.32,73.92z M36.97,11.12c6.08,0,11,4.93,11,11s-4.93,11-11,11s-11-4.93-11-11S30.89,11.12,36.97,11.12z"
	/>
<path d="M165.97,0H92.04v73.94h73.94V0z M143.8,62.76c-6.08,0-11-4.93-11-11c0-6.08,4.93-11,11-11c6.08,0,11,4.93,11,11
	C154.8,57.83,149.88,62.76,143.8,62.76z M143.8,33.12c-6.08,0-11-4.93-11-11s4.93-11,11-11c6.08,0,11,4.93,11,11
	S149.88,33.12,143.8,33.12z"/>
<path class="st0" d="M257.87,53.61C257.87,53.61,257.87,53.61,257.87,53.61c-9.2,0-16.65-7.45-16.65-16.65s7.45-16.65,16.65-16.65
	c0,0,0,0,0,0V0h-73.94v73.94h73.94V53.61z"/>
<path d="M165.86,224.18v-48.05H91.92v73.94h48.04C139.97,235.77,151.56,224.18,165.86,224.18z M133.29,198.31
	c0-6.13,4.97-11.09,11.09-11.09s11.09,4.97,11.09,11.09s-4.97,11.09-11.09,11.09S133.29,204.43,133.29,198.31z"/>
<path class="st0" d="M441.66,62.81c-0.01,0-0.02,0-0.03,0c-6.08,0-11-4.93-11-11s4.93-11,11-11c0.01,0,0.02,0,0.03,0v-7.59
	c-0.01,0-0.02,0-0.03,0c-6.08,0-11-4.93-11-11c0-6.08,4.93-11,11-11c0.01,0,0.02,0,0.03,0V0h-73.93v73.93h73.93V62.81z"/>
<path d="M533.55,88.06h-25.87c0,6.13-4.97,11.09-11.09,11.09s-11.09-4.97-11.09-11.09h-25.88V162h7.52
	c0-6.12,4.97-11.08,11.09-11.08c6.12,0,11.09,4.96,11.09,11.08h14.45c0-6.12,4.97-11.08,11.09-11.08c6.12,0,11.09,4.96,11.09,11.08
	h7.6V88.06z"/>
<path d="M607,99.15c-6.13,0-11.09-4.97-11.09-11.09h-44.36V162h7.37c0-6.12,4.97-11.08,11.09-11.08s11.09,4.96,11.09,11.08h44.38
	V88.06h-7.39C618.09,94.19,613.12,99.15,607,99.15z"/>
<path d="M73.94,176.13H0v73.94h73.94V176.13z M36.97,224.19c-6.13,0-11.09-4.97-11.09-11.09s4.97-11.09,11.09-11.09
	s11.09,4.97,11.09,11.09S43.09,224.19,36.97,224.19z"/>
<path d="M147.29,276.67c-6.12,0-11.09-4.96-11.09-11.08h-14.45c0,6.12-4.97,11.08-11.09,11.08s-11.09-4.96-11.09-11.08h-7.6v73.94
	h25.87c0-6.13,4.97-11.09,11.09-11.09c6.13,0,11.09,4.97,11.09,11.09h25.88v-73.94h-7.52C158.38,271.71,153.41,276.67,147.29,276.67
	z"/>
<path d="M349.7,322.66v-57.07h-20.24c0,0,0,0,0,0c0,9.16-7.42,16.58-16.58,16.58s-16.58-7.42-16.58-16.58c0,0,0,0,0,0h-20.24v57.06
	c0,0,0.01,0,0.01,0c9.16,0,16.58,7.43,16.58,16.58h40.68C333.33,330.15,340.64,322.77,349.7,322.66z"/>
<path d="M209.75,88.06c-0.01,5.02-1.44,9.7-3.92,13.67c-4.58,7.33-12.71,12.2-21.98,12.2v35.86V162h73.94v-12.2v-48.06V88.06H209.75
	z"/>
<path d="M419.68,101.73c-2.47-3.97-3.9-8.65-3.91-13.67h-48.04v13.67v48.06V162h73.94v-12.2v-35.84
	C432.38,113.96,424.25,109.07,419.68,101.73z"/>
<path d="M329.38,88.06c0,0.03,0,0.06,0,0.09c0,5.61-2.77,10.56-7.02,13.58c-2.72,1.93-6.04,3.07-9.63,3.07s-6.91-1.14-9.63-3.07
	c-4.25-3.02-7.02-7.97-7.02-13.58c0-0.03,0-0.06,0-0.09h-20.31v13.67v48.06V162h20.31c0-4.82,2.06-9.16,5.34-12.2
	c2.97-2.75,6.94-4.44,11.31-4.44c4.37,0,8.34,1.68,11.31,4.44c3.28,3.04,5.33,7.38,5.34,12.2h20.33v-12.2v-10.07c0,0,0,0-0.01,0
	c-6.08,0-11-4.93-11-11c0-6.08,4.93-11,11-11c0,0,0,0,0.01,0v-15.99V88.06H329.38z"/>
<polygon points="91.92,88.06 91.92,101.73 91.92,149.8 91.92,162 165.86,162 165.86,149.8 165.86,101.73 165.86,88.06 "/>
<path d="M275.77,176.13v73.94h18.47c0-9.2,7.45-16.65,16.65-16.65c9.2,0,16.65,7.45,16.65,16.65h22.16v-11.08c0,0-0.01,0-0.01,0
	c-6.13,0-11.09-4.97-11.09-11.09c0-6.13,4.97-11.09,11.09-11.09c0,0,0.01,0,0.01,0v-40.67H275.77z M331.22,206.49
	c-6.13,0-11.09-4.97-11.09-11.09s4.97-11.09,11.09-11.09s11.09,4.97,11.09,11.09S337.34,206.49,331.22,206.49z"/>
<path d="M533.55,233.41v-57.28h-73.94v57.28c9.2,0,16.65,7.45,16.65,16.65c0,0,0,0,0,0h40.64c0,0,0,0,0,0
	C516.91,240.87,524.36,233.41,533.55,233.41z"/>
<path d="M183.85,250.06h40.67c0-6.13,4.97-11.09,11.09-11.09c6.13,0,11.09,4.97,11.09,11.09h11.08v-11.09
	c-6.12,0-11.08-4.97-11.08-11.09c0-6.12,4.96-11.09,11.08-11.09v-40.67h-73.94V250.06z M213.17,194.37
	c6.13,0,11.09,4.97,11.09,11.09c0,6.13-4.97,11.09-11.09,11.09s-11.09-4.97-11.09-11.09C202.08,199.33,207.04,194.37,213.17,194.37z
	"/>
<path class="st0" d="M430.54,194.61c0-6.13,4.97-11.09,11.09-11.09v-7.39H367.7v44.38c6.12,0,11.08,4.97,11.08,11.09
	c0,6.12-4.96,11.09-11.08,11.09v7.37h73.94V205.7C435.51,205.7,430.54,200.74,430.54,194.61z"/>
<path d="M430.62,320.85c0-6.1,4.94-11.04,11.04-11.05v-44.21h-73.65v7.36c6.1,0,11.05,4.95,11.05,11.05
	c0,6.1-4.95,11.05-11.05,11.05v44.19h73.65v-7.34C435.57,331.89,430.62,326.95,430.62,320.85z"/>
<path d="M246.79,302.56c0-6.12,4.96-11.09,11.09-11.09v-25.88H232c0,6.13-4.97,11.09-11.09,11.09c-6.13,0-11.09-4.97-11.09-11.09
	h-25.88v25.88c6.12,0,11.09,4.97,11.09,11.09c0,6.12-4.96,11.09-11.09,11.09v25.87h25.88c0-6.12,4.97-11.08,11.09-11.08
	c6.12,0,11.09,4.96,11.09,11.08h25.88v-25.87C251.75,313.65,246.79,308.69,246.79,302.56z"/>
<path d="M551.54,250.06h73.94v-73.94H614.4c0,14.29-11.59,25.88-25.88,25.88c-14.29,0-25.88-11.59-25.88-25.88h-11.09V250.06z"/>
<path d="M349.76,57.29C349.77,57.29,349.77,57.29,349.76,57.29l0-40.64c0,0,0,0,0,0c-9.2,0-16.65-7.45-16.65-16.65h-57.28v73.94
	h57.28C333.12,64.74,340.57,57.29,349.76,57.29z M324.37,48.06c-6.13,0-11.09-4.97-11.09-11.09s4.97-11.09,11.09-11.09
	s11.09,4.97,11.09,11.09S330.49,48.06,324.37,48.06z"/>
<path d="M73.94,313.65v-48.06H48.06c0,0,0,0,0,0c0,6.13-4.97,11.09-11.09,11.09s-11.09-4.97-11.09-11.09c0,0,0,0,0,0H0v48.06
	c0,0,0.01,0,0.01,0c14.29,0,25.88,11.59,25.88,25.88h22.17C48.06,325.24,59.65,313.65,73.94,313.65z"/>
</svg>
