<?xml version="1.0" encoding="utf-8"?>
<!-- Generator: Adobe Illustrator 24.3.0, SVG Export Plug-In . SVG Version: 6.00 Build 0)  -->
<svg version="1.1" id="Layer_1" xmlns="http://www.w3.org/2000/svg" xmlns:xlink="http://www.w3.org/1999/xlink" x="0px" y="0px"
	 viewBox="0 0 288 141.92" style="enable-background:new 0 0 288 141.92;" xml:space="preserve">
<style type="text/css">
	.st0{fill:#FFCE00;}
	.st1{fill:#C4C4C4;}
</style>
<path d="M60.81,42.53c0-5.29,4.29-9.58,9.58-9.58c5.29,0,9.58,4.29,9.58,9.58c0,0.01,0,0.02,0,0.03h11.67V0H79.97
	c0,5.29-4.29,9.58-9.58,9.58c-5.29,0-9.58-4.29-9.58-9.58H49.09v42.55h11.72C60.81,42.54,60.81,42.54,60.81,42.53z"/>
<path d="M42.55,30.86C42.55,30.86,42.55,30.86,42.55,30.86c-5.29,0-9.58-4.29-9.58-9.58s4.29-9.58,9.58-9.58c0,0,0,0,0,0V0H0v42.55
	h42.55V30.86z"/>
<path d="M140.73,36.15c-0.01,0-0.01,0-0.02,0c-3.5,0-6.33-2.84-6.33-6.33s2.84-6.33,6.33-6.33c0.01,0,0.01,0,0.02,0v-4.37
	c-0.01,0-0.01,0-0.02,0c-3.5,0-6.33-2.84-6.33-6.33c0-3.5,2.84-6.33,6.33-6.33c0.01,0,0.01,0,0.02,0V0H98.18v42.55h42.55V36.15z"/>
<path d="M189.82,36.15c-0.01,0-0.01,0-0.02,0c-3.5,0-6.33-2.84-6.33-6.33s2.84-6.33,6.33-6.33c0.01,0,0.01,0,0.02,0v-4.37
	c-0.01,0-0.01,0-0.02,0c-3.5,0-6.33-2.84-6.33-6.33c0-3.5,2.84-6.33,6.33-6.33c0.01,0,0.01,0,0.02,0V0h-42.55v42.55h42.55V36.15z"/>
<path d="M288,36.15c-0.01,0-0.01,0-0.02,0c-3.5,0-6.33-2.84-6.33-6.33s2.84-6.33,6.33-6.33c0.01,0,0.01,0,0.02,0v-4.37
	c-0.01,0-0.01,0-0.02,0c-3.5,0-6.33-2.84-6.33-6.33c0-3.5,2.84-6.33,6.33-6.33c0.01,0,0.01,0,0.02,0V0h-42.55v42.55H288V36.15z"/>
<path d="M232.53,10.64c0-3.53,2.86-6.38,6.38-6.38V0h-42.55v25.55c3.52,0,6.38,2.86,6.38,6.38c0,3.52-2.86,6.38-6.38,6.38v4.24
	h42.55V17.02C235.39,17.02,232.53,14.17,232.53,10.64z"/>
<path class="st0" d="M60.81,92.21c0-5.29,4.29-9.58,9.58-9.58c5.29,0,9.58,4.29,9.58,9.58c0,0.01,0,0.02,0,0.03h11.67V49.68H79.97
	c0,5.29-4.29,9.58-9.58,9.58c-5.29,0-9.58-4.29-9.58-9.58H49.09v42.55h11.72C60.81,92.23,60.81,92.22,60.81,92.21z"/>
<path class="st0" d="M42.55,80.54C42.55,80.54,42.55,80.54,42.55,80.54c-5.29,0-9.58-4.29-9.58-9.58c0-5.29,4.29-9.58,9.58-9.58
	c0,0,0,0,0,0V49.68H0v42.55h42.55V80.54z"/>
<path class="st0" d="M140.73,85.83c-0.01,0-0.01,0-0.02,0c-3.5,0-6.33-2.84-6.33-6.33c0-3.5,2.84-6.33,6.33-6.33
	c0.01,0,0.01,0,0.02,0V68.8c-0.01,0-0.01,0-0.02,0c-3.5,0-6.33-2.84-6.33-6.33c0-3.5,2.84-6.33,6.33-6.33c0.01,0,0.01,0,0.02,0
	v-6.45H98.18v42.55h42.55V85.83z"/>
<path class="st0" d="M189.82,85.83c-0.01,0-0.01,0-0.02,0c-3.5,0-6.33-2.84-6.33-6.33c0-3.5,2.84-6.33,6.33-6.33
	c0.01,0,0.01,0,0.02,0V68.8c-0.01,0-0.01,0-0.02,0c-3.5,0-6.33-2.84-6.33-6.33c0-3.5,2.84-6.33,6.33-6.33c0.01,0,0.01,0,0.02,0
	v-6.45h-42.55v42.55h42.55V85.83z"/>
<path class="st0" d="M288,85.83c-0.01,0-0.01,0-0.02,0c-3.5,0-6.33-2.84-6.33-6.33c0-3.5,2.84-6.33,6.33-6.33c0.01,0,0.01,0,0.02,0
	V68.8c-0.01,0-0.01,0-0.02,0c-3.5,0-6.33-2.84-6.33-6.33c0-3.5,2.84-6.33,6.33-6.33c0.01,0,0.01,0,0.02,0v-6.45h-42.55v42.55H288
	V85.83z"/>
<path class="st0" d="M232.53,60.32c0-3.53,2.86-6.38,6.38-6.38v-4.25h-42.55v25.55c3.52,0,6.38,2.86,6.38,6.38
	c0,3.52-2.86,6.38-6.38,6.38v4.24h42.55V66.71C235.39,66.71,232.53,63.85,232.53,60.32z"/>
<path class="st1" d="M60.81,141.89c0-5.29,4.29-9.58,9.58-9.58c5.29,0,9.58,4.29,9.58,9.58c0,0.01,0,0.02,0,0.03h11.67V99.36H79.97
	c0,5.29-4.29,9.58-9.58,9.58c-5.29,0-9.58-4.29-9.58-9.58H49.09v42.55h11.72C60.81,141.91,60.81,141.9,60.81,141.89z"/>
<path class="st1" d="M42.55,130.22C42.55,130.22,42.55,130.22,42.55,130.22c-5.29,0-9.58-4.29-9.58-9.58c0-5.29,4.29-9.58,9.58-9.58
	c0,0,0,0,0,0V99.36H0v42.55h42.55V130.22z"/>
<path class="st1" d="M140.73,135.51c-0.01,0-0.01,0-0.02,0c-3.5,0-6.33-2.84-6.33-6.33c0-3.5,2.84-6.33,6.33-6.33
	c0.01,0,0.01,0,0.02,0v-4.37c-0.01,0-0.01,0-0.02,0c-3.5,0-6.33-2.84-6.33-6.33c0-3.5,2.84-6.33,6.33-6.33c0.01,0,0.01,0,0.02,0
	v-6.45H98.18v42.55h42.55V135.51z"/>
<path class="st1" d="M189.82,135.51c-0.01,0-0.01,0-0.02,0c-3.5,0-6.33-2.84-6.33-6.33c0-3.5,2.84-6.33,6.33-6.33
	c0.01,0,0.01,0,0.02,0v-4.37c-0.01,0-0.01,0-0.02,0c-3.5,0-6.33-2.84-6.33-6.33c0-3.5,2.84-6.33,6.33-6.33c0.01,0,0.01,0,0.02,0
	v-6.45h-42.55v42.55h42.55V135.51z"/>
<path class="st1" d="M288,135.51c-0.01,0-0.01,0-0.02,0c-3.5,0-6.33-2.84-6.33-6.33c0-3.5,2.84-6.33,6.33-6.33c0.01,0,0.01,0,0.02,0
	v-4.37c-0.01,0-0.01,0-0.02,0c-3.5,0-6.33-2.84-6.33-6.33c0-3.5,2.84-6.33,6.33-6.33c0.01,0,0.01,0,0.02,0v-6.45h-42.55v42.55H288
	V135.51z"/>
<path class="st1" d="M232.53,110c0-3.53,2.86-6.38,6.38-6.38v-4.25h-42.55v25.55c3.52,0,6.38,2.86,6.38,6.38
	c0,3.52-2.86,6.38-6.38,6.38v4.24h42.55v-25.53C235.39,116.39,232.53,113.53,232.53,110z"/>
</svg>
