<?xml version="1.0" encoding="utf-8"?>
<!-- Generator: Adobe Illustrator 25.2.1, SVG Export Plug-In . SVG Version: 6.00 Build 0)  -->
<svg version="1.1" id="Layer_1" xmlns="http://www.w3.org/2000/svg" xmlns:xlink="http://www.w3.org/1999/xlink" x="0px" y="0px"
	 viewBox="0 0 375 241" style="enable-background:new 0 0 375 241;" xml:space="preserve">
<style type="text/css">
	.st0{fill:#0D6A33;}
	.st1{fill:#98DFF1;}
</style>
<path class="st0" d="M261.18,13.56c-16.94-16.94-44.41-16.94-61.34,0l-11.97,11.97L175.9,13.56c-16.94-16.94-44.41-16.94-61.34,0
	c-16.94,16.94-16.94,44.41,0,61.34l11.97,11.97l61.34,61.35l61.35-61.35l11.97-11.97C278.12,57.96,278.12,30.5,261.18,13.56z"/>
<path class="st1" d="M185.85,23.84c-6.76,13.4-28.31,10.06-40.81,33.2c-6.74,12.47-7.22,25.69-3.04,37.67l43.86-43.86L185.85,23.84
	L185.85,23.84z"/>
<path class="st1" d="M164.81,125.15c7.71,7.71,16.97,16.97,21.04,21.04v-42.09L164.81,125.15z"/>
<path class="st1" d="M185.85,56.54l-42.24,42.24c2.79,6.22,6.85,12.03,11.95,17.13c1.65,1.65,3.87,3.88,6.4,6.4l23.89-23.9V56.54z"
	/>
<path class="st1" d="M189.88,98.96l23.61,23.61c2.64-2.64,4.97-4.97,6.66-6.66c5.1-5.09,9.16-10.91,11.95-17.13l-42.24-42.24
	L189.88,98.96L189.88,98.96z"/>
<path class="st1" d="M233.74,94.7c4.19-11.98,3.69-25.2-3.05-37.67c-12.51-23.14-34.05-19.79-40.81-33.2v27L233.74,94.7z"/>
<path class="st1" d="M189.88,146.2c4.03-4.03,13.11-13.11,20.77-20.77l-20.77-20.77L189.88,146.2L189.88,146.2z"/>
<g>
	<g>
		<path class="st1" d="M105.77,172.26h7.52l6.43,33.1h0.11v-33.1h5.13v39.82h-7.85l-6.43-33.98h-0.11v33.98h-4.8V172.26z"/>
		<path class="st1" d="M129.92,182.41c0-5.57,1.8-10.48,9.21-10.48c7.03,0,9.27,3.69,9.27,9.87v20.13c0,5.57-1.8,10.48-9.27,10.48
			c-6.98,0-9.21-3.69-9.21-9.87L129.92,182.41L129.92,182.41z M135.37,202.87c0,3.42,1.52,5.24,3.76,5.24
			c2.29,0,3.81-1.82,3.81-5.24v-20.9c0-3.91-1.31-5.73-3.81-5.73c-2.45,0-3.76,1.82-3.76,5.73V202.87z"/>
		<path class="st1" d="M153.35,172.26h7.52l6.43,33.1h0.11v-33.1h5.13v39.82h-7.85l-6.43-33.98h-0.11v33.98h-4.79L153.35,172.26
			L153.35,172.26z"/>
		<path class="st0" d="M175.97,172.26h18.53v4.63h-6.54v35.19h-5.45v-35.19h-6.54V172.26L175.97,172.26z"/>
		<path class="st0" d="M197.11,182.41c0-5.57,1.8-10.48,9.21-10.48c7.03,0,9.27,3.69,9.27,9.87v20.13c0,5.57-1.8,10.48-9.27,10.48
			c-6.98,0-9.21-3.69-9.21-9.87L197.11,182.41L197.11,182.41z M202.56,202.87c0,3.42,1.52,5.24,3.76,5.24
			c2.29,0,3.81-1.82,3.81-5.24v-20.9c0-3.91-1.31-5.73-3.81-5.73c-2.45,0-3.76,1.82-3.76,5.73V202.87z"/>
		<path class="st0" d="M226.17,191.4l-7.9-19.15h5.77l5.13,14.01l5.13-14.01h5.45l-7.85,19.69l8.12,20.13h-5.77l-5.34-14.62
			l-5.77,14.62h-5.45L226.17,191.4z"/>
		<path class="st0" d="M243.39,172.26h5.45v39.82h-5.45L243.39,172.26L243.39,172.26z"/>
		<path class="st0" d="M253.2,182.41c0-5.57,1.8-10.48,9.21-10.48c5.39,0,7.9,2.75,7.9,7.23v3.97h-5.13v-2.75
			c0-2.54-0.87-4.14-3.16-4.14c-2.84,0-3.38,2.04-3.38,6.84v19.53c0,4.68,1.47,5.52,3.22,5.52c2.01,0,3.33-1.43,3.33-4.74v-2.75
			h5.13v4.41c0,4.19-1.69,7.39-8.01,7.39c-6.86,0-9.1-3.69-9.1-9.87L253.2,182.41L253.2,182.41z"/>
	</g>
</g>
</svg>
